<ttFont>
<head>
    <!-- Most of this table will be recalculated by the compiler -->
    <tableVersion value="1.0"/>
    <fontRevision value="1.007"/>
    <checkSumAdjustment value="0xd5a2e0f4"/>
    <magicNumber value="0x5f0f3cf5"/>
    <flags value="00000000 00000011"/>
    <unitsPerEm value="1000"/>
    <created value="Sat Jan  4 16:14:24 2020"/>
    <modified value="Tue Sep  9 22:05:04 2025"/>
    <xMin value="-215"/>
    <yMin value="-294"/>
    <xMax value="1405"/>
    <yMax value="1149"/>
    <macStyle value="00000000 00000000"/>
    <lowestRecPPEM value="6"/>
    <fontDirectionHint value="2"/>
    <indexToLocFormat value="0"/>
    <glyphDataFormat value="0"/>
  </head>
    <TTGlyph name=".notdef" xMin="40" yMin="0" xMax="544" yMax="700">
      <contour>
        <pt x="75" y="0" on="1" overlap="1"/>
        <pt x="40" y="0" on="0"/>
        <pt x="40" y="35" on="1"/>
        <pt x="40" y="665" on="1"/>
        <pt x="40" y="700" on="0"/>
        <pt x="75" y="700" on="1"/>
        <pt x="509" y="700" on="1"/>
        <pt x="544" y="700" on="0"/>
        <pt x="544" y="665" on="1"/>
        <pt x="544" y="35" on="1"/>
        <pt x="544" y="0" on="0"/>
        <pt x="509" y="0" on="1"/>
      </contour>
      <contour>
        <pt x="75" y="30" on="1"/>
        <pt x="488" y="30" on="1"/>
        <pt x="491" y="30" on="0"/>
        <pt x="493" y="34" on="0"/>
        <pt x="491" y="36" on="1"/>
        <pt x="76" y="635" on="1"/>
        <pt x="74" y="638" on="0"/>
        <pt x="70" y="637" on="0"/>
        <pt x="70" y="633" on="1"/>
        <pt x="70" y="35" on="1"/>
        <pt x="70" y="30" on="0"/>
      </contour>
      <contour>
        <pt x="508" y="65" on="1"/>
        <pt x="510" y="62" on="0"/>
        <pt x="514" y="63" on="0"/>
        <pt x="514" y="67" on="1"/>
        <pt x="514" y="665" on="1"/>
        <pt x="514" y="670" on="0"/>
        <pt x="509" y="670" on="1"/>
        <pt x="95" y="670" on="1"/>
        <pt x="92" y="670" on="0"/>
        <pt x="90" y="666" on="0"/>
        <pt x="92" y="664" on="1"/>
      </contour>
    </TTGlyph>
    <TTGlyph name="A" xMin="-1" yMin="0" xMax="695" yMax="700">
      <contour>
        <pt x="-1" y="0" on="1" overlap="1"/>
        <pt x="276" y="700" on="1"/>
        <pt x="420" y="700" on="1"/>
        <pt x="695" y="0" on="1"/>
        <pt x="523" y="0" on="1"/>
        <pt x="391" y="355" on="1"/>
        <pt x="383" y="376" on="0"/>
        <pt x="367" y="424" on="0"/>
        <pt x="351" y="475" on="0"/>
        <pt x="336" y="524" on="0"/>
        <pt x="331" y="545" on="1"/>
        <pt x="361" y="546" on="1"/>
        <pt x="355" y="521" on="0"/>
        <pt x="340" y="473" on="0"/>
        <pt x="325" y="426" on="0"/>
        <pt x="307" y="379" on="0"/>
        <pt x="299" y="354" on="1"/>
        <pt x="167" y="0" on="1"/>
      </contour>
      <contour>
        <pt x="131" y="134" on="1"/>
        <pt x="184" y="262" on="1"/>
        <pt x="506" y="262" on="1"/>
        <pt x="558" y="134" on="1"/>
      </contour>
    </TTGlyph>
    <TTGlyph name="AE" xMin="-9" yMin="0" xMax="1016" yMax="700">
      <contour>
        <pt x="-9" y="0" on="1" overlap="1"/>
        <pt x="479" y="700" on="1"/>
        <pt x="1016" y="700" on="1"/>
        <pt x="1016" y="560" on="1"/>
        <pt x="688" y="560" on="1"/>
        <pt x="688" y="422" on="1"/>
        <pt x="971" y="422" on="1"/>
        <pt x="971" y="287" on="1"/>
        <pt x="688" y="287" on="1"/>
        <pt x="688" y="140" on="1"/>
        <pt x="1016" y="140" on="1"/>
        <pt x="1016" y="0" on="1"/>
        <pt x="526" y="0" on="1"/>
        <pt x="526" y="143" on="1"/>
        <pt x="257" y="143" on="1"/>
        <pt x="348" y="276" on="1"/>
        <pt x="526" y="276" on="1"/>
        <pt x="526" y="558" on="1"/>
        <pt x="551" y="550" on="1"/>
        <pt x="175" y="0" on="1"/>
      </contour>
    </TTGlyph>
    <TTGlyph name="AEacute" xMin="-9" yMin="0" xMax="1016" yMax="943">
      <component glyphName="AE" x="0" y="0" flags="0x604"/>
      <component glyphName="acutecomb.case" x="476" y="0" flags="0x4"/>
    </TTGlyph>
    <TTGlyph name="Aacute" xMin="-1" yMin="0" xMax="695" yMax="943">
      <component glyphName="A" x="0" y="0" flags="0x604"/>
      <component glyphName="acutecomb.case" x="103" y="0" flags="0x4"/>
    </TTGlyph>
    <TTGlyph name="Abreve" xMin="-1" yMin="0" xMax="695" yMax="921">
      <component glyphName="A" x="0" y="0" flags="0x604"/>
      <component glyphName="uni0306.case" x="97" y="0" flags="0x4"/>
    </TTGlyph>
    <TTGlyph name="Acircumflex" xMin="-1" yMin="0" xMax="695" yMax="917">
      <component glyphName="A" x="0" y="0" flags="0x604"/>
      <component glyphName="uni0302.case" x="97" y="0" flags="0x4"/>
    </TTGlyph>
    <TTGlyph name="Adieresis" xMin="-1" yMin="0" xMax="695" yMax="924">
      <component glyphName="A" x="0" y="0" flags="0x604"/>
      <component glyphName="uni0308.case" x="97" y="0" flags="0x4"/>
    </TTGlyph>
    <TTGlyph name="Agrave" xMin="-1" yMin="0" xMax="695" yMax="943">
      <component glyphName="A" x="0" y="0" flags="0x604"/>
      <component glyphName="gravecomb.case" x="100" y="0" flags="0x4"/>
    </TTGlyph>
    <TTGlyph name="Amacron" xMin="-1" yMin="0" xMax="695" yMax="890">
      <component glyphName="A" x="0" y="0" flags="0x604"/>
      <component glyphName="uni0304.case" x="96" y="0" flags="0x4"/>
    </TTGlyph>
    <TTGlyph name="Aogonek" xMin="-1" yMin="-211" xMax="695" yMax="700">
      <component glyphName="A" x="0" y="0" flags="0x604"/>
      <component glyphName="uni0328.case" x="317" y="0" flags="0x4"/>
    </TTGlyph>
    <TTGlyph name="Aring" xMin="-1" yMin="0" xMax="695" yMax="924">
      <component glyphName="A" x="0" y="0" flags="0x604"/>
      <component glyphName="uni030A.case" x="96" y="0" flags="0x4"/>
    </TTGlyph>
    <TTGlyph name="Aringacute" xMin="-1" yMin="0" xMax="695" yMax="1136">
      <component glyphName="A" x="0" y="0" flags="0x604"/>
      <component glyphName="uni030A.case" x="96" y="0" flags="0x4"/>
      <component glyphName="acutecomb.case" x="103" y="193" flags="0x4"/>
    </TTGlyph>
    <TTGlyph name="Atilde" xMin="-1" yMin="0" xMax="695" yMax="910">
      <component glyphName="A" x="0" y="0" flags="0x604"/>
      <component glyphName="tildecomb.case" x="96" y="0" flags="0x4"/>
    </TTGlyph>
    <TTGlyph name="B" xMin="88" yMin="0" xMax="657" yMax="700">
      <contour>
        <pt x="88" y="0" on="1" overlap="1"/>
        <pt x="88" y="700" on="1"/>
        <pt x="397" y="700" on="1"/>
        <pt x="469" y="700" on="0"/>
        <pt x="569" y="659" on="0"/>
        <pt x="620" y="582" on="0"/>
        <pt x="620" y="528" on="1"/>
        <pt x="620" y="468" on="0"/>
        <pt x="561" y="386" on="0"/>
        <pt x="505" y="372" on="1"/>
        <pt x="503" y="391" on="1"/>
        <pt x="550" y="381" on="0"/>
        <pt x="619" y="331" on="0"/>
        <pt x="657" y="258" on="0"/>
        <pt x="657" y="212" on="1"/>
        <pt x="657" y="159" on="0"/>
        <pt x="621" y="80" on="0"/>
        <pt x="553" y="26" on="0"/>
        <pt x="462" y="0" on="0"/>
        <pt x="407" y="0" on="1"/>
      </contour>
      <contour>
        <pt x="248" y="142" on="1"/>
        <pt x="401" y="142" on="1"/>
        <pt x="429" y="142" on="0"/>
        <pt x="468" y="160" on="0"/>
        <pt x="490" y="195" on="0"/>
        <pt x="490" y="220" on="1"/>
        <pt x="490" y="243" on="0"/>
        <pt x="467" y="275" on="0"/>
        <pt x="425" y="292" on="0"/>
        <pt x="396" y="292" on="1"/>
        <pt x="248" y="292" on="1"/>
      </contour>
      <contour>
        <pt x="248" y="419" on="1"/>
        <pt x="373" y="419" on="1"/>
        <pt x="399" y="419" on="0"/>
        <pt x="436" y="436" on="0"/>
        <pt x="455" y="467" on="0"/>
        <pt x="455" y="489" on="1"/>
        <pt x="455" y="521" on="0"/>
        <pt x="411" y="558" on="0"/>
        <pt x="367" y="558" on="1"/>
        <pt x="248" y="558" on="1"/>
      </contour>
    </TTGlyph>
    <TTGlyph name="C" xMin="43" yMin="-10" xMax="672" yMax="714">
      <contour>
        <pt x="406" y="-10" on="1" overlap="1"/>
        <pt x="327" y="-10" on="0"/>
        <pt x="194" y="43" on="0"/>
        <pt x="96" y="140" on="0"/>
        <pt x="43" y="273" on="0"/>
        <pt x="43" y="353" on="1"/>
        <pt x="43" y="431" on="0"/>
        <pt x="99" y="563" on="0"/>
        <pt x="198" y="660" on="0"/>
        <pt x="333" y="714" on="0"/>
        <pt x="413" y="714" on="1"/>
        <pt x="463" y="714" on="0"/>
        <pt x="559" y="688" on="0"/>
        <pt x="642" y="637" on="0"/>
        <pt x="672" y="602" on="1"/>
        <pt x="568" y="483" on="1"/>
        <pt x="547" y="505" on="0"/>
        <pt x="500" y="538" on="0"/>
        <pt x="444" y="556" on="0"/>
        <pt x="412" y="556" on="1"/>
        <pt x="372" y="556" on="0"/>
        <pt x="301" y="527" on="0"/>
        <pt x="248" y="474" on="0"/>
        <pt x="218" y="398" on="0"/>
        <pt x="218" y="351" on="1"/>
        <pt x="218" y="305" on="0"/>
        <pt x="248" y="230" on="0"/>
        <pt x="302" y="176" on="0"/>
        <pt x="379" y="148" on="0"/>
        <pt x="426" y="148" on="1"/>
        <pt x="458" y="148" on="0"/>
        <pt x="516" y="166" on="0"/>
        <pt x="565" y="197" on="0"/>
        <pt x="584" y="217" on="1"/>
        <pt x="666" y="87" on="1"/>
        <pt x="641" y="59" on="0"/>
        <pt x="558" y="15" on="0"/>
        <pt x="457" y="-10" on="0"/>
      </contour>
    </TTGlyph>
    <TTGlyph name="Cacute" xMin="43" yMin="-10" xMax="672" yMax="943">
      <component glyphName="C" x="0" y="0" flags="0x604"/>
      <component glyphName="acutecomb.case" x="167" y="0" flags="0x4"/>
    </TTGlyph>
    <TTGlyph name="Ccaron" xMin="43" yMin="-10" xMax="672" yMax="918">
      <component glyphName="C" x="0" y="0" flags="0x604"/>
      <component glyphName="uni030C.case" x="161" y="0" flags="0x4"/>
    </TTGlyph>
    <TTGlyph name="Ccedilla" xMin="43" yMin="-247" xMax="672" yMax="714">
      <component glyphName="C" x="0" y="0" flags="0x604"/>
      <component glyphName="uni0327.case" x="147" y="0" flags="0x4"/>
    </TTGlyph>
    <TTGlyph name="Ccircumflex" xMin="43" yMin="-10" xMax="672" yMax="917">
      <component glyphName="C" x="0" y="0" flags="0x604"/>
      <component glyphName="uni0302.case" x="160" y="0" flags="0x4"/>
    </TTGlyph>
    <TTGlyph name="Cdotaccent" xMin="43" yMin="-10" xMax="672" yMax="922">
      <component glyphName="C" x="0" y="0" flags="0x604"/>
      <component glyphName="uni0307.case" x="161" y="0" flags="0x4"/>
    </TTGlyph>
    <TTGlyph name="D" xMin="88" yMin="0" xMax="729" yMax="700">
      <contour>
        <pt x="88" y="0" on="1" overlap="1"/>
        <pt x="88" y="700" on="1"/>
        <pt x="381" y="700" on="1"/>
        <pt x="458" y="700" on="0"/>
        <pt x="586" y="649" on="0"/>
        <pt x="679" y="555" on="0"/>
        <pt x="729" y="427" on="0"/>
        <pt x="729" y="350" on="1"/>
        <pt x="729" y="273" on="0"/>
        <pt x="679" y="144" on="0"/>
        <pt x="586" y="51" on="0"/>
        <pt x="458" y="0" on="0"/>
        <pt x="381" y="0" on="1"/>
      </contour>
      <contour>
        <pt x="258" y="116" on="1"/>
        <pt x="235" y="150" on="1"/>
        <pt x="376" y="150" on="1"/>
        <pt x="418" y="150" on="0"/>
        <pt x="484" y="179" on="0"/>
        <pt x="531" y="231" on="0"/>
        <pt x="557" y="305" on="0"/>
        <pt x="557" y="350" on="1"/>
        <pt x="557" y="395" on="0"/>
        <pt x="531" y="469" on="0"/>
        <pt x="484" y="521" on="0"/>
        <pt x="418" y="550" on="0"/>
        <pt x="376" y="550" on="1"/>
        <pt x="232" y="550" on="1"/>
        <pt x="258" y="582" on="1"/>
      </contour>
    </TTGlyph>
    <TTGlyph name="Dcaron" xMin="88" yMin="0" xMax="729" yMax="918">
      <component glyphName="D" x="0" y="0" flags="0x604"/>
      <component glyphName="uni030C.case" x="136" y="0" flags="0x4"/>
    </TTGlyph>
    <TTGlyph name="Dcroat" xMin="35" yMin="0" xMax="729" yMax="700">
      <component glyphName="Eth" x="0" y="0" flags="0x604"/>
    </TTGlyph>
    <TTGlyph name="E" xMin="88" yMin="0" xMax="586" yMax="700">
      <contour>
        <pt x="88" y="0" on="1" overlap="1"/>
        <pt x="88" y="700" on="1"/>
        <pt x="576" y="700" on="1"/>
        <pt x="576" y="555" on="1"/>
        <pt x="253" y="555" on="1"/>
        <pt x="253" y="145" on="1"/>
        <pt x="586" y="145" on="1"/>
        <pt x="586" y="0" on="1"/>
      </contour>
      <contour>
        <pt x="168" y="287" on="1"/>
        <pt x="168" y="425" on="1"/>
        <pt x="531" y="425" on="1"/>
        <pt x="531" y="287" on="1"/>
      </contour>
    </TTGlyph>
    <TTGlyph name="Eacute" xMin="88" yMin="0" xMax="586" yMax="943">
      <component glyphName="E" x="0" y="0" flags="0x604"/>
      <component glyphName="acutecomb.case" x="99" y="0" flags="0x4"/>
    </TTGlyph>
    <TTGlyph name="Ebreve" xMin="88" yMin="0" xMax="586" yMax="921">
      <component glyphName="E" x="0" y="0" flags="0x604"/>
      <component glyphName="uni0306.case" x="93" y="0" flags="0x4"/>
    </TTGlyph>
    <TTGlyph name="Ecaron" xMin="88" yMin="0" xMax="586" yMax="918">
      <component glyphName="E" x="0" y="0" flags="0x604"/>
      <component glyphName="uni030C.case" x="93" y="0" flags="0x4"/>
    </TTGlyph>
    <TTGlyph name="Ecircumflex" xMin="88" yMin="0" xMax="586" yMax="917">
      <component glyphName="E" x="0" y="0" flags="0x604"/>
      <component glyphName="uni0302.case" x="92" y="0" flags="0x4"/>
    </TTGlyph>
    <TTGlyph name="Edieresis" xMin="88" yMin="0" xMax="586" yMax="924">
      <component glyphName="E" x="0" y="0" flags="0x604"/>
      <component glyphName="uni0308.case" x="92" y="0" flags="0x4"/>
    </TTGlyph>
    <TTGlyph name="Edotaccent" xMin="88" yMin="0" xMax="586" yMax="922">
      <component glyphName="E" x="0" y="0" flags="0x604"/>
      <component glyphName="uni0307.case" x="93" y="0" flags="0x4"/>
    </TTGlyph>
    <TTGlyph name="Egrave" xMin="88" yMin="0" xMax="586" yMax="943">
      <component glyphName="E" x="0" y="0" flags="0x604"/>
      <component glyphName="gravecomb.case" x="96" y="0" flags="0x4"/>
    </TTGlyph>
    <TTGlyph name="Emacron" xMin="88" yMin="0" xMax="586" yMax="890">
      <component glyphName="E" x="0" y="0" flags="0x604"/>
      <component glyphName="uni0304.case" x="92" y="0" flags="0x4"/>
    </TTGlyph>
    <TTGlyph name="Eng" xMin="88" yMin="-203" xMax="719" yMax="700">
      <contour>
        <pt x="494" y="-203" on="1" overlap="1"/>
        <pt x="427" y="-78" on="1"/>
        <pt x="451" y="-78" on="0"/>
        <pt x="498" y="-69" on="0"/>
        <pt x="536" y="-49" on="0"/>
        <pt x="558" y="-20" on="0"/>
        <pt x="558" y="0" on="1"/>
        <pt x="558" y="60" on="1"/>
        <pt x="567" y="-2" on="1"/>
        <pt x="226" y="456" on="1"/>
        <pt x="239" y="465" on="1"/>
        <pt x="241" y="443" on="0"/>
        <pt x="245" y="398" on="0"/>
        <pt x="249" y="352" on="0"/>
        <pt x="252" y="309" on="0"/>
        <pt x="253" y="272" on="0"/>
        <pt x="253" y="258" on="1"/>
        <pt x="253" y="0" on="1"/>
        <pt x="88" y="0" on="1"/>
        <pt x="88" y="700" on="1"/>
        <pt x="240" y="700" on="1"/>
        <pt x="587" y="229" on="1"/>
        <pt x="572" y="221" on="1"/>
        <pt x="566" y="262" on="0"/>
        <pt x="559" y="333" on="0"/>
        <pt x="555" y="403" on="0"/>
        <pt x="554" y="480" on="0"/>
        <pt x="554" y="527" on="1"/>
        <pt x="554" y="700" on="1"/>
        <pt x="719" y="700" on="1"/>
        <pt x="719" y="-10" on="1"/>
        <pt x="719" y="-76" on="0"/>
        <pt x="665" y="-161" on="0"/>
        <pt x="564" y="-203" on="0"/>
      </contour>
    </TTGlyph>
    <TTGlyph name="Eogonek" xMin="88" yMin="-211" xMax="586" yMax="700">
      <component glyphName="E" x="0" y="0" flags="0x604"/>
      <component glyphName="uni0328.case" x="212" y="0" flags="0x4"/>
    </TTGlyph>
    <TTGlyph name="Eth" xMin="35" yMin="0" xMax="729" yMax="700">
      <contour>
        <pt x="35" y="291" on="1" overlap="1"/>
        <pt x="35" y="409" on="1"/>
        <pt x="361" y="409" on="1"/>
        <pt x="361" y="291" on="1"/>
      </contour>
      <contour>
        <pt x="88" y="0" on="1"/>
        <pt x="88" y="700" on="1"/>
        <pt x="381" y="700" on="1"/>
        <pt x="458" y="700" on="0"/>
        <pt x="586" y="649" on="0"/>
        <pt x="679" y="555" on="0"/>
        <pt x="729" y="427" on="0"/>
        <pt x="729" y="350" on="1"/>
        <pt x="729" y="273" on="0"/>
        <pt x="679" y="144" on="0"/>
        <pt x="586" y="51" on="0"/>
        <pt x="458" y="0" on="0"/>
        <pt x="381" y="0" on="1"/>
      </contour>
      <contour>
        <pt x="258" y="116" on="1"/>
        <pt x="235" y="150" on="1"/>
        <pt x="376" y="150" on="1"/>
        <pt x="418" y="150" on="0"/>
        <pt x="484" y="179" on="0"/>
        <pt x="531" y="231" on="0"/>
        <pt x="557" y="305" on="0"/>
        <pt x="557" y="350" on="1"/>
        <pt x="557" y="395" on="0"/>
        <pt x="531" y="469" on="0"/>
        <pt x="484" y="521" on="0"/>
        <pt x="418" y="550" on="0"/>
        <pt x="376" y="550" on="1"/>
        <pt x="232" y="550" on="1"/>
        <pt x="258" y="582" on="1"/>
      </contour>
    </TTGlyph>
    <TTGlyph name="Euro" xMin="18" yMin="-10" xMax="644" yMax="714">
      <contour>
        <pt x="457" y="-10" on="1" overlap="1"/>
        <pt x="378" y="-10" on="0"/>
        <pt x="243" y="43" on="0"/>
        <pt x="145" y="140" on="0"/>
        <pt x="91" y="273" on="0"/>
        <pt x="91" y="353" on="1"/>
        <pt x="91" y="432" on="0"/>
        <pt x="145" y="563" on="0"/>
        <pt x="244" y="660" on="0"/>
        <pt x="378" y="714" on="0"/>
        <pt x="457" y="714" on="1"/>
        <pt x="492" y="714" on="0"/>
        <pt x="555" y="704" on="0"/>
        <pt x="615" y="680" on="0"/>
        <pt x="644" y="661" on="1"/>
        <pt x="563" y="528" on="1"/>
        <pt x="533" y="549" on="0"/>
        <pt x="476" y="564" on="0"/>
        <pt x="446" y="564" on="1"/>
        <pt x="405" y="564" on="0"/>
        <pt x="337" y="533" on="0"/>
        <pt x="287" y="476" on="0"/>
        <pt x="259" y="399" on="0"/>
        <pt x="259" y="353" on="1"/>
        <pt x="259" y="306" on="0"/>
        <pt x="287" y="227" on="0"/>
        <pt x="336" y="171" on="0"/>
        <pt x="404" y="140" on="0"/>
        <pt x="446" y="140" on="1"/>
        <pt x="468" y="140" on="0"/>
        <pt x="506" y="146" on="0"/>
        <pt x="544" y="162" on="0"/>
        <pt x="564" y="177" on="1"/>
        <pt x="640" y="41" on="1"/>
        <pt x="611" y="23" on="0"/>
        <pt x="551" y="0" on="0"/>
        <pt x="489" y="-10" on="0"/>
      </contour>
      <contour>
        <pt x="18" y="249" on="1"/>
        <pt x="18" y="323" on="1"/>
        <pt x="474" y="323" on="1"/>
        <pt x="474" y="249" on="1"/>
      </contour>
      <contour>
        <pt x="18" y="376" on="1"/>
        <pt x="18" y="450" on="1"/>
        <pt x="474" y="450" on="1"/>
        <pt x="474" y="376" on="1"/>
      </contour>
    </TTGlyph>
    <TTGlyph name="F" xMin="88" yMin="0" xMax="570" yMax="700">
      <contour>
        <pt x="88" y="0" on="1" overlap="1"/>
        <pt x="88" y="700" on="1"/>
        <pt x="258" y="700" on="1"/>
        <pt x="258" y="0" on="1"/>
      </contour>
      <contour>
        <pt x="167" y="268" on="1"/>
        <pt x="167" y="410" on="1"/>
        <pt x="529" y="410" on="1"/>
        <pt x="529" y="268" on="1"/>
      </contour>
      <contour>
        <pt x="167" y="550" on="1"/>
        <pt x="167" y="700" on="1"/>
        <pt x="570" y="700" on="1"/>
        <pt x="570" y="550" on="1"/>
      </contour>
    </TTGlyph>
    <TTGlyph name="G" xMin="43" yMin="-10" xMax="740" yMax="714">
      <contour>
        <pt x="413" y="-10" on="1" overlap="1"/>
        <pt x="329" y="-10" on="0"/>
        <pt x="193" y="44" on="0"/>
        <pt x="95" y="142" on="0"/>
        <pt x="43" y="275" on="0"/>
        <pt x="43" y="353" on="1"/>
        <pt x="43" y="431" on="0"/>
        <pt x="98" y="562" on="0"/>
        <pt x="200" y="660" on="0"/>
        <pt x="339" y="714" on="0"/>
        <pt x="421" y="714" on="1"/>
        <pt x="479" y="714" on="0"/>
        <pt x="582" y="684" on="0"/>
        <pt x="666" y="632" on="0"/>
        <pt x="695" y="598" on="1"/>
        <pt x="592" y="489" on="1"/>
        <pt x="567" y="513" on="0"/>
        <pt x="514" y="545" on="0"/>
        <pt x="454" y="564" on="0"/>
        <pt x="420" y="564" on="1"/>
        <pt x="376" y="564" on="0"/>
        <pt x="303" y="532" on="0"/>
        <pt x="248" y="475" on="0"/>
        <pt x="218" y="398" on="0"/>
        <pt x="218" y="353" on="1"/>
        <pt x="218" y="308" on="0"/>
        <pt x="250" y="230" on="0"/>
        <pt x="306" y="173" on="0"/>
        <pt x="383" y="140" on="0"/>
        <pt x="427" y="140" on="1"/>
        <pt x="458" y="140" on="0"/>
        <pt x="513" y="160" on="0"/>
        <pt x="553" y="194" on="0"/>
        <pt x="577" y="241" on="0"/>
        <pt x="577" y="268" on="1"/>
        <pt x="577" y="294" on="1"/>
        <pt x="599" y="260" on="1"/>
        <pt x="406" y="260" on="1"/>
        <pt x="406" y="393" on="1"/>
        <pt x="735" y="393" on="1"/>
        <pt x="737" y="382" on="0"/>
        <pt x="739" y="344" on="0"/>
        <pt x="740" y="308" on="0"/>
        <pt x="740" y="299" on="1"/>
        <pt x="740" y="231" on="0"/>
        <pt x="691" y="118" on="0"/>
        <pt x="603" y="36" on="0"/>
        <pt x="483" y="-10" on="0"/>
      </contour>
    </TTGlyph>
    <TTGlyph name="Gbreve" xMin="43" yMin="-10" xMax="740" yMax="921">
      <component glyphName="G" x="0" y="0" flags="0x604"/>
      <component glyphName="uni0306.case" x="162" y="0" flags="0x4"/>
    </TTGlyph>
    <TTGlyph name="Gcaron" xMin="43" yMin="-10" xMax="740" yMax="918">
      <component glyphName="G" x="0" y="0" flags="0x604"/>
      <component glyphName="uni030C.case" x="162" y="0" flags="0x4"/>
    </TTGlyph>
    <TTGlyph name="Gcircumflex" xMin="43" yMin="-10" xMax="740" yMax="917">
      <component glyphName="G" x="0" y="0" flags="0x604"/>
      <component glyphName="uni0302.case" x="161" y="0" flags="0x4"/>
    </TTGlyph>
    <TTGlyph name="Gdotaccent" xMin="43" yMin="-10" xMax="740" yMax="922">
      <component glyphName="G" x="0" y="0" flags="0x604"/>
      <component glyphName="uni0307.case" x="162" y="0" flags="0x4"/>
    </TTGlyph>
    <TTGlyph name="H" xMin="88" yMin="0" xMax="692" yMax="700">
      <contour>
        <pt x="522" y="0" on="1" overlap="1"/>
        <pt x="522" y="700" on="1"/>
        <pt x="692" y="700" on="1"/>
        <pt x="692" y="0" on="1"/>
      </contour>
      <contour>
        <pt x="88" y="0" on="1"/>
        <pt x="88" y="700" on="1"/>
        <pt x="258" y="700" on="1"/>
        <pt x="258" y="0" on="1"/>
      </contour>
      <contour>
        <pt x="154" y="273" on="1"/>
        <pt x="155" y="425" on="1"/>
        <pt x="612" y="425" on="1"/>
        <pt x="612" y="273" on="1"/>
      </contour>
    </TTGlyph>
    <TTGlyph name="Hbar" xMin="34" yMin="0" xMax="789" yMax="700">
      <contour>
        <pt x="34" y="479" on="1" overlap="1"/>
        <pt x="34" y="618" on="1"/>
        <pt x="125" y="618" on="1"/>
        <pt x="202" y="608" on="1"/>
        <pt x="596" y="608" on="1"/>
        <pt x="680" y="618" on="1"/>
        <pt x="789" y="618" on="1"/>
        <pt x="789" y="479" on="1"/>
        <pt x="683" y="479" on="1"/>
        <pt x="608" y="489" on="1"/>
        <pt x="192" y="489" on="1"/>
        <pt x="121" y="479" on="1"/>
      </contour>
      <contour>
        <pt x="543" y="0" on="1"/>
        <pt x="543" y="700" on="1"/>
        <pt x="713" y="700" on="1"/>
        <pt x="713" y="0" on="1"/>
      </contour>
      <contour>
        <pt x="109" y="0" on="1"/>
        <pt x="109" y="700" on="1"/>
        <pt x="279" y="700" on="1"/>
        <pt x="279" y="0" on="1"/>
      </contour>
      <contour>
        <pt x="176" y="273" on="1"/>
        <pt x="176" y="425" on="1"/>
        <pt x="634" y="425" on="1"/>
        <pt x="634" y="273" on="1"/>
      </contour>
    </TTGlyph>
    <TTGlyph name="Hcircumflex" xMin="88" yMin="0" xMax="692" yMax="917">
      <component glyphName="H" x="0" y="0" flags="0x604"/>
      <component glyphName="uni0302.case" x="140" y="0" flags="0x4"/>
    </TTGlyph>
    <TTGlyph name="I" xMin="74" yMin="0" xMax="481" yMax="700">
      <contour>
        <pt x="74" y="0" on="1" overlap="1"/>
        <pt x="74" y="143" on="1"/>
        <pt x="192" y="143" on="1"/>
        <pt x="192" y="557" on="1"/>
        <pt x="74" y="557" on="1"/>
        <pt x="74" y="700" on="1"/>
        <pt x="481" y="700" on="1"/>
        <pt x="481" y="557" on="1"/>
        <pt x="362" y="557" on="1"/>
        <pt x="362" y="143" on="1"/>
        <pt x="481" y="143" on="1"/>
        <pt x="481" y="0" on="1"/>
      </contour>
    </TTGlyph>
    <TTGlyph name="I.ss01" xMin="89" yMin="0" xMax="259" yMax="700">
      <contour>
        <pt x="89" y="0" on="1" overlap="1"/>
        <pt x="89" y="700" on="1"/>
        <pt x="174" y="700" on="1"/>
        <pt x="195" y="700" on="0"/>
        <pt x="237" y="700" on="0"/>
        <pt x="259" y="700" on="1"/>
        <pt x="259" y="0" on="1"/>
      </contour>
    </TTGlyph>
    <TTGlyph name="IJ" xMin="74" yMin="-10" xMax="1153" yMax="700">
      <component glyphName="I" x="0" y="0" flags="0x404"/>
      <component glyphName="J" x="555" y="0" flags="0x4"/>
    </TTGlyph>
    <TTGlyph name="IJ.ss01" xMin="89" yMin="-10" xMax="837" yMax="700">
      <component glyphName="I.ss01" x="0" y="0" flags="0x404"/>
      <component glyphName="J.ss01" x="347" y="0" flags="0x4"/>
    </TTGlyph>
    <TTGlyph name="Iacute" xMin="74" yMin="0" xMax="481" yMax="943">
      <component glyphName="I" x="0" y="0" flags="0x604"/>
      <component glyphName="acutecomb.case" x="34" y="0" flags="0x4"/>
    </TTGlyph>
    <TTGlyph name="Iacute.ss01" xMin="48" yMin="0" xMax="312" yMax="943">
      <component glyphName="I.ss01" x="0" y="0" flags="0x604"/>
      <component glyphName="acutecomb.case" x="-70" y="0" flags="0x4"/>
    </TTGlyph>
    <TTGlyph name="Iacute_J.loclNLD" xMin="74" yMin="-10" xMax="1153" yMax="943">
      <component glyphName="I" x="0" y="0" flags="0x404"/>
      <component glyphName="acutecomb.case" x="34" y="0" flags="0x4"/>
      <component glyphName="J" x="555" y="0" flags="0x4"/>
      <component glyphName="acutecomb.case" x="717" y="0" flags="0x4"/>
    </TTGlyph>
    <TTGlyph name="Ibreve" xMin="74" yMin="0" xMax="481" yMax="921">
      <component glyphName="I" x="0" y="0" flags="0x604"/>
      <component glyphName="uni0306.case" x="27" y="0" flags="0x4"/>
    </TTGlyph>
    <TTGlyph name="Ibreve.ss01" xMin="-5" yMin="0" xMax="353" yMax="921">
      <component glyphName="I.ss01" x="0" y="0" flags="0x604"/>
      <component glyphName="uni0306.case" x="-76" y="0" flags="0x4"/>
    </TTGlyph>
    <TTGlyph name="Icircumflex" xMin="74" yMin="0" xMax="481" yMax="917">
      <component glyphName="I" x="0" y="0" flags="0x604"/>
      <component glyphName="uni0302.case" x="27" y="0" flags="0x4"/>
    </TTGlyph>
    <TTGlyph name="Icircumflex.ss01" xMin="-8" yMin="0" xMax="354" yMax="917">
      <component glyphName="I.ss01" x="0" y="0" flags="0x604"/>
      <component glyphName="uni0302.case" x="-77" y="0" flags="0x4"/>
    </TTGlyph>
    <TTGlyph name="Idieresis" xMin="69" yMin="0" xMax="486" yMax="924">
      <component glyphName="I" x="0" y="0" flags="0x604"/>
      <component glyphName="uni0308.case" x="27" y="0" flags="0x4"/>
    </TTGlyph>
    <TTGlyph name="Idieresis.ss01" xMin="-35" yMin="0" xMax="382" yMax="924">
      <component glyphName="I.ss01" x="0" y="0" flags="0x604"/>
      <component glyphName="uni0308.case" x="-77" y="0" flags="0x4"/>
    </TTGlyph>
    <TTGlyph name="Idotaccent" xMin="74" yMin="0" xMax="481" yMax="922">
      <component glyphName="I" x="0" y="0" flags="0x604"/>
      <component glyphName="uni0307.case" x="27" y="0" flags="0x4"/>
    </TTGlyph>
    <TTGlyph name="Idotaccent.ss01" xMin="79" yMin="0" xMax="269" yMax="922">
      <component glyphName="I.ss01" x="0" y="0" flags="0x604"/>
      <component glyphName="uni0307.case" x="-76" y="0" flags="0x4"/>
    </TTGlyph>
    <TTGlyph name="Igrave" xMin="74" yMin="0" xMax="481" yMax="943">
      <component glyphName="I" x="0" y="0" flags="0x604"/>
      <component glyphName="gravecomb.case" x="31" y="0" flags="0x4"/>
    </TTGlyph>
    <TTGlyph name="Igrave.ss01" xMin="45" yMin="0" xMax="309" yMax="943">
      <component glyphName="I.ss01" x="0" y="0" flags="0x604"/>
      <component glyphName="gravecomb.case" x="-73" y="0" flags="0x4"/>
    </TTGlyph>
    <TTGlyph name="Imacron" xMin="74" yMin="0" xMax="481" yMax="890">
      <component glyphName="I" x="0" y="0" flags="0x604"/>
      <component glyphName="uni0304.case" x="26" y="0" flags="0x4"/>
    </TTGlyph>
    <TTGlyph name="Imacron.ss01" xMin="-6" yMin="0" xMax="353" yMax="890">
      <component glyphName="I.ss01" x="0" y="0" flags="0x604"/>
      <component glyphName="uni0304.case" x="-77" y="0" flags="0x4"/>
    </TTGlyph>
    <TTGlyph name="Iogonek" xMin="74" yMin="-211" xMax="481" yMax="700">
      <component glyphName="I" x="0" y="0" flags="0x604"/>
      <component glyphName="uni0328.case" x="64" y="0" flags="0x4"/>
    </TTGlyph>
    <TTGlyph name="Iogonek.ss01" xMin="39" yMin="-211" xMax="279" yMax="700">
      <component glyphName="I.ss01" x="0" y="0" flags="0x604"/>
      <component glyphName="uni0328.case" x="-91" y="0" flags="0x4"/>
    </TTGlyph>
    <TTGlyph name="Itilde" xMin="74" yMin="0" xMax="481" yMax="910">
      <component glyphName="I" x="0" y="0" flags="0x604"/>
      <component glyphName="tildecomb.case" x="26" y="0" flags="0x4"/>
    </TTGlyph>
    <TTGlyph name="Itilde.ss01" xMin="-17" yMin="0" xMax="364" yMax="910">
      <component glyphName="I.ss01" x="0" y="0" flags="0x604"/>
      <component glyphName="tildecomb.case" x="-77" y="0" flags="0x4"/>
    </TTGlyph>
    <TTGlyph name="J" xMin="39" yMin="-10" xMax="598" yMax="700">
      <contour>
        <pt x="261" y="-10" on="1" overlap="1"/>
        <pt x="223" y="-10" on="0"/>
        <pt x="155" y="7" on="0"/>
        <pt x="99" y="40" on="0"/>
        <pt x="55" y="87" on="0"/>
        <pt x="39" y="116" on="1"/>
        <pt x="136" y="217" on="1"/>
        <pt x="150" y="196" on="0"/>
        <pt x="176" y="169" on="0"/>
        <pt x="201" y="151" on="0"/>
        <pt x="228" y="143" on="0"/>
        <pt x="243" y="143" on="1"/>
        <pt x="267" y="143" on="0"/>
        <pt x="304" y="166" on="0"/>
        <pt x="324" y="206" on="0"/>
        <pt x="324" y="233" on="1"/>
        <pt x="324" y="552" on="1"/>
        <pt x="196" y="552" on="1"/>
        <pt x="196" y="700" on="1"/>
        <pt x="598" y="700" on="1"/>
        <pt x="598" y="552" on="1"/>
        <pt x="490" y="552" on="1"/>
        <pt x="490" y="213" on="1"/>
        <pt x="490" y="162" on="0"/>
        <pt x="455" y="80" on="0"/>
        <pt x="393" y="21" on="0"/>
        <pt x="310" y="-10" on="0"/>
      </contour>
    </TTGlyph>
    <TTGlyph name="J.ss01" xMin="33" yMin="-10" xMax="490" yMax="700">
      <contour>
        <pt x="253" y="-10" on="1" overlap="1"/>
        <pt x="213" y="-10" on="0"/>
        <pt x="144" y="7" on="0"/>
        <pt x="89" y="39" on="0"/>
        <pt x="47" y="82" on="0"/>
        <pt x="33" y="108" on="1"/>
        <pt x="134" y="210" on="1"/>
        <pt x="152" y="185" on="0"/>
        <pt x="184" y="154" on="0"/>
        <pt x="219" y="140" on="0"/>
        <pt x="239" y="140" on="1"/>
        <pt x="264" y="140" on="0"/>
        <pt x="302" y="162" on="0"/>
        <pt x="324" y="203" on="0"/>
        <pt x="324" y="230" on="1"/>
        <pt x="324" y="700" on="1"/>
        <pt x="490" y="700" on="1"/>
        <pt x="490" y="213" on="1"/>
        <pt x="490" y="162" on="0"/>
        <pt x="456" y="80" on="0"/>
        <pt x="393" y="21" on="0"/>
        <pt x="306" y="-10" on="0"/>
      </contour>
    </TTGlyph>
    <TTGlyph name="Jcircumflex" xMin="39" yMin="-10" xMax="598" yMax="917">
      <component glyphName="J" x="0" y="0" flags="0x604"/>
      <component glyphName="uni0302.case" x="155" y="0" flags="0x4"/>
    </TTGlyph>
    <TTGlyph name="Jcircumflex.ss01" xMin="33" yMin="-10" xMax="589" yMax="917">
      <component glyphName="J.ss01" x="0" y="0" flags="0x604"/>
      <component glyphName="uni0302.case" x="158" y="0" flags="0x4"/>
    </TTGlyph>
    <TTGlyph name="K" xMin="88" yMin="0" xMax="735" yMax="700">
      <contour>
        <pt x="212" y="205" on="1" overlap="1"/>
        <pt x="168" y="348" on="1"/>
        <pt x="515" y="700" on="1"/>
        <pt x="716" y="700" on="1"/>
      </contour>
      <contour>
        <pt x="88" y="0" on="1"/>
        <pt x="88" y="700" on="1"/>
        <pt x="258" y="700" on="1"/>
        <pt x="258" y="0" on="1"/>
      </contour>
      <contour>
        <pt x="537" y="0" on="1"/>
        <pt x="277" y="342" on="1"/>
        <pt x="392" y="441" on="1"/>
        <pt x="735" y="0" on="1"/>
      </contour>
    </TTGlyph>
    <TTGlyph name="L" xMin="88" yMin="0" xMax="570" yMax="700">
      <contour>
        <pt x="88" y="0" on="1" overlap="1"/>
        <pt x="88" y="700" on="1"/>
        <pt x="258" y="700" on="1"/>
        <pt x="258" y="150" on="1"/>
        <pt x="570" y="150" on="1"/>
        <pt x="570" y="0" on="1"/>
      </contour>
    </TTGlyph>
    <TTGlyph name="Lacute" xMin="49" yMin="0" xMax="570" yMax="943">
      <component glyphName="L" x="0" y="0" flags="0x604"/>
      <component glyphName="acutecomb.case" x="-69" y="0" flags="0x4"/>
    </TTGlyph>
    <TTGlyph name="Lcaron" xMin="88" yMin="0" xMax="570" yMax="700">
      <component glyphName="L" x="0" y="0" flags="0x604"/>
      <component glyphName="uni030C.alt" x="202" y="8" flags="0x4"/>
    </TTGlyph>
    <TTGlyph name="Ldot" xMin="88" yMin="0" xMax="570" yMax="700">
      <component glyphName="L" x="0" y="0" flags="0x604"/>
      <component glyphName="period" x="350" y="310" flags="0x4"/>
    </TTGlyph>
    <TTGlyph name="Lslash" xMin="-8" yMin="0" xMax="586" yMax="700">
      <contour>
        <pt x="40" y="238" on="1" overlap="1"/>
        <pt x="-8" y="362" on="1"/>
        <pt x="349" y="519" on="1"/>
        <pt x="399" y="393" on="1"/>
      </contour>
      <contour>
        <pt x="104" y="0" on="1"/>
        <pt x="104" y="700" on="1"/>
        <pt x="274" y="700" on="1"/>
        <pt x="274" y="150" on="1"/>
        <pt x="586" y="150" on="1"/>
        <pt x="586" y="0" on="1"/>
      </contour>
    </TTGlyph>
    <TTGlyph name="M" xMin="88" yMin="0" xMax="790" yMax="700">
      <contour>
        <pt x="88" y="0" on="1" overlap="1"/>
        <pt x="88" y="700" on="1"/>
        <pt x="240" y="700" on="1"/>
        <pt x="495" y="285" on="1"/>
        <pt x="386" y="286" on="1"/>
        <pt x="644" y="700" on="1"/>
        <pt x="790" y="700" on="1"/>
        <pt x="790" y="0" on="1"/>
        <pt x="625" y="0" on="1"/>
        <pt x="625" y="218" on="1"/>
        <pt x="625" y="308" on="0"/>
        <pt x="634" y="452" on="0"/>
        <pt x="645" y="523" on="1"/>
        <pt x="664" y="471" on="1"/>
        <pt x="470" y="170" on="1"/>
        <pt x="404" y="170" on="1"/>
        <pt x="214" y="469" on="1"/>
        <pt x="233" y="523" on="1"/>
        <pt x="244" y="456" on="0"/>
        <pt x="253" y="315" on="0"/>
        <pt x="253" y="218" on="1"/>
        <pt x="253" y="0" on="1"/>
      </contour>
    </TTGlyph>
    <TTGlyph name="N" xMin="88" yMin="0" xMax="719" yMax="700">
      <contour>
        <pt x="88" y="0" on="1" overlap="1"/>
        <pt x="88" y="700" on="1"/>
        <pt x="240" y="700" on="1"/>
        <pt x="607" y="200" on="1"/>
        <pt x="574" y="205" on="1"/>
        <pt x="569" y="238" on="0"/>
        <pt x="563" y="298" on="0"/>
        <pt x="558" y="356" on="0"/>
        <pt x="555" y="416" on="0"/>
        <pt x="554" y="486" on="0"/>
        <pt x="554" y="527" on="1"/>
        <pt x="554" y="700" on="1"/>
        <pt x="719" y="700" on="1"/>
        <pt x="719" y="0" on="1"/>
        <pt x="565" y="0" on="1"/>
        <pt x="182" y="516" on="1"/>
        <pt x="233" y="509" on="1"/>
        <pt x="238" y="461" on="0"/>
        <pt x="245" y="394" on="0"/>
        <pt x="250" y="342" on="0"/>
        <pt x="252" y="300" on="0"/>
        <pt x="253" y="259" on="0"/>
        <pt x="253" y="234" on="1"/>
        <pt x="253" y="0" on="1"/>
      </contour>
    </TTGlyph>
    <TTGlyph name="Nacute" xMin="88" yMin="0" xMax="719" yMax="943">
      <component glyphName="N" x="0" y="0" flags="0x604"/>
      <component glyphName="acutecomb.case" x="160" y="0" flags="0x4"/>
    </TTGlyph>
    <TTGlyph name="Ncaron" xMin="88" yMin="0" xMax="719" yMax="918">
      <component glyphName="N" x="0" y="0" flags="0x604"/>
      <component glyphName="uni030C.case" x="154" y="0" flags="0x4"/>
    </TTGlyph>
    <TTGlyph name="Ntilde" xMin="88" yMin="0" xMax="719" yMax="910">
      <component glyphName="N" x="0" y="0" flags="0x604"/>
      <component glyphName="tildecomb.case" x="153" y="0" flags="0x4"/>
    </TTGlyph>
    <TTGlyph name="O" xMin="43" yMin="-10" xMax="768" yMax="716">
      <contour>
        <pt x="407" y="-10" on="1" overlap="1"/>
        <pt x="327" y="-10" on="0"/>
        <pt x="195" y="44" on="0"/>
        <pt x="97" y="142" on="0"/>
        <pt x="43" y="274" on="0"/>
        <pt x="43" y="353" on="1"/>
        <pt x="43" y="432" on="0"/>
        <pt x="97" y="564" on="0"/>
        <pt x="195" y="662" on="0"/>
        <pt x="327" y="716" on="0"/>
        <pt x="406" y="716" on="1"/>
        <pt x="485" y="716" on="0"/>
        <pt x="617" y="662" on="0"/>
        <pt x="715" y="564" on="0"/>
        <pt x="768" y="432" on="0"/>
        <pt x="768" y="353" on="1"/>
        <pt x="768" y="275" on="0"/>
        <pt x="715" y="142" on="0"/>
        <pt x="617" y="44" on="0"/>
        <pt x="485" y="-10" on="0"/>
      </contour>
      <contour>
        <pt x="406" y="150" on="1"/>
        <pt x="447" y="150" on="0"/>
        <pt x="516" y="180" on="0"/>
        <pt x="567" y="235" on="0"/>
        <pt x="595" y="309" on="0"/>
        <pt x="595" y="353" on="1"/>
        <pt x="595" y="397" on="0"/>
        <pt x="567" y="471" on="0"/>
        <pt x="516" y="526" on="0"/>
        <pt x="447" y="556" on="0"/>
        <pt x="406" y="556" on="1"/>
        <pt x="365" y="556" on="0"/>
        <pt x="296" y="526" on="0"/>
        <pt x="244" y="471" on="0"/>
        <pt x="217" y="397" on="0"/>
        <pt x="217" y="353" on="1"/>
        <pt x="217" y="309" on="0"/>
        <pt x="244" y="234" on="0"/>
        <pt x="296" y="180" on="0"/>
        <pt x="365" y="150" on="0"/>
      </contour>
    </TTGlyph>
    <TTGlyph name="OE" xMin="43" yMin="0" xMax="1020" yMax="700">
      <contour>
        <pt x="375" y="0" on="1" overlap="1"/>
        <pt x="299" y="0" on="0"/>
        <pt x="176" y="50" on="0"/>
        <pt x="90" y="143" on="0"/>
        <pt x="43" y="272" on="0"/>
        <pt x="43" y="350" on="1"/>
        <pt x="43" y="428" on="0"/>
        <pt x="93" y="556" on="0"/>
        <pt x="185" y="650" on="0"/>
        <pt x="315" y="700" on="0"/>
        <pt x="395" y="700" on="1"/>
        <pt x="1020" y="700" on="1"/>
        <pt x="1020" y="555" on="1"/>
        <pt x="687" y="555" on="1"/>
        <pt x="687" y="428" on="1"/>
        <pt x="965" y="428" on="1"/>
        <pt x="965" y="290" on="1"/>
        <pt x="687" y="290" on="1"/>
        <pt x="687" y="145" on="1"/>
        <pt x="1020" y="145" on="1"/>
        <pt x="1020" y="0" on="1"/>
      </contour>
      <contour>
        <pt x="215" y="350" on="1"/>
        <pt x="215" y="303" on="0"/>
        <pt x="239" y="229" on="0"/>
        <pt x="285" y="178" on="0"/>
        <pt x="352" y="150" on="0"/>
        <pt x="395" y="150" on="1"/>
        <pt x="522" y="150" on="1"/>
        <pt x="522" y="550" on="1"/>
        <pt x="403" y="550" on="1"/>
        <pt x="358" y="550" on="0"/>
        <pt x="289" y="522" on="0"/>
        <pt x="241" y="470" on="0"/>
        <pt x="215" y="397" on="0"/>
      </contour>
    </TTGlyph>
    <TTGlyph name="Oacute" xMin="43" yMin="-10" xMax="768" yMax="943">
      <component glyphName="O" x="0" y="0" flags="0x604"/>
      <component glyphName="acutecomb.case" x="162" y="0" flags="0x4"/>
    </TTGlyph>
    <TTGlyph name="Obreve" xMin="43" yMin="-10" xMax="768" yMax="921">
      <component glyphName="O" x="0" y="0" flags="0x604"/>
      <component glyphName="uni0306.case" x="156" y="0" flags="0x4"/>
    </TTGlyph>
    <TTGlyph name="Ocircumflex" xMin="43" yMin="-10" xMax="768" yMax="917">
      <component glyphName="O" x="0" y="0" flags="0x604"/>
      <component glyphName="uni0302.case" x="156" y="0" flags="0x4"/>
    </TTGlyph>
    <TTGlyph name="Odieresis" xMin="43" yMin="-10" xMax="768" yMax="924">
      <component glyphName="O" x="0" y="0" flags="0x604"/>
      <component glyphName="uni0308.case" x="155" y="0" flags="0x4"/>
    </TTGlyph>
    <TTGlyph name="Ograve" xMin="43" yMin="-10" xMax="768" yMax="943">
      <component glyphName="O" x="0" y="0" flags="0x604"/>
      <component glyphName="gravecomb.case" x="159" y="0" flags="0x4"/>
    </TTGlyph>
    <TTGlyph name="Ohorn" xMin="43" yMin="-10" xMax="768" yMax="825">
      <contour>
        <pt x="406" y="-10" on="1" overlap="1"/>
        <pt x="327" y="-10" on="0"/>
        <pt x="195" y="44" on="0"/>
        <pt x="97" y="142" on="0"/>
        <pt x="43" y="274" on="0"/>
        <pt x="43" y="353" on="1"/>
        <pt x="43" y="432" on="0"/>
        <pt x="97" y="564" on="0"/>
        <pt x="195" y="662" on="0"/>
        <pt x="327" y="716" on="0"/>
        <pt x="406" y="716" on="1"/>
        <pt x="427" y="716" on="0"/>
        <pt x="472" y="710" on="0"/>
        <pt x="493" y="706" on="1"/>
        <pt x="509" y="702" on="0"/>
        <pt x="540" y="696" on="0"/>
        <pt x="557" y="696" on="1"/>
        <pt x="585" y="696" on="0"/>
        <pt x="622" y="725" on="0"/>
        <pt x="641" y="782" on="0"/>
        <pt x="641" y="825" on="1"/>
        <pt x="768" y="825" on="1"/>
        <pt x="768" y="785" on="0"/>
        <pt x="753" y="711" on="0"/>
        <pt x="719" y="653" on="0"/>
        <pt x="659" y="618" on="0"/>
        <pt x="613" y="616" on="1"/>
        <pt x="637" y="638" on="1"/>
        <pt x="678" y="606" on="0"/>
        <pt x="737" y="519" on="0"/>
        <pt x="768" y="413" on="0"/>
        <pt x="768" y="353" on="1"/>
        <pt x="768" y="275" on="0"/>
        <pt x="715" y="142" on="0"/>
        <pt x="617" y="44" on="0"/>
        <pt x="485" y="-10" on="0"/>
      </contour>
      <contour>
        <pt x="406" y="150" on="1"/>
        <pt x="447" y="150" on="0"/>
        <pt x="516" y="180" on="0"/>
        <pt x="567" y="235" on="0"/>
        <pt x="595" y="309" on="0"/>
        <pt x="595" y="353" on="1"/>
        <pt x="595" y="397" on="0"/>
        <pt x="567" y="471" on="0"/>
        <pt x="516" y="526" on="0"/>
        <pt x="447" y="556" on="0"/>
        <pt x="406" y="556" on="1"/>
        <pt x="365" y="556" on="0"/>
        <pt x="296" y="526" on="0"/>
        <pt x="244" y="471" on="0"/>
        <pt x="217" y="397" on="0"/>
        <pt x="217" y="353" on="1"/>
        <pt x="217" y="309" on="0"/>
        <pt x="244" y="234" on="0"/>
        <pt x="296" y="180" on="0"/>
        <pt x="365" y="150" on="0"/>
      </contour>
    </TTGlyph>
    <TTGlyph name="Ohungarumlaut" xMin="43" yMin="-10" xMax="768" yMax="966">
      <component glyphName="O" x="0" y="0" flags="0x604"/>
      <component glyphName="uni030B.case" x="212" y="0" flags="0x4"/>
    </TTGlyph>
    <TTGlyph name="Omacron" xMin="43" yMin="-10" xMax="768" yMax="890">
      <component glyphName="O" x="0" y="0" flags="0x604"/>
      <component glyphName="uni0304.case" x="155" y="0" flags="0x4"/>
    </TTGlyph>
    <TTGlyph name="Oslash" xMin="43" yMin="-33" xMax="768" yMax="741">
      <contour>
        <pt x="139" y="-33" on="1" overlap="1"/>
        <pt x="76" y="20" on="1"/>
        <pt x="665" y="741" on="1"/>
        <pt x="733" y="694" on="1"/>
      </contour>
      <contour>
        <pt x="406" y="-10" on="1"/>
        <pt x="327" y="-10" on="0"/>
        <pt x="194" y="44" on="0"/>
        <pt x="96" y="142" on="0"/>
        <pt x="43" y="274" on="0"/>
        <pt x="43" y="353" on="1"/>
        <pt x="43" y="432" on="0"/>
        <pt x="96" y="564" on="0"/>
        <pt x="194" y="662" on="0"/>
        <pt x="327" y="716" on="0"/>
        <pt x="406" y="716" on="1"/>
        <pt x="485" y="716" on="0"/>
        <pt x="617" y="662" on="0"/>
        <pt x="715" y="564" on="0"/>
        <pt x="768" y="432" on="0"/>
        <pt x="768" y="353" on="1"/>
        <pt x="768" y="275" on="0"/>
        <pt x="715" y="142" on="0"/>
        <pt x="617" y="44" on="0"/>
        <pt x="485" y="-10" on="0"/>
      </contour>
      <contour>
        <pt x="406" y="150" on="1"/>
        <pt x="447" y="150" on="0"/>
        <pt x="516" y="180" on="0"/>
        <pt x="567" y="235" on="0"/>
        <pt x="595" y="309" on="0"/>
        <pt x="595" y="353" on="1"/>
        <pt x="595" y="397" on="0"/>
        <pt x="567" y="471" on="0"/>
        <pt x="516" y="526" on="0"/>
        <pt x="447" y="556" on="0"/>
        <pt x="406" y="556" on="1"/>
        <pt x="364" y="556" on="0"/>
        <pt x="295" y="526" on="0"/>
        <pt x="244" y="471" on="0"/>
        <pt x="216" y="397" on="0"/>
        <pt x="216" y="353" on="1"/>
        <pt x="216" y="309" on="0"/>
        <pt x="244" y="234" on="0"/>
        <pt x="295" y="180" on="0"/>
        <pt x="364" y="150" on="0"/>
      </contour>
    </TTGlyph>
    <TTGlyph name="Oslashacute" xMin="43" yMin="-33" xMax="768" yMax="943">
      <component glyphName="Oslash" x="0" y="0" flags="0x604"/>
      <component glyphName="acutecomb.case" x="160" y="0" flags="0x4"/>
    </TTGlyph>
    <TTGlyph name="Otilde" xMin="43" yMin="-10" xMax="768" yMax="910">
      <component glyphName="O" x="0" y="0" flags="0x604"/>
      <component glyphName="tildecomb.case" x="155" y="0" flags="0x4"/>
    </TTGlyph>
    <TTGlyph name="P" xMin="88" yMin="0" xMax="620" yMax="700">
      <contour>
        <pt x="88" y="0" on="1" overlap="1"/>
        <pt x="88" y="700" on="1"/>
        <pt x="390" y="700" on="1"/>
        <pt x="456" y="700" on="0"/>
        <pt x="559" y="640" on="0"/>
        <pt x="620" y="536" on="0"/>
        <pt x="620" y="471" on="1"/>
        <pt x="620" y="403" on="0"/>
        <pt x="559" y="296" on="0"/>
        <pt x="456" y="234" on="0"/>
        <pt x="390" y="234" on="1"/>
        <pt x="258" y="234" on="1"/>
        <pt x="258" y="0" on="1"/>
      </contour>
      <contour>
        <pt x="255" y="383" on="1"/>
        <pt x="366" y="383" on="1"/>
        <pt x="388" y="383" on="0"/>
        <pt x="424" y="405" on="0"/>
        <pt x="446" y="443" on="0"/>
        <pt x="446" y="468" on="1"/>
        <pt x="446" y="494" on="0"/>
        <pt x="424" y="530" on="0"/>
        <pt x="388" y="550" on="0"/>
        <pt x="366" y="550" on="1"/>
        <pt x="255" y="550" on="1"/>
      </contour>
    </TTGlyph>
    <TTGlyph name="Q" xMin="43" yMin="-110" xMax="768" yMax="716">
      <contour>
        <pt x="615" y="-110" on="1" overlap="1"/>
        <pt x="347" y="253" on="1"/>
        <pt x="472" y="340" on="1"/>
        <pt x="737" y="-20" on="1"/>
      </contour>
      <contour>
        <pt x="406" y="-10" on="1"/>
        <pt x="327" y="-10" on="0"/>
        <pt x="195" y="44" on="0"/>
        <pt x="97" y="142" on="0"/>
        <pt x="43" y="274" on="0"/>
        <pt x="43" y="353" on="1"/>
        <pt x="43" y="432" on="0"/>
        <pt x="97" y="564" on="0"/>
        <pt x="195" y="662" on="0"/>
        <pt x="327" y="716" on="0"/>
        <pt x="406" y="716" on="1"/>
        <pt x="485" y="716" on="0"/>
        <pt x="617" y="662" on="0"/>
        <pt x="715" y="564" on="0"/>
        <pt x="768" y="432" on="0"/>
        <pt x="768" y="353" on="1"/>
        <pt x="768" y="275" on="0"/>
        <pt x="715" y="142" on="0"/>
        <pt x="617" y="44" on="0"/>
        <pt x="485" y="-10" on="0"/>
      </contour>
      <contour>
        <pt x="406" y="150" on="1"/>
        <pt x="447" y="150" on="0"/>
        <pt x="516" y="180" on="0"/>
        <pt x="567" y="235" on="0"/>
        <pt x="595" y="309" on="0"/>
        <pt x="595" y="353" on="1"/>
        <pt x="595" y="397" on="0"/>
        <pt x="567" y="471" on="0"/>
        <pt x="516" y="526" on="0"/>
        <pt x="447" y="556" on="0"/>
        <pt x="406" y="556" on="1"/>
        <pt x="365" y="556" on="0"/>
        <pt x="296" y="526" on="0"/>
        <pt x="244" y="471" on="0"/>
        <pt x="217" y="397" on="0"/>
        <pt x="217" y="353" on="1"/>
        <pt x="217" y="309" on="0"/>
        <pt x="244" y="234" on="0"/>
        <pt x="296" y="180" on="0"/>
        <pt x="365" y="150" on="0"/>
      </contour>
    </TTGlyph>
    <TTGlyph name="R" xMin="88" yMin="0" xMax="670" yMax="700">
      <contour>
        <pt x="88" y="0" on="1" overlap="1"/>
        <pt x="88" y="700" on="1"/>
        <pt x="403" y="700" on="1"/>
        <pt x="470" y="700" on="0"/>
        <pt x="579" y="642" on="0"/>
        <pt x="641" y="541" on="0"/>
        <pt x="641" y="477" on="1"/>
        <pt x="641" y="411" on="0"/>
        <pt x="579" y="306" on="0"/>
        <pt x="471" y="246" on="0"/>
        <pt x="403" y="246" on="1"/>
        <pt x="250" y="246" on="1"/>
        <pt x="250" y="0" on="1"/>
      </contour>
      <contour>
        <pt x="476" y="0" on="1"/>
        <pt x="298" y="316" on="1"/>
        <pt x="472" y="341" on="1"/>
        <pt x="670" y="0" on="1"/>
      </contour>
      <contour>
        <pt x="250" y="376" on="1"/>
        <pt x="388" y="376" on="1"/>
        <pt x="414" y="376" on="0"/>
        <pt x="453" y="399" on="0"/>
        <pt x="474" y="441" on="0"/>
        <pt x="474" y="468" on="1"/>
        <pt x="474" y="495" on="0"/>
        <pt x="450" y="536" on="0"/>
        <pt x="405" y="558" on="0"/>
        <pt x="373" y="558" on="1"/>
        <pt x="250" y="558" on="1"/>
      </contour>
    </TTGlyph>
    <TTGlyph name="Racute" xMin="88" yMin="0" xMax="670" yMax="943">
      <component glyphName="R" x="0" y="0" flags="0x604"/>
      <component glyphName="acutecomb.case" x="89" y="0" flags="0x4"/>
    </TTGlyph>
    <TTGlyph name="Rcaron" xMin="88" yMin="0" xMax="670" yMax="918">
      <component glyphName="R" x="0" y="0" flags="0x604"/>
      <component glyphName="uni030C.case" x="83" y="0" flags="0x4"/>
    </TTGlyph>
    <TTGlyph name="S" xMin="20" yMin="-10" xMax="594" yMax="716">
      <contour>
        <pt x="320" y="-10" on="1" overlap="1"/>
        <pt x="251" y="-10" on="0"/>
        <pt x="140" y="23" on="0"/>
        <pt x="54" y="86" on="0"/>
        <pt x="20" y="129" on="1"/>
        <pt x="123" y="246" on="1"/>
        <pt x="173" y="179" on="0"/>
        <pt x="274" y="133" on="0"/>
        <pt x="328" y="133" on="1"/>
        <pt x="355" y="133" on="0"/>
        <pt x="399" y="147" on="0"/>
        <pt x="423" y="174" on="0"/>
        <pt x="423" y="194" on="1"/>
        <pt x="423" y="209" on="0"/>
        <pt x="408" y="233" on="0"/>
        <pt x="382" y="251" on="0"/>
        <pt x="346" y="266" on="0"/>
        <pt x="306" y="277" on="0"/>
        <pt x="285" y="281" on="1"/>
        <pt x="227" y="294" on="0"/>
        <pt x="141" y="332" on="0"/>
        <pt x="84" y="387" on="0"/>
        <pt x="56" y="458" on="0"/>
        <pt x="56" y="502" on="1"/>
        <pt x="56" y="549" on="0"/>
        <pt x="99" y="628" on="0"/>
        <pt x="172" y="685" on="0"/>
        <pt x="268" y="716" on="0"/>
        <pt x="320" y="716" on="1"/>
        <pt x="389" y="716" on="0"/>
        <pt x="488" y="687" on="0"/>
        <pt x="559" y="633" on="0"/>
        <pt x="584" y="595" on="1"/>
        <pt x="479" y="494" on="1"/>
        <pt x="458" y="520" on="0"/>
        <pt x="409" y="554" on="0"/>
        <pt x="354" y="572" on="0"/>
        <pt x="325" y="572" on="1"/>
        <pt x="295" y="572" on="0"/>
        <pt x="252" y="557" on="0"/>
        <pt x="228" y="530" on="0"/>
        <pt x="228" y="511" on="1"/>
        <pt x="228" y="494" on="0"/>
        <pt x="248" y="470" on="0"/>
        <pt x="282" y="451" on="0"/>
        <pt x="326" y="438" on="0"/>
        <pt x="350" y="434" on="1"/>
        <pt x="405" y="423" on="0"/>
        <pt x="494" y="387" on="0"/>
        <pt x="559" y="335" on="0"/>
        <pt x="594" y="264" on="0"/>
        <pt x="594" y="217" on="1"/>
        <pt x="594" y="144" on="0"/>
        <pt x="523" y="43" on="0"/>
        <pt x="400" y="-10" on="0"/>
      </contour>
    </TTGlyph>
    <TTGlyph name="Sacute" xMin="20" yMin="-10" xMax="594" yMax="943">
      <component glyphName="S" x="0" y="0" flags="0x604"/>
      <component glyphName="acutecomb.case" x="88" y="0" flags="0x4"/>
    </TTGlyph>
    <TTGlyph name="Scaron" xMin="20" yMin="-10" xMax="594" yMax="918">
      <component glyphName="S" x="0" y="0" flags="0x604"/>
      <component glyphName="uni030C.case" x="82" y="0" flags="0x4"/>
    </TTGlyph>
    <TTGlyph name="Scedilla" xMin="20" yMin="-247" xMax="594" yMax="716">
      <component glyphName="S" x="0" y="0" flags="0x604"/>
      <component glyphName="uni0327.case" x="87" y="0" flags="0x4"/>
    </TTGlyph>
    <TTGlyph name="Scircumflex" xMin="20" yMin="-10" xMax="594" yMax="917">
      <component glyphName="S" x="0" y="0" flags="0x604"/>
      <component glyphName="uni0302.case" x="81" y="0" flags="0x4"/>
    </TTGlyph>
    <TTGlyph name="T" xMin="32" yMin="0" xMax="623" yMax="700">
      <contour>
        <pt x="240" y="0" on="1" overlap="1"/>
        <pt x="240" y="550" on="1"/>
        <pt x="32" y="550" on="1"/>
        <pt x="32" y="700" on="1"/>
        <pt x="623" y="700" on="1"/>
        <pt x="623" y="550" on="1"/>
        <pt x="410" y="550" on="1"/>
        <pt x="410" y="0" on="1"/>
      </contour>
    </TTGlyph>
    <TTGlyph name="Tbar" xMin="32" yMin="0" xMax="623" yMax="700">
      <contour>
        <pt x="169" y="292" on="1" overlap="1"/>
        <pt x="169" y="411" on="1"/>
        <pt x="494" y="411" on="1"/>
        <pt x="494" y="292" on="1"/>
      </contour>
      <contour>
        <pt x="240" y="0" on="1"/>
        <pt x="240" y="550" on="1"/>
        <pt x="32" y="550" on="1"/>
        <pt x="32" y="700" on="1"/>
        <pt x="623" y="700" on="1"/>
        <pt x="623" y="550" on="1"/>
        <pt x="410" y="550" on="1"/>
        <pt x="410" y="0" on="1"/>
      </contour>
    </TTGlyph>
    <TTGlyph name="Tcaron" xMin="32" yMin="0" xMax="623" yMax="918">
      <component glyphName="T" x="0" y="0" flags="0x604"/>
      <component glyphName="uni030C.case" x="78" y="0" flags="0x4"/>
    </TTGlyph>
    <TTGlyph name="Thorn" xMin="88" yMin="0" xMax="620" yMax="700">
      <contour>
        <pt x="88" y="0" on="1" overlap="1"/>
        <pt x="88" y="700" on="1"/>
        <pt x="258" y="700" on="1"/>
        <pt x="258" y="589" on="1"/>
        <pt x="390" y="589" on="1"/>
        <pt x="456" y="589" on="0"/>
        <pt x="559" y="529" on="0"/>
        <pt x="620" y="425" on="0"/>
        <pt x="620" y="359" on="1"/>
        <pt x="620" y="292" on="0"/>
        <pt x="559" y="184" on="0"/>
        <pt x="456" y="122" on="0"/>
        <pt x="390" y="122" on="1"/>
        <pt x="258" y="122" on="1"/>
        <pt x="258" y="0" on="1"/>
      </contour>
      <contour>
        <pt x="258" y="272" on="1"/>
        <pt x="366" y="272" on="1"/>
        <pt x="388" y="272" on="0"/>
        <pt x="424" y="294" on="0"/>
        <pt x="446" y="332" on="0"/>
        <pt x="446" y="357" on="1"/>
        <pt x="446" y="382" on="0"/>
        <pt x="424" y="418" on="0"/>
        <pt x="388" y="439" on="0"/>
        <pt x="366" y="439" on="1"/>
        <pt x="258" y="439" on="1"/>
      </contour>
    </TTGlyph>
    <TTGlyph name="U" xMin="83" yMin="-6" xMax="682" yMax="700">
      <contour>
        <pt x="383" y="-6" on="1" overlap="1"/>
        <pt x="296" y="-6" on="0"/>
        <pt x="160" y="65" on="0"/>
        <pt x="83" y="189" on="0"/>
        <pt x="83" y="269" on="1"/>
        <pt x="83" y="700" on="1"/>
        <pt x="255" y="700" on="1"/>
        <pt x="255" y="278" on="1"/>
        <pt x="255" y="240" on="0"/>
        <pt x="289" y="179" on="0"/>
        <pt x="347" y="144" on="0"/>
        <pt x="383" y="144" on="1"/>
        <pt x="421" y="144" on="0"/>
        <pt x="480" y="179" on="0"/>
        <pt x="516" y="240" on="0"/>
        <pt x="516" y="278" on="1"/>
        <pt x="516" y="700" on="1"/>
        <pt x="682" y="700" on="1"/>
        <pt x="682" y="269" on="1"/>
        <pt x="682" y="189" on="0"/>
        <pt x="605" y="65" on="0"/>
        <pt x="469" y="-6" on="0"/>
      </contour>
    </TTGlyph>
    <TTGlyph name="Uacute" xMin="83" yMin="-6" xMax="682" yMax="943">
      <component glyphName="U" x="0" y="0" flags="0x604"/>
      <component glyphName="acutecomb.case" x="139" y="0" flags="0x4"/>
    </TTGlyph>
    <TTGlyph name="Ubreve" xMin="83" yMin="-6" xMax="682" yMax="921">
      <component glyphName="U" x="0" y="0" flags="0x604"/>
      <component glyphName="uni0306.case" x="133" y="0" flags="0x4"/>
    </TTGlyph>
    <TTGlyph name="Ucircumflex" xMin="83" yMin="-6" xMax="682" yMax="917">
      <component glyphName="U" x="0" y="0" flags="0x604"/>
      <component glyphName="uni0302.case" x="132" y="0" flags="0x4"/>
    </TTGlyph>
    <TTGlyph name="Udieresis" xMin="83" yMin="-6" xMax="682" yMax="924">
      <component glyphName="U" x="0" y="0" flags="0x604"/>
      <component glyphName="uni0308.case" x="132" y="0" flags="0x4"/>
    </TTGlyph>
    <TTGlyph name="Ugrave" xMin="83" yMin="-6" xMax="682" yMax="943">
      <component glyphName="U" x="0" y="0" flags="0x604"/>
      <component glyphName="gravecomb.case" x="136" y="0" flags="0x4"/>
    </TTGlyph>
    <TTGlyph name="Uhorn" xMin="83" yMin="-6" xMax="791" yMax="825">
      <contour>
        <pt x="383" y="-6" on="1" overlap="1"/>
        <pt x="296" y="-6" on="0"/>
        <pt x="160" y="65" on="0"/>
        <pt x="83" y="189" on="0"/>
        <pt x="83" y="269" on="1"/>
        <pt x="83" y="700" on="1"/>
        <pt x="255" y="700" on="1"/>
        <pt x="255" y="278" on="1"/>
        <pt x="255" y="240" on="0"/>
        <pt x="289" y="179" on="0"/>
        <pt x="347" y="144" on="0"/>
        <pt x="383" y="144" on="1"/>
        <pt x="421" y="144" on="0"/>
        <pt x="480" y="179" on="0"/>
        <pt x="516" y="240" on="0"/>
        <pt x="516" y="278" on="1"/>
        <pt x="516" y="700" on="1"/>
        <pt x="577" y="700" on="1"/>
        <pt x="623" y="700" on="0"/>
        <pt x="665" y="765" on="0"/>
        <pt x="665" y="825" on="1"/>
        <pt x="791" y="825" on="1"/>
        <pt x="791" y="772" on="0"/>
        <pt x="758" y="682" on="0"/>
        <pt x="689" y="624" on="0"/>
        <pt x="635" y="618" on="1"/>
        <pt x="682" y="665" on="1"/>
        <pt x="682" y="269" on="1"/>
        <pt x="682" y="189" on="0"/>
        <pt x="605" y="65" on="0"/>
        <pt x="469" y="-6" on="0"/>
      </contour>
    </TTGlyph>
    <TTGlyph name="Uhungarumlaut" xMin="83" yMin="-6" xMax="682" yMax="966">
      <component glyphName="U" x="0" y="0" flags="0x604"/>
      <component glyphName="uni030B.case" x="188" y="0" flags="0x4"/>
    </TTGlyph>
    <TTGlyph name="Umacron" xMin="83" yMin="-6" xMax="682" yMax="890">
      <component glyphName="U" x="0" y="0" flags="0x604"/>
      <component glyphName="uni0304.case" x="132" y="0" flags="0x4"/>
    </TTGlyph>
    <TTGlyph name="Uogonek" xMin="83" yMin="-211" xMax="682" yMax="700">
      <contour>
        <pt x="458" y="-211" on="1" overlap="1"/>
        <pt x="408" y="-211" on="0"/>
        <pt x="341" y="-150" on="0"/>
        <pt x="341" y="-100" on="1"/>
        <pt x="341" y="-68" on="0"/>
        <pt x="370" y="-12" on="0"/>
        <pt x="423" y="35" on="0"/>
        <pt x="493" y="76" on="0"/>
        <pt x="533" y="96" on="1"/>
        <pt x="568" y="49" on="1"/>
        <pt x="544" y="35" on="0"/>
        <pt x="503" y="6" on="0"/>
        <pt x="471" y="-24" on="0"/>
        <pt x="452" y="-56" on="0"/>
        <pt x="452" y="-74" on="1"/>
        <pt x="452" y="-89" on="0"/>
        <pt x="468" y="-108" on="0"/>
        <pt x="480" y="-108" on="1"/>
        <pt x="491" y="-108" on="0"/>
        <pt x="506" y="-96" on="0"/>
        <pt x="513" y="-84" on="1"/>
        <pt x="583" y="-135" on="1"/>
        <pt x="568" y="-165" on="0"/>
        <pt x="502" y="-211" on="0"/>
      </contour>
      <contour>
        <pt x="383" y="-6" on="1"/>
        <pt x="296" y="-6" on="0"/>
        <pt x="160" y="65" on="0"/>
        <pt x="83" y="189" on="0"/>
        <pt x="83" y="269" on="1"/>
        <pt x="83" y="700" on="1"/>
        <pt x="255" y="700" on="1"/>
        <pt x="255" y="278" on="1"/>
        <pt x="255" y="240" on="0"/>
        <pt x="289" y="179" on="0"/>
        <pt x="347" y="144" on="0"/>
        <pt x="383" y="144" on="1"/>
        <pt x="421" y="144" on="0"/>
        <pt x="480" y="179" on="0"/>
        <pt x="516" y="240" on="0"/>
        <pt x="516" y="278" on="1"/>
        <pt x="516" y="700" on="1"/>
        <pt x="682" y="700" on="1"/>
        <pt x="682" y="269" on="1"/>
        <pt x="682" y="189" on="0"/>
        <pt x="605" y="65" on="0"/>
        <pt x="469" y="-6" on="0"/>
      </contour>
    </TTGlyph>
    <TTGlyph name="Uring" xMin="83" yMin="-6" xMax="682" yMax="924">
      <component glyphName="U" x="0" y="0" flags="0x604"/>
      <component glyphName="uni030A.case" x="132" y="0" flags="0x4"/>
    </TTGlyph>
    <TTGlyph name="Utilde" xMin="83" yMin="-6" xMax="682" yMax="910">
      <component glyphName="U" x="0" y="0" flags="0x604"/>
      <component glyphName="tildecomb.case" x="132" y="0" flags="0x4"/>
    </TTGlyph>
    <TTGlyph name="V" xMin="4" yMin="0" xMax="708" yMax="700">
      <contour>
        <pt x="284" y="0" on="1" overlap="1"/>
        <pt x="4" y="700" on="1"/>
        <pt x="181" y="700" on="1"/>
        <pt x="316" y="343" on="1"/>
        <pt x="328" y="312" on="0"/>
        <pt x="345" y="266" on="0"/>
        <pt x="358" y="226" on="0"/>
        <pt x="369" y="185" on="0"/>
        <pt x="376" y="159" on="1"/>
        <pt x="345" y="159" on="1"/>
        <pt x="353" y="193" on="0"/>
        <pt x="369" y="246" on="0"/>
        <pt x="389" y="303" on="0"/>
        <pt x="404" y="343" on="1"/>
        <pt x="534" y="700" on="1"/>
        <pt x="708" y="700" on="1"/>
        <pt x="426" y="0" on="1"/>
      </contour>
    </TTGlyph>
    <TTGlyph name="W" xMin="4" yMin="0" xMax="988" yMax="700">
      <contour>
        <pt x="214" y="0" on="1" overlap="1"/>
        <pt x="4" y="700" on="1"/>
        <pt x="177" y="700" on="1"/>
        <pt x="282" y="332" on="1"/>
        <pt x="289" y="307" on="0"/>
        <pt x="300" y="256" on="0"/>
        <pt x="307" y="210" on="0"/>
        <pt x="311" y="171" on="0"/>
        <pt x="313" y="158" on="1"/>
        <pt x="291" y="158" on="1"/>
        <pt x="297" y="195" on="0"/>
        <pt x="306" y="253" on="0"/>
        <pt x="318" y="304" on="0"/>
        <pt x="327" y="332" on="1"/>
        <pt x="431" y="609" on="1"/>
        <pt x="567" y="609" on="1"/>
        <pt x="669" y="332" on="1"/>
        <pt x="681" y="299" on="0"/>
        <pt x="697" y="241" on="0"/>
        <pt x="706" y="188" on="0"/>
        <pt x="709" y="162" on="1"/>
        <pt x="689" y="159" on="1"/>
        <pt x="691" y="177" on="0"/>
        <pt x="693" y="208" on="0"/>
        <pt x="696" y="237" on="0"/>
        <pt x="700" y="269" on="0"/>
        <pt x="708" y="308" on="0"/>
        <pt x="715" y="333" on="1"/>
        <pt x="819" y="700" on="1"/>
        <pt x="988" y="700" on="1"/>
        <pt x="778" y="0" on="1"/>
        <pt x="648" y="0" on="1"/>
        <pt x="482" y="403" on="1"/>
        <pt x="501" y="401" on="1"/>
        <pt x="348" y="0" on="1"/>
      </contour>
    </TTGlyph>
    <TTGlyph name="Wacute" xMin="4" yMin="0" xMax="988" yMax="943">
      <component glyphName="W" x="0" y="0" flags="0x604"/>
      <component glyphName="acutecomb.case" x="253" y="0" flags="0x4"/>
    </TTGlyph>
    <TTGlyph name="Wcircumflex" xMin="4" yMin="0" xMax="988" yMax="917">
      <component glyphName="W" x="0" y="0" flags="0x604"/>
      <component glyphName="uni0302.case" x="246" y="0" flags="0x4"/>
    </TTGlyph>
    <TTGlyph name="Wdieresis" xMin="4" yMin="0" xMax="988" yMax="924">
      <component glyphName="W" x="0" y="0" flags="0x604"/>
      <component glyphName="uni0308.case" x="246" y="0" flags="0x4"/>
    </TTGlyph>
    <TTGlyph name="Wgrave" xMin="4" yMin="0" xMax="988" yMax="943">
      <component glyphName="W" x="0" y="0" flags="0x604"/>
      <component glyphName="gravecomb.case" x="249" y="0" flags="0x4"/>
    </TTGlyph>
    <TTGlyph name="X" xMin="-1" yMin="0" xMax="706" yMax="700">
      <contour>
        <pt x="499" y="0" on="1" overlap="1"/>
        <pt x="282" y="314" on="1"/>
        <pt x="4" y="700" on="1"/>
        <pt x="211" y="700" on="1"/>
        <pt x="423" y="390" on="1"/>
        <pt x="706" y="0" on="1"/>
      </contour>
      <contour>
        <pt x="-1" y="0" on="1"/>
        <pt x="266" y="381" on="1"/>
        <pt x="403" y="302" on="1"/>
        <pt x="196" y="0" on="1"/>
      </contour>
      <contour>
        <pt x="439" y="325" on="1"/>
        <pt x="303" y="401" on="1"/>
        <pt x="499" y="700" on="1"/>
        <pt x="696" y="700" on="1"/>
      </contour>
    </TTGlyph>
    <TTGlyph name="Y" xMin="-7" yMin="0" xMax="696" yMax="700">
      <contour>
        <pt x="269" y="0" on="1" overlap="1"/>
        <pt x="269" y="349" on="1"/>
        <pt x="276" y="300" on="1"/>
        <pt x="-7" y="700" on="1"/>
        <pt x="186" y="700" on="1"/>
        <pt x="402" y="390" on="1"/>
        <pt x="314" y="393" on="1"/>
        <pt x="509" y="700" on="1"/>
        <pt x="696" y="700" on="1"/>
        <pt x="425" y="289" on="1"/>
        <pt x="440" y="357" on="1"/>
        <pt x="440" y="0" on="1"/>
      </contour>
    </TTGlyph>
    <TTGlyph name="Yacute" xMin="-7" yMin="0" xMax="696" yMax="943">
      <component glyphName="Y" x="0" y="0" flags="0x604"/>
      <component glyphName="acutecomb.case" x="101" y="0" flags="0x4"/>
    </TTGlyph>
    <TTGlyph name="Ycircumflex" xMin="-7" yMin="0" xMax="696" yMax="917">
      <component glyphName="Y" x="0" y="0" flags="0x604"/>
      <component glyphName="uni0302.case" x="94" y="0" flags="0x4"/>
    </TTGlyph>
    <TTGlyph name="Ydieresis" xMin="-7" yMin="0" xMax="696" yMax="924">
      <component glyphName="Y" x="0" y="0" flags="0x604"/>
      <component glyphName="uni0308.case" x="94" y="0" flags="0x4"/>
    </TTGlyph>
    <TTGlyph name="Ygrave" xMin="-7" yMin="0" xMax="696" yMax="943">
      <component glyphName="Y" x="0" y="0" flags="0x604"/>
      <component glyphName="gravecomb.case" x="98" y="0" flags="0x4"/>
    </TTGlyph>
    <TTGlyph name="Z" xMin="60" yMin="0" xMax="625" yMax="700">
      <contour>
        <pt x="60" y="0" on="1" overlap="1"/>
        <pt x="60" y="113" on="1"/>
        <pt x="436" y="613" on="1"/>
        <pt x="495" y="544" on="1"/>
        <pt x="86" y="544" on="1"/>
        <pt x="86" y="700" on="1"/>
        <pt x="614" y="700" on="1"/>
        <pt x="614" y="588" on="1"/>
        <pt x="240" y="87" on="1"/>
        <pt x="180" y="149" on="1"/>
        <pt x="625" y="149" on="1"/>
        <pt x="625" y="0" on="1"/>
      </contour>
    </TTGlyph>
    <TTGlyph name="Zacute" xMin="60" yMin="0" xMax="625" yMax="943">
      <component glyphName="Z" x="0" y="0" flags="0x604"/>
      <component glyphName="acutecomb.case" x="99" y="0" flags="0x4"/>
    </TTGlyph>
    <TTGlyph name="Zcaron" xMin="60" yMin="0" xMax="625" yMax="918">
      <component glyphName="Z" x="0" y="0" flags="0x604"/>
      <component glyphName="uni030C.case" x="92" y="0" flags="0x4"/>
    </TTGlyph>
    <TTGlyph name="Zdotaccent" xMin="60" yMin="0" xMax="625" yMax="922">
      <component glyphName="Z" x="0" y="0" flags="0x604"/>
      <component glyphName="uni0307.case" x="92" y="0" flags="0x4"/>
    </TTGlyph>
    <TTGlyph name="a" xMin="33" yMin="-9" xMax="589" yMax="542">
      <contour>
        <pt x="267" y="-9" on="1" overlap="1"/>
        <pt x="200" y="-9" on="0"/>
        <pt x="95" y="62" on="0"/>
        <pt x="33" y="187" on="0"/>
        <pt x="33" y="266" on="1"/>
        <pt x="33" y="347" on="0"/>
        <pt x="95" y="471" on="0"/>
        <pt x="203" y="542" on="0"/>
        <pt x="272" y="542" on="1"/>
        <pt x="310" y="542" on="0"/>
        <pt x="373" y="520" on="0"/>
        <pt x="421" y="481" on="0"/>
        <pt x="455" y="430" on="0"/>
        <pt x="463" y="401" on="1"/>
        <pt x="430" y="405" on="1"/>
        <pt x="430" y="531" on="1"/>
        <pt x="589" y="531" on="1"/>
        <pt x="589" y="0" on="1"/>
        <pt x="427" y="0" on="1"/>
        <pt x="427" y="128" on="1"/>
        <pt x="463" y="129" on="1"/>
        <pt x="455" y="101" on="0"/>
        <pt x="419" y="51" on="0"/>
        <pt x="367" y="13" on="0"/>
        <pt x="303" y="-9" on="0"/>
      </contour>
      <contour>
        <pt x="311" y="126" on="1"/>
        <pt x="348" y="126" on="0"/>
        <pt x="402" y="160" on="0"/>
        <pt x="432" y="223" on="0"/>
        <pt x="432" y="266" on="1"/>
        <pt x="432" y="309" on="0"/>
        <pt x="402" y="372" on="0"/>
        <pt x="348" y="407" on="0"/>
        <pt x="311" y="407" on="1"/>
        <pt x="275" y="407" on="0"/>
        <pt x="222" y="372" on="0"/>
        <pt x="192" y="309" on="0"/>
        <pt x="192" y="266" on="1"/>
        <pt x="192" y="223" on="0"/>
        <pt x="222" y="160" on="0"/>
        <pt x="275" y="126" on="0"/>
      </contour>
    </TTGlyph>
    <TTGlyph name="a.ss01" xMin="38" yMin="-10" xMax="510" yMax="542">
      <contour>
        <pt x="355" y="0" on="1" overlap="1"/>
        <pt x="355" y="326" on="1"/>
        <pt x="355" y="368" on="0"/>
        <pt x="310" y="407" on="0"/>
        <pt x="268" y="407" on="1"/>
        <pt x="230" y="407" on="0"/>
        <pt x="168" y="378" on="0"/>
        <pt x="139" y="344" on="1"/>
        <pt x="45" y="438" on="1"/>
        <pt x="93" y="485" on="0"/>
        <pt x="216" y="542" on="0"/>
        <pt x="291" y="542" on="1"/>
        <pt x="357" y="542" on="0"/>
        <pt x="456" y="502" on="0"/>
        <pt x="510" y="420" on="0"/>
        <pt x="510" y="357" on="1"/>
        <pt x="510" y="0" on="1"/>
      </contour>
      <contour>
        <pt x="216" y="-10" on="1"/>
        <pt x="165" y="-10" on="0"/>
        <pt x="85" y="30" on="0"/>
        <pt x="38" y="101" on="0"/>
        <pt x="38" y="149" on="1"/>
        <pt x="38" y="189" on="0"/>
        <pt x="68" y="251" on="0"/>
        <pt x="127" y="292" on="0"/>
        <pt x="216" y="313" on="0"/>
        <pt x="274" y="313" on="1"/>
        <pt x="437" y="313" on="1"/>
        <pt x="428" y="214" on="1"/>
        <pt x="278" y="214" on="1"/>
        <pt x="258" y="214" on="0"/>
        <pt x="226" y="206" on="0"/>
        <pt x="203" y="192" on="0"/>
        <pt x="192" y="171" on="0"/>
        <pt x="192" y="157" on="1"/>
        <pt x="192" y="142" on="0"/>
        <pt x="208" y="120" on="0"/>
        <pt x="236" y="107" on="0"/>
        <pt x="254" y="107" on="1"/>
        <pt x="280" y="107" on="0"/>
        <pt x="328" y="124" on="0"/>
        <pt x="365" y="156" on="0"/>
        <pt x="376" y="177" on="1"/>
        <pt x="404" y="107" on="1"/>
        <pt x="383" y="73" on="0"/>
        <pt x="323" y="20" on="0"/>
        <pt x="254" y="-10" on="0"/>
      </contour>
    </TTGlyph>
    <TTGlyph name="aacute" xMin="33" yMin="-9" xMax="589" yMax="804">
      <component glyphName="a" x="0" y="0" flags="0x604"/>
      <component glyphName="acutecomb" x="80" y="6" flags="0x4"/>
    </TTGlyph>
    <TTGlyph name="aacute.ss01" xMin="38" yMin="-10" xMax="510" yMax="804">
      <component glyphName="a.ss01" x="0" y="0" flags="0x604"/>
      <component glyphName="acutecomb" x="34" y="6" flags="0x4"/>
    </TTGlyph>
    <TTGlyph name="abreve" xMin="33" yMin="-9" xMax="589" yMax="773">
      <component glyphName="a" x="0" y="0" flags="0x604"/>
      <component glyphName="uni0306" x="80" y="6" flags="0x4"/>
    </TTGlyph>
    <TTGlyph name="abreve.ss01" xMin="38" yMin="-10" xMax="510" yMax="773">
      <component glyphName="a.ss01" x="0" y="0" flags="0x604"/>
      <component glyphName="uni0306" x="34" y="6" flags="0x4"/>
    </TTGlyph>
    <TTGlyph name="acircumflex" xMin="33" yMin="-9" xMax="589" yMax="780">
      <component glyphName="a" x="0" y="0" flags="0x604"/>
      <component glyphName="uni0302" x="80" y="6" flags="0x4"/>
    </TTGlyph>
    <TTGlyph name="acircumflex.ss01" xMin="38" yMin="-10" xMax="510" yMax="780">
      <component glyphName="a.ss01" x="0" y="0" flags="0x604"/>
      <component glyphName="uni0302" x="34" y="6" flags="0x4"/>
    </TTGlyph>
    <TTGlyph name="acute" xMin="124" yMin="583" xMax="376" yMax="798">
      <component glyphName="acutecomb" x="0" y="0" flags="0x404"/>
    </TTGlyph>
    <TTGlyph name="acutecomb" xMin="124" yMin="583" xMax="376" yMax="798">
      <contour>
        <pt x="171" y="583" on="1" overlap="1"/>
        <pt x="124" y="656" on="1"/>
        <pt x="303" y="798" on="1"/>
        <pt x="376" y="693" on="1"/>
      </contour>
    </TTGlyph>
    <TTGlyph name="acutecomb.case" xMin="118" yMin="748" xMax="382" yMax="943">
      <contour>
        <pt x="155" y="748" on="1" overlap="1"/>
        <pt x="118" y="828" on="1"/>
        <pt x="327" y="943" on="1"/>
        <pt x="382" y="826" on="1"/>
      </contour>
    </TTGlyph>
    <TTGlyph name="adieresis" xMin="33" yMin="-9" xMax="589" yMax="802">
      <component glyphName="a" x="0" y="0" flags="0x604"/>
      <component glyphName="uni0308" x="80" y="6" flags="0x4"/>
    </TTGlyph>
    <TTGlyph name="adieresis.ss01" xMin="38" yMin="-10" xMax="510" yMax="802">
      <component glyphName="a.ss01" x="0" y="0" flags="0x604"/>
      <component glyphName="uni0308" x="33" y="6" flags="0x4"/>
    </TTGlyph>
    <TTGlyph name="ae" xMin="33" yMin="-10" xMax="870" yMax="542">
      <contour>
        <pt x="214" y="-10" on="1" overlap="1"/>
        <pt x="163" y="-10" on="0"/>
        <pt x="81" y="30" on="0"/>
        <pt x="33" y="101" on="0"/>
        <pt x="33" y="149" on="1"/>
        <pt x="33" y="189" on="0"/>
        <pt x="64" y="251" on="0"/>
        <pt x="124" y="293" on="0"/>
        <pt x="213" y="313" on="0"/>
        <pt x="272" y="313" on="1"/>
        <pt x="730" y="313" on="1"/>
        <pt x="721" y="301" on="1"/>
        <pt x="721" y="322" on="1"/>
        <pt x="719" y="347" on="0"/>
        <pt x="693" y="386" on="0"/>
        <pt x="650" y="408" on="0"/>
        <pt x="623" y="408" on="1"/>
        <pt x="583" y="408" on="0"/>
        <pt x="528" y="377" on="0"/>
        <pt x="500" y="318" on="0"/>
        <pt x="500" y="275" on="1"/>
        <pt x="500" y="232" on="0"/>
        <pt x="540" y="167" on="0"/>
        <pt x="614" y="130" on="0"/>
        <pt x="664" y="130" on="1"/>
        <pt x="700" y="130" on="0"/>
        <pt x="756" y="149" on="0"/>
        <pt x="788" y="174" on="1"/>
        <pt x="856" y="67" on="1"/>
        <pt x="825" y="40" on="0"/>
        <pt x="755" y="7" on="0"/>
        <pt x="683" y="-10" on="0"/>
        <pt x="647" y="-10" on="1"/>
        <pt x="559" y="-10" on="0"/>
        <pt x="430" y="60" on="0"/>
        <pt x="360" y="183" on="0"/>
        <pt x="360" y="263" on="1"/>
        <pt x="360" y="324" on="0"/>
        <pt x="399" y="426" on="0"/>
        <pt x="469" y="501" on="0"/>
        <pt x="565" y="542" on="0"/>
        <pt x="621" y="542" on="1"/>
        <pt x="694" y="541" on="0"/>
        <pt x="807" y="472" on="0"/>
        <pt x="870" y="351" on="0"/>
        <pt x="869" y="274" on="1"/>
        <pt x="868" y="226" on="1"/>
        <pt x="277" y="226" on="1"/>
        <pt x="256" y="226" on="0"/>
        <pt x="224" y="217" on="0"/>
        <pt x="202" y="200" on="0"/>
        <pt x="191" y="177" on="0"/>
        <pt x="191" y="161" on="1"/>
        <pt x="191" y="146" on="0"/>
        <pt x="206" y="121" on="0"/>
        <pt x="235" y="107" on="0"/>
        <pt x="253" y="107" on="1"/>
        <pt x="279" y="107" on="0"/>
        <pt x="326" y="124" on="0"/>
        <pt x="364" y="156" on="0"/>
        <pt x="375" y="177" on="1"/>
        <pt x="428" y="96" on="1"/>
        <pt x="407" y="63" on="0"/>
        <pt x="339" y="15" on="0"/>
        <pt x="257" y="-10" on="0"/>
      </contour>
      <contour>
        <pt x="357" y="248" on="1"/>
        <pt x="357" y="332" on="1"/>
        <pt x="357" y="352" on="0"/>
        <pt x="345" y="380" on="0"/>
        <pt x="321" y="398" on="0"/>
        <pt x="287" y="407" on="0"/>
        <pt x="266" y="407" on="1"/>
        <pt x="227" y="407" on="0"/>
        <pt x="171" y="378" on="0"/>
        <pt x="147" y="344" on="1"/>
        <pt x="52" y="438" on="1"/>
        <pt x="78" y="469" on="0"/>
        <pt x="149" y="516" on="0"/>
        <pt x="239" y="542" on="0"/>
        <pt x="289" y="542" on="1"/>
        <pt x="337" y="542" on="0"/>
        <pt x="414" y="521" on="0"/>
        <pt x="468" y="477" on="0"/>
        <pt x="498" y="412" on="0"/>
        <pt x="498" y="367" on="1"/>
        <pt x="498" y="251" on="1"/>
      </contour>
    </TTGlyph>
    <TTGlyph name="aeacute" xMin="33" yMin="-10" xMax="870" yMax="804">
      <component glyphName="ae" x="0" y="0" flags="0x604"/>
      <component glyphName="acutecomb" x="207" y="6" flags="0x4"/>
    </TTGlyph>
    <TTGlyph name="agrave" xMin="33" yMin="-9" xMax="589" yMax="804">
      <component glyphName="a" x="0" y="0" flags="0x604"/>
      <component glyphName="gravecomb" x="60" y="6" flags="0x4"/>
    </TTGlyph>
    <TTGlyph name="agrave.ss01" xMin="38" yMin="-10" xMax="510" yMax="804">
      <component glyphName="a.ss01" x="0" y="0" flags="0x604"/>
      <component glyphName="gravecomb" x="14" y="6" flags="0x4"/>
    </TTGlyph>
    <TTGlyph name="amacron" xMin="33" yMin="-9" xMax="589" yMax="741">
      <component glyphName="a" x="0" y="0" flags="0x604"/>
      <component glyphName="uni0304" x="80" y="6" flags="0x4"/>
    </TTGlyph>
    <TTGlyph name="amacron.ss01" xMin="38" yMin="-10" xMax="510" yMax="741">
      <component glyphName="a.ss01" x="0" y="0" flags="0x604"/>
      <component glyphName="uni0304" x="34" y="6" flags="0x4"/>
    </TTGlyph>
    <TTGlyph name="ampersand" xMin="50" yMin="-10" xMax="778" yMax="716">
      <contour>
        <pt x="580" y="0" on="1" overlap="1"/>
        <pt x="510" y="72" on="1"/>
        <pt x="450" y="128" on="1"/>
        <pt x="303" y="284" on="1"/>
        <pt x="264" y="326" on="0"/>
        <pt x="210" y="395" on="0"/>
        <pt x="179" y="454" on="0"/>
        <pt x="165" y="506" on="0"/>
        <pt x="165" y="528" on="1"/>
        <pt x="165" y="582" on="0"/>
        <pt x="222" y="667" on="0"/>
        <pt x="323" y="716" on="0"/>
        <pt x="389" y="716" on="1"/>
        <pt x="440" y="716" on="0"/>
        <pt x="528" y="683" on="0"/>
        <pt x="592" y="623" on="0"/>
        <pt x="605" y="583" on="1"/>
        <pt x="479" y="508" on="1"/>
        <pt x="462" y="549" on="0"/>
        <pt x="422" y="579" on="0"/>
        <pt x="395" y="579" on="1"/>
        <pt x="373" y="579" on="0"/>
        <pt x="343" y="565" on="0"/>
        <pt x="327" y="538" on="0"/>
        <pt x="327" y="518" on="1"/>
        <pt x="327" y="499" on="0"/>
        <pt x="358" y="444" on="0"/>
        <pt x="406" y="385" on="0"/>
        <pt x="456" y="332" on="0"/>
        <pt x="476" y="313" on="1"/>
        <pt x="550" y="232" on="1"/>
        <pt x="619" y="169" on="1"/>
        <pt x="778" y="0" on="1"/>
      </contour>
      <contour>
        <pt x="327" y="-10" on="1"/>
        <pt x="248" y="-10" on="0"/>
        <pt x="123" y="50" on="0"/>
        <pt x="50" y="154" on="0"/>
        <pt x="50" y="218" on="1"/>
        <pt x="50" y="291" on="0"/>
        <pt x="135" y="408" on="0"/>
        <pt x="218" y="438" on="1"/>
        <pt x="318" y="341" on="1"/>
        <pt x="262" y="329" on="0"/>
        <pt x="206" y="273" on="0"/>
        <pt x="206" y="230" on="1"/>
        <pt x="206" y="196" on="0"/>
        <pt x="238" y="146" on="0"/>
        <pt x="300" y="119" on="0"/>
        <pt x="343" y="119" on="1"/>
        <pt x="383" y="119" on="0"/>
        <pt x="452" y="152" on="0"/>
        <pt x="507" y="212" on="0"/>
        <pt x="541" y="295" on="0"/>
        <pt x="547" y="346" on="1"/>
        <pt x="696" y="346" on="1"/>
        <pt x="687" y="282" on="0"/>
        <pt x="643" y="173" on="0"/>
        <pt x="576" y="85" on="0"/>
        <pt x="489" y="23" on="0"/>
        <pt x="386" y="-10" on="0"/>
      </contour>
    </TTGlyph>
    <TTGlyph name="aogonek" xMin="33" yMin="-211" xMax="589" yMax="542">
      <component glyphName="a" x="0" y="0" flags="0x604"/>
      <component glyphName="uni0328" x="215" y="0" flags="0x4"/>
    </TTGlyph>
    <TTGlyph name="aogonek.ss01" xMin="38" yMin="-211" xMax="516" yMax="542">
      <component glyphName="a.ss01" x="0" y="0" flags="0x604"/>
      <component glyphName="uni0328" x="146" y="0" flags="0x4"/>
    </TTGlyph>
    <TTGlyph name="approxequal" xMin="56" yMin="69" xMax="552" yMax="465">
      <contour>
        <pt x="425" y="285" on="1" overlap="1"/>
        <pt x="405" y="285" on="0"/>
        <pt x="356" y="298" on="0"/>
        <pt x="308" y="316" on="0"/>
        <pt x="287" y="324" on="1"/>
        <pt x="274" y="329" on="0"/>
        <pt x="243" y="342" on="0"/>
        <pt x="212" y="351" on="0"/>
        <pt x="197" y="351" on="1"/>
        <pt x="180" y="351" on="0"/>
        <pt x="161" y="327" on="0"/>
        <pt x="162" y="304" on="1"/>
        <pt x="56" y="300" on="1"/>
        <pt x="56" y="353" on="0"/>
        <pt x="88" y="427" on="0"/>
        <pt x="151" y="465" on="0"/>
        <pt x="200" y="465" on="1"/>
        <pt x="218" y="465" on="0"/>
        <pt x="264" y="451" on="0"/>
        <pt x="309" y="432" on="0"/>
        <pt x="326" y="425" on="1"/>
        <pt x="337" y="421" on="0"/>
        <pt x="366" y="408" on="0"/>
        <pt x="396" y="399" on="0"/>
        <pt x="407" y="399" on="1"/>
        <pt x="427" y="399" on="0"/>
        <pt x="447" y="419" on="0"/>
        <pt x="446" y="442" on="1"/>
        <pt x="552" y="445" on="1"/>
        <pt x="552" y="394" on="0"/>
        <pt x="524" y="322" on="0"/>
        <pt x="467" y="285" on="0"/>
      </contour>
      <contour>
        <pt x="425" y="69" on="1"/>
        <pt x="405" y="69" on="0"/>
        <pt x="356" y="82" on="0"/>
        <pt x="308" y="101" on="0"/>
        <pt x="287" y="109" on="1"/>
        <pt x="274" y="114" on="0"/>
        <pt x="243" y="127" on="0"/>
        <pt x="212" y="135" on="0"/>
        <pt x="197" y="135" on="1"/>
        <pt x="180" y="135" on="0"/>
        <pt x="161" y="111" on="0"/>
        <pt x="162" y="89" on="1"/>
        <pt x="56" y="85" on="1"/>
        <pt x="56" y="137" on="0"/>
        <pt x="86" y="211" on="0"/>
        <pt x="147" y="250" on="0"/>
        <pt x="194" y="250" on="1"/>
        <pt x="214" y="250" on="0"/>
        <pt x="261" y="237" on="0"/>
        <pt x="307" y="218" on="0"/>
        <pt x="326" y="210" on="1"/>
        <pt x="337" y="206" on="0"/>
        <pt x="366" y="193" on="0"/>
        <pt x="396" y="184" on="0"/>
        <pt x="407" y="184" on="1"/>
        <pt x="427" y="184" on="0"/>
        <pt x="447" y="204" on="0"/>
        <pt x="446" y="227" on="1"/>
        <pt x="552" y="230" on="1"/>
        <pt x="552" y="178" on="0"/>
        <pt x="524" y="107" on="0"/>
        <pt x="467" y="69" on="0"/>
      </contour>
    </TTGlyph>
    <TTGlyph name="aring" xMin="33" yMin="-9" xMax="589" yMax="838">
      <component glyphName="a" x="0" y="0" flags="0x604"/>
      <component glyphName="uni030A" x="80" y="6" flags="0x4"/>
    </TTGlyph>
    <TTGlyph name="aring.ss01" xMin="38" yMin="-10" xMax="510" yMax="838">
      <component glyphName="a.ss01" x="0" y="0" flags="0x604"/>
      <component glyphName="uni030A" x="33" y="6" flags="0x4"/>
    </TTGlyph>
    <TTGlyph name="aringacute" xMin="33" yMin="-9" xMax="589" yMax="1079">
      <component glyphName="a" x="0" y="0" flags="0x604"/>
      <component glyphName="uni030A" x="80" y="6" flags="0x4"/>
      <component glyphName="acutecomb" x="80" y="281" flags="0x4"/>
    </TTGlyph>
    <TTGlyph name="aringacute.ss01" xMin="38" yMin="-10" xMax="510" yMax="1079">
      <component glyphName="a.ss01" x="0" y="0" flags="0x604"/>
      <component glyphName="uni030A" x="33" y="6" flags="0x4"/>
      <component glyphName="acutecomb" x="34" y="281" flags="0x4"/>
    </TTGlyph>
    <TTGlyph name="asciicircum" xMin="12" yMin="361" xMax="580" yMax="733">
      <contour>
        <pt x="12" y="361" on="1" overlap="1"/>
        <pt x="232" y="733" on="1"/>
        <pt x="361" y="733" on="1"/>
        <pt x="580" y="361" on="1"/>
        <pt x="419" y="361" on="1"/>
        <pt x="255" y="644" on="1"/>
        <pt x="339" y="646" on="1"/>
        <pt x="171" y="361" on="1"/>
      </contour>
    </TTGlyph>
    <TTGlyph name="asciitilde" xMin="32" yMin="196" xMax="524" yMax="395">
      <contour>
        <pt x="383" y="202" on="1" overlap="1"/>
        <pt x="366" y="202" on="0"/>
        <pt x="327" y="211" on="0"/>
        <pt x="289" y="225" on="0"/>
        <pt x="272" y="232" on="1"/>
        <pt x="257" y="239" on="0"/>
        <pt x="224" y="251" on="0"/>
        <pt x="196" y="259" on="0"/>
        <pt x="186" y="259" on="1"/>
        <pt x="167" y="259" on="0"/>
        <pt x="147" y="227" on="0"/>
        <pt x="147" y="196" on="1"/>
        <pt x="32" y="196" on="1"/>
        <pt x="32" y="292" on="0"/>
        <pt x="106" y="394" on="0"/>
        <pt x="184" y="394" on="1"/>
        <pt x="196" y="394" on="0"/>
        <pt x="226" y="388" on="0"/>
        <pt x="254" y="378" on="0"/>
        <pt x="283" y="367" on="0"/>
        <pt x="294" y="362" on="1"/>
        <pt x="307" y="357" on="0"/>
        <pt x="335" y="345" on="0"/>
        <pt x="362" y="337" on="0"/>
        <pt x="372" y="337" on="1"/>
        <pt x="389" y="337" on="0"/>
        <pt x="411" y="370" on="0"/>
        <pt x="409" y="395" on="1"/>
        <pt x="524" y="394" on="1"/>
        <pt x="524" y="331" on="0"/>
        <pt x="492" y="246" on="0"/>
        <pt x="429" y="202" on="0"/>
      </contour>
    </TTGlyph>
    <TTGlyph name="asterisk" xMin="17" yMin="353" xMax="423" yMax="736">
      <contour>
        <pt x="166" y="353" on="1" overlap="1"/>
        <pt x="180" y="489" on="1"/>
        <pt x="197" y="486" on="1"/>
        <pt x="72" y="401" on="1"/>
        <pt x="18" y="493" on="1"/>
        <pt x="153" y="547" on="1"/>
        <pt x="152" y="538" on="1"/>
        <pt x="17" y="599" on="1"/>
        <pt x="71" y="692" on="1"/>
        <pt x="200" y="597" on="1"/>
        <pt x="180" y="596" on="1"/>
        <pt x="164" y="736" on="1"/>
        <pt x="279" y="736" on="1"/>
        <pt x="264" y="591" on="1"/>
        <pt x="248" y="598" on="1"/>
        <pt x="369" y="691" on="1"/>
        <pt x="423" y="598" on="1"/>
        <pt x="285" y="537" on="1"/>
        <pt x="285" y="547" on="1"/>
        <pt x="421" y="493" on="1"/>
        <pt x="368" y="402" on="1"/>
        <pt x="249" y="490" on="1"/>
        <pt x="265" y="489" on="1"/>
        <pt x="281" y="353" on="1"/>
      </contour>
    </TTGlyph>
    <TTGlyph name="at" xMin="40" yMin="-162" xMax="925" yMax="710">
      <contour>
        <pt x="414" y="-162" on="1" overlap="1"/>
        <pt x="327" y="-162" on="0"/>
        <pt x="188" y="-109" on="0"/>
        <pt x="91" y="-12" on="0"/>
        <pt x="40" y="124" on="0"/>
        <pt x="40" y="206" on="1"/>
        <pt x="40" y="323" on="0"/>
        <pt x="123" y="510" on="0"/>
        <pt x="270" y="641" on="0"/>
        <pt x="465" y="710" on="0"/>
        <pt x="576" y="710" on="1"/>
        <pt x="656" y="710" on="0"/>
        <pt x="784" y="665" on="0"/>
        <pt x="876" y="581" on="0"/>
        <pt x="925" y="466" on="0"/>
        <pt x="925" y="396" on="1"/>
        <pt x="925" y="327" on="0"/>
        <pt x="886" y="202" on="0"/>
        <pt x="816" y="105" on="0"/>
        <pt x="723" y="49" on="0"/>
        <pt x="669" y="49" on="1"/>
        <pt x="631" y="49" on="0"/>
        <pt x="571" y="75" on="0"/>
        <pt x="538" y="122" on="0"/>
        <pt x="538" y="153" on="1"/>
        <pt x="538" y="169" on="0"/>
        <pt x="541" y="204" on="0"/>
        <pt x="542" y="222" on="1"/>
        <pt x="568" y="202" on="1"/>
        <pt x="552" y="153" on="0"/>
        <pt x="501" y="85" on="0"/>
        <pt x="434" y="49" on="0"/>
        <pt x="394" y="49" on="1"/>
        <pt x="348" y="49" on="0"/>
        <pt x="276" y="97" on="0"/>
        <pt x="234" y="181" on="0"/>
        <pt x="234" y="237" on="1"/>
        <pt x="234" y="286" on="0"/>
        <pt x="270" y="386" on="0"/>
        <pt x="337" y="470" on="0"/>
        <pt x="425" y="521" on="0"/>
        <pt x="477" y="521" on="1"/>
        <pt x="508" y="521" on="0"/>
        <pt x="557" y="489" on="0"/>
        <pt x="588" y="431" on="0"/>
        <pt x="591" y="393" on="1"/>
        <pt x="560" y="365" on="1"/>
        <pt x="589" y="510" on="1"/>
        <pt x="733" y="510" on="1"/>
        <pt x="674" y="194" on="1"/>
        <pt x="671" y="177" on="0"/>
        <pt x="681" y="158" on="0"/>
        <pt x="700" y="148" on="0"/>
        <pt x="711" y="148" on="1"/>
        <pt x="739" y="148" on="0"/>
        <pt x="787" y="187" on="0"/>
        <pt x="822" y="254" on="0"/>
        <pt x="842" y="342" on="0"/>
        <pt x="842" y="391" on="1"/>
        <pt x="842" y="467" on="0"/>
        <pt x="777" y="574" on="0"/>
        <pt x="655" y="632" on="0"/>
        <pt x="570" y="632" on="1"/>
        <pt x="467" y="632" on="0"/>
        <pt x="302" y="574" on="0"/>
        <pt x="186" y="465" on="0"/>
        <pt x="124" y="308" on="0"/>
        <pt x="124" y="209" on="1"/>
        <pt x="124" y="140" on="0"/>
        <pt x="163" y="33" on="0"/>
        <pt x="237" y="-43" on="0"/>
        <pt x="347" y="-82" on="0"/>
        <pt x="417" y="-82" on="1"/>
        <pt x="464" y="-82" on="0"/>
        <pt x="532" y="-69" on="0"/>
        <pt x="594" y="-42" on="0"/>
        <pt x="632" y="-22" on="1"/>
        <pt x="669" y="-89" on="1"/>
        <pt x="610" y="-119" on="0"/>
        <pt x="526" y="-150" on="0"/>
        <pt x="454" y="-162" on="0"/>
      </contour>
      <contour>
        <pt x="436" y="170" on="1"/>
        <pt x="462" y="170" on="0"/>
        <pt x="511" y="204" on="0"/>
        <pt x="547" y="260" on="0"/>
        <pt x="553" y="295" on="1"/>
        <pt x="555" y="309" on="0"/>
        <pt x="559" y="332" on="0"/>
        <pt x="559" y="343" on="1"/>
        <pt x="559" y="362" on="0"/>
        <pt x="546" y="391" on="0"/>
        <pt x="519" y="407" on="0"/>
        <pt x="498" y="407" on="1"/>
        <pt x="467" y="407" on="0"/>
        <pt x="416" y="361" on="0"/>
        <pt x="386" y="285" on="0"/>
        <pt x="386" y="242" on="1"/>
        <pt x="386" y="209" on="0"/>
        <pt x="413" y="170" on="0"/>
      </contour>
    </TTGlyph>
    <TTGlyph name="at.case" xMin="40" yMin="-62" xMax="925" yMax="810">
      <component glyphName="at" x="0" y="100" flags="0x604"/>
    </TTGlyph>
    <TTGlyph name="atilde" xMin="33" yMin="-9" xMax="589" yMax="768">
      <component glyphName="a" x="0" y="0" flags="0x604"/>
      <component glyphName="tildecomb" x="80" y="6" flags="0x4"/>
    </TTGlyph>
    <TTGlyph name="atilde.ss01" xMin="38" yMin="-10" xMax="510" yMax="768">
      <component glyphName="a.ss01" x="0" y="0" flags="0x604"/>
      <component glyphName="tildecomb" x="33" y="6" flags="0x4"/>
    </TTGlyph>
    <TTGlyph name="b" xMin="71" yMin="-11" xMax="624" yMax="740">
      <contour>
        <pt x="390" y="-11" on="1" overlap="1"/>
        <pt x="354" y="-11" on="0"/>
        <pt x="288" y="9" on="0"/>
        <pt x="235" y="43" on="0"/>
        <pt x="200" y="88" on="0"/>
        <pt x="194" y="112" on="1"/>
        <pt x="229" y="124" on="1"/>
        <pt x="220" y="1" on="1"/>
        <pt x="71" y="1" on="1"/>
        <pt x="71" y="740" on="1"/>
        <pt x="232" y="740" on="1"/>
        <pt x="232" y="404" on="1"/>
        <pt x="199" y="416" on="1"/>
        <pt x="205" y="442" on="0"/>
        <pt x="239" y="487" on="0"/>
        <pt x="291" y="522" on="0"/>
        <pt x="353" y="542" on="0"/>
        <pt x="386" y="542" on="1"/>
        <pt x="455" y="542" on="0"/>
        <pt x="562" y="471" on="0"/>
        <pt x="624" y="346" on="0"/>
        <pt x="624" y="266" on="1"/>
        <pt x="624" y="185" on="0"/>
        <pt x="563" y="60" on="0"/>
        <pt x="457" y="-11" on="0"/>
      </contour>
      <contour>
        <pt x="348" y="124" on="1"/>
        <pt x="384" y="124" on="0"/>
        <pt x="438" y="160" on="0"/>
        <pt x="467" y="223" on="0"/>
        <pt x="467" y="266" on="1"/>
        <pt x="467" y="308" on="0"/>
        <pt x="438" y="372" on="0"/>
        <pt x="384" y="406" on="0"/>
        <pt x="348" y="406" on="1"/>
        <pt x="311" y="406" on="0"/>
        <pt x="257" y="372" on="0"/>
        <pt x="227" y="308" on="0"/>
        <pt x="227" y="266" on="1"/>
        <pt x="227" y="223" on="0"/>
        <pt x="257" y="160" on="0"/>
        <pt x="311" y="124" on="0"/>
      </contour>
    </TTGlyph>
    <TTGlyph name="backslash" xMin="20" yMin="-107" xMax="580" yMax="700">
      <contour>
        <pt x="418" y="-107" on="1" overlap="1"/>
        <pt x="20" y="700" on="1"/>
        <pt x="180" y="700" on="1"/>
        <pt x="580" y="-107" on="1"/>
      </contour>
    </TTGlyph>
    <TTGlyph name="backslash.case" xMin="20" yMin="-107" xMax="580" yMax="700">
      <component glyphName="backslash" x="0" y="0" flags="0x404"/>
    </TTGlyph>
    <TTGlyph name="bar" xMin="83" yMin="-193" xMax="235" yMax="740">
      <contour>
        <pt x="83" y="-193" on="1" overlap="1"/>
        <pt x="83" y="740" on="1"/>
        <pt x="235" y="740" on="1"/>
        <pt x="235" y="-193" on="1"/>
      </contour>
    </TTGlyph>
    <TTGlyph name="braceleft" xMin="39" yMin="-206" xMax="399" yMax="706">
      <contour>
        <pt x="364" y="-206" on="1" overlap="1"/>
        <pt x="313" y="-195" on="0"/>
        <pt x="237" y="-162" on="0"/>
        <pt x="187" y="-115" on="0"/>
        <pt x="163" y="-49" on="0"/>
        <pt x="163" y="-7" on="1"/>
        <pt x="164" y="88" on="1"/>
        <pt x="164" y="138" on="0"/>
        <pt x="120" y="186" on="0"/>
        <pt x="79" y="187" on="1"/>
        <pt x="39" y="187" on="1"/>
        <pt x="39" y="313" on="1"/>
        <pt x="81" y="313" on="1"/>
        <pt x="122" y="314" on="0"/>
        <pt x="164" y="361" on="0"/>
        <pt x="164" y="412" on="1"/>
        <pt x="163" y="507" on="1"/>
        <pt x="163" y="589" on="0"/>
        <pt x="260" y="684" on="0"/>
        <pt x="364" y="706" on="1"/>
        <pt x="399" y="591" on="1"/>
        <pt x="364" y="579" on="0"/>
        <pt x="324" y="556" on="0"/>
        <pt x="307" y="516" on="0"/>
        <pt x="307" y="482" on="1"/>
        <pt x="309" y="398" on="1"/>
        <pt x="309" y="340" on="0"/>
        <pt x="238" y="262" on="0"/>
        <pt x="163" y="243" on="1"/>
        <pt x="162" y="258" on="1"/>
        <pt x="238" y="237" on="0"/>
        <pt x="309" y="159" on="0"/>
        <pt x="309" y="102" on="1"/>
        <pt x="307" y="18" on="1"/>
        <pt x="307" y="-14" on="0"/>
        <pt x="324" y="-51" on="0"/>
        <pt x="364" y="-73" on="0"/>
        <pt x="399" y="-85" on="1"/>
      </contour>
    </TTGlyph>
    <TTGlyph name="braceleft.case" xMin="39" yMin="-156" xMax="399" yMax="756">
      <component glyphName="braceleft" x="0" y="50" flags="0x604"/>
    </TTGlyph>
    <TTGlyph name="braceright" xMin="27" yMin="-206" xMax="388" yMax="706">
      <contour>
        <pt x="63" y="-206" on="1" overlap="1"/>
        <pt x="27" y="-91" on="1"/>
        <pt x="63" y="-79" on="0"/>
        <pt x="102" y="-56" on="0"/>
        <pt x="119" y="-16" on="0"/>
        <pt x="119" y="18" on="1"/>
        <pt x="117" y="102" on="1"/>
        <pt x="117" y="160" on="0"/>
        <pt x="188" y="238" on="0"/>
        <pt x="264" y="257" on="1"/>
        <pt x="264" y="242" on="1"/>
        <pt x="188" y="263" on="0"/>
        <pt x="117" y="341" on="0"/>
        <pt x="117" y="398" on="1"/>
        <pt x="119" y="482" on="1"/>
        <pt x="119" y="514" on="0"/>
        <pt x="103" y="551" on="0"/>
        <pt x="63" y="573" on="0"/>
        <pt x="27" y="585" on="1"/>
        <pt x="63" y="706" on="1"/>
        <pt x="114" y="696" on="0"/>
        <pt x="190" y="662" on="0"/>
        <pt x="239" y="615" on="0"/>
        <pt x="264" y="549" on="0"/>
        <pt x="264" y="507" on="1"/>
        <pt x="263" y="412" on="1"/>
        <pt x="263" y="362" on="0"/>
        <pt x="306" y="314" on="0"/>
        <pt x="348" y="313" on="1"/>
        <pt x="388" y="313" on="1"/>
        <pt x="388" y="187" on="1"/>
        <pt x="346" y="187" on="1"/>
        <pt x="304" y="186" on="0"/>
        <pt x="263" y="139" on="0"/>
        <pt x="263" y="88" on="1"/>
        <pt x="264" y="-7" on="1"/>
        <pt x="264" y="-89" on="0"/>
        <pt x="166" y="-184" on="0"/>
      </contour>
    </TTGlyph>
    <TTGlyph name="braceright.case" xMin="27" yMin="-156" xMax="388" yMax="756">
      <component glyphName="braceright" x="0" y="50" flags="0x604"/>
    </TTGlyph>
    <TTGlyph name="bracketleft" xMin="80" yMin="-190" xMax="377" yMax="700">
      <contour>
        <pt x="80" y="-190" on="1" overlap="1"/>
        <pt x="80" y="700" on="1"/>
        <pt x="377" y="700" on="1"/>
        <pt x="377" y="563" on="1"/>
        <pt x="228" y="563" on="1"/>
        <pt x="234" y="571" on="1"/>
        <pt x="234" y="-65" on="1"/>
        <pt x="224" y="-53" on="1"/>
        <pt x="377" y="-53" on="1"/>
        <pt x="377" y="-190" on="1"/>
      </contour>
    </TTGlyph>
    <TTGlyph name="bracketleft.case" xMin="80" yMin="-150" xMax="377" yMax="740">
      <component glyphName="bracketleft" x="0" y="40" flags="0x604"/>
    </TTGlyph>
    <TTGlyph name="bracketright" xMin="42" yMin="-190" xMax="340" yMax="700">
      <contour>
        <pt x="42" y="-190" on="1" overlap="1"/>
        <pt x="42" y="-53" on="1"/>
        <pt x="192" y="-53" on="1"/>
        <pt x="186" y="-61" on="1"/>
        <pt x="186" y="575" on="1"/>
        <pt x="196" y="563" on="1"/>
        <pt x="42" y="563" on="1"/>
        <pt x="42" y="700" on="1"/>
        <pt x="340" y="700" on="1"/>
        <pt x="340" y="-190" on="1"/>
      </contour>
    </TTGlyph>
    <TTGlyph name="bracketright.case" xMin="42" yMin="-150" xMax="340" yMax="740">
      <component glyphName="bracketright" x="0" y="40" flags="0x604"/>
    </TTGlyph>
    <TTGlyph name="breve" xMin="71" yMin="595" xMax="429" yMax="767">
      <component glyphName="uni0306" x="0" y="0" flags="0x404"/>
    </TTGlyph>
    <TTGlyph name="brokenbar" xMin="85" yMin="-202" xMax="239" yMax="740">
      <contour>
        <pt x="85" y="-202" on="1" overlap="1"/>
        <pt x="85" y="192" on="1"/>
        <pt x="239" y="192" on="1"/>
        <pt x="239" y="-202" on="1"/>
      </contour>
      <contour>
        <pt x="85" y="347" on="1"/>
        <pt x="85" y="740" on="1"/>
        <pt x="239" y="740" on="1"/>
        <pt x="239" y="347" on="1"/>
      </contour>
    </TTGlyph>
    <TTGlyph name="bullet" xMin="37" yMin="216" xMax="310" yMax="488">
      <contour>
        <pt x="173" y="216" on="1" overlap="1"/>
        <pt x="136" y="216" on="0"/>
        <pt x="74" y="252" on="0"/>
        <pt x="37" y="314" on="0"/>
        <pt x="37" y="351" on="1"/>
        <pt x="37" y="389" on="0"/>
        <pt x="73" y="451" on="0"/>
        <pt x="135" y="488" on="0"/>
        <pt x="173" y="488" on="1"/>
        <pt x="211" y="488" on="0"/>
        <pt x="273" y="451" on="0"/>
        <pt x="310" y="389" on="0"/>
        <pt x="310" y="351" on="1"/>
        <pt x="310" y="314" on="0"/>
        <pt x="273" y="252" on="0"/>
        <pt x="211" y="216" on="0"/>
      </contour>
    </TTGlyph>
    <TTGlyph name="bullet.case" xMin="45" yMin="219" xMax="318" yMax="491">
      <component glyphName="bullet" x="8" y="3" flags="0x404"/>
    </TTGlyph>
    <TTGlyph name="c" xMin="34" yMin="-10" xMax="529" yMax="542">
      <contour>
        <pt x="304" y="-10" on="1" overlap="1"/>
        <pt x="227" y="-10" on="0"/>
        <pt x="105" y="62" on="0"/>
        <pt x="34" y="187" on="0"/>
        <pt x="34" y="266" on="1"/>
        <pt x="34" y="345" on="0"/>
        <pt x="105" y="470" on="0"/>
        <pt x="227" y="542" on="0"/>
        <pt x="304" y="542" on="1"/>
        <pt x="375" y="542" on="0"/>
        <pt x="494" y="492" on="0"/>
        <pt x="529" y="447" on="1"/>
        <pt x="442" y="343" on="1"/>
        <pt x="428" y="359" on="0"/>
        <pt x="390" y="387" on="0"/>
        <pt x="344" y="403" on="0"/>
        <pt x="319" y="403" on="1"/>
        <pt x="281" y="403" on="0"/>
        <pt x="223" y="368" on="0"/>
        <pt x="191" y="306" on="0"/>
        <pt x="191" y="266" on="1"/>
        <pt x="191" y="228" on="0"/>
        <pt x="224" y="166" on="0"/>
        <pt x="282" y="130" on="0"/>
        <pt x="319" y="130" on="1"/>
        <pt x="345" y="130" on="0"/>
        <pt x="389" y="143" on="0"/>
        <pt x="426" y="169" on="0"/>
        <pt x="442" y="188" on="1"/>
        <pt x="528" y="83" on="1"/>
        <pt x="494" y="40" on="0"/>
        <pt x="373" y="-10" on="0"/>
      </contour>
    </TTGlyph>
    <TTGlyph name="cacute" xMin="34" yMin="-10" xMax="529" yMax="804">
      <component glyphName="c" x="0" y="0" flags="0x604"/>
      <component glyphName="acutecomb" x="54" y="6" flags="0x4"/>
    </TTGlyph>
    <TTGlyph name="caron" xMin="62" yMin="601" xMax="438" yMax="780">
      <component glyphName="uni030C" x="0" y="0" flags="0x404"/>
    </TTGlyph>
    <TTGlyph name="ccaron" xMin="34" yMin="-10" xMax="529" yMax="786">
      <component glyphName="c" x="0" y="0" flags="0x604"/>
      <component glyphName="uni030C" x="54" y="6" flags="0x4"/>
    </TTGlyph>
    <TTGlyph name="ccedilla" xMin="34" yMin="-247" xMax="529" yMax="542">
      <component glyphName="c" x="0" y="0" flags="0x604"/>
      <component glyphName="uni0327" x="54" y="0" flags="0x4"/>
    </TTGlyph>
    <TTGlyph name="ccircumflex" xMin="34" yMin="-10" xMax="529" yMax="780">
      <component glyphName="c" x="0" y="0" flags="0x604"/>
      <component glyphName="uni0302" x="54" y="6" flags="0x4"/>
    </TTGlyph>
    <TTGlyph name="cdotaccent" xMin="34" yMin="-10" xMax="529" yMax="802">
      <component glyphName="c" x="0" y="0" flags="0x604"/>
      <component glyphName="uni0307" x="54" y="6" flags="0x4"/>
    </TTGlyph>
    <TTGlyph name="cedilla" xMin="142" yMin="-247" xMax="359" yMax="24">
      <component glyphName="uni0327" x="0" y="0" flags="0x404"/>
    </TTGlyph>
    <TTGlyph name="cent" xMin="46" yMin="0" xMax="546" yMax="706">
      <contour>
        <pt x="321" y="78" on="1" overlap="1"/>
        <pt x="242" y="78" on="0"/>
        <pt x="118" y="150" on="0"/>
        <pt x="46" y="275" on="0"/>
        <pt x="46" y="354" on="1"/>
        <pt x="46" y="433" on="0"/>
        <pt x="118" y="558" on="0"/>
        <pt x="242" y="630" on="0"/>
        <pt x="321" y="630" on="1"/>
        <pt x="393" y="630" on="0"/>
        <pt x="512" y="580" on="0"/>
        <pt x="546" y="535" on="1"/>
        <pt x="459" y="431" on="1"/>
        <pt x="446" y="447" on="0"/>
        <pt x="407" y="475" on="0"/>
        <pt x="361" y="491" on="0"/>
        <pt x="336" y="491" on="1"/>
        <pt x="297" y="491" on="0"/>
        <pt x="237" y="456" on="0"/>
        <pt x="202" y="394" on="0"/>
        <pt x="202" y="354" on="1"/>
        <pt x="202" y="316" on="0"/>
        <pt x="237" y="254" on="0"/>
        <pt x="297" y="218" on="0"/>
        <pt x="336" y="218" on="1"/>
        <pt x="362" y="218" on="0"/>
        <pt x="406" y="231" on="0"/>
        <pt x="443" y="257" on="0"/>
        <pt x="459" y="276" on="1"/>
        <pt x="546" y="171" on="1"/>
        <pt x="511" y="128" on="0"/>
        <pt x="390" y="78" on="0"/>
      </contour>
      <contour>
        <pt x="265" y="0" on="1"/>
        <pt x="265" y="108" on="1"/>
        <pt x="291" y="146" on="1"/>
        <pt x="291" y="556" on="1"/>
        <pt x="265" y="606" on="1"/>
        <pt x="265" y="706" on="1"/>
        <pt x="385" y="706" on="1"/>
        <pt x="385" y="605" on="1"/>
        <pt x="363" y="559" on="1"/>
        <pt x="363" y="143" on="1"/>
        <pt x="385" y="107" on="1"/>
        <pt x="385" y="0" on="1"/>
      </contour>
    </TTGlyph>
    <TTGlyph name="circumflex" xMin="58" yMin="595" xMax="442" yMax="774">
      <component glyphName="uni0302" x="0" y="0" flags="0x404"/>
    </TTGlyph>
    <TTGlyph name="colon" xMin="42" yMin="-11" xMax="215" yMax="541">
      <component glyphName="period" x="0" y="0" flags="0x604"/>
      <component glyphName="period" x="0" y="373" flags="0x4"/>
    </TTGlyph>
    <TTGlyph name="colonmonetary" xMin="43" yMin="-101" xMax="672" yMax="789">
      <contour>
        <pt x="239" y="-101" on="1" overlap="1"/>
        <pt x="178" y="-74" on="1"/>
        <pt x="537" y="789" on="1"/>
        <pt x="596" y="764" on="1"/>
      </contour>
      <contour>
        <pt x="241" y="-86" on="1"/>
        <pt x="180" y="-60" on="1"/>
        <pt x="531" y="784" on="1"/>
        <pt x="590" y="759" on="1"/>
      </contour>
      <contour>
        <pt x="406" y="-10" on="1"/>
        <pt x="327" y="-10" on="0"/>
        <pt x="194" y="43" on="0"/>
        <pt x="96" y="140" on="0"/>
        <pt x="43" y="273" on="0"/>
        <pt x="43" y="353" on="1"/>
        <pt x="43" y="431" on="0"/>
        <pt x="99" y="563" on="0"/>
        <pt x="198" y="660" on="0"/>
        <pt x="333" y="714" on="0"/>
        <pt x="413" y="714" on="1"/>
        <pt x="463" y="714" on="0"/>
        <pt x="559" y="688" on="0"/>
        <pt x="642" y="637" on="0"/>
        <pt x="672" y="602" on="1"/>
        <pt x="568" y="483" on="1"/>
        <pt x="547" y="505" on="0"/>
        <pt x="500" y="538" on="0"/>
        <pt x="444" y="556" on="0"/>
        <pt x="412" y="556" on="1"/>
        <pt x="372" y="556" on="0"/>
        <pt x="301" y="527" on="0"/>
        <pt x="248" y="474" on="0"/>
        <pt x="218" y="398" on="0"/>
        <pt x="218" y="351" on="1"/>
        <pt x="218" y="305" on="0"/>
        <pt x="248" y="230" on="0"/>
        <pt x="302" y="176" on="0"/>
        <pt x="379" y="148" on="0"/>
        <pt x="426" y="148" on="1"/>
        <pt x="458" y="148" on="0"/>
        <pt x="516" y="166" on="0"/>
        <pt x="565" y="197" on="0"/>
        <pt x="584" y="217" on="1"/>
        <pt x="666" y="87" on="1"/>
        <pt x="641" y="59" on="0"/>
        <pt x="558" y="15" on="0"/>
        <pt x="457" y="-10" on="0"/>
      </contour>
    </TTGlyph>
    <TTGlyph name="comma" xMin="39" yMin="-200" xMax="245" yMax="130">
      <contour>
        <pt x="85" y="-200" on="1" overlap="1"/>
        <pt x="39" y="-143" on="1"/>
        <pt x="79" y="-125" on="0"/>
        <pt x="127" y="-70" on="0"/>
        <pt x="127" y="-50" on="1"/>
        <pt x="127" y="-41" on="0"/>
        <pt x="118" y="-20" on="0"/>
        <pt x="100" y="-7" on="1"/>
        <pt x="77" y="10" on="0"/>
        <pt x="61" y="43" on="0"/>
        <pt x="61" y="63" on="1"/>
        <pt x="61" y="94" on="0"/>
        <pt x="106" y="130" on="0"/>
        <pt x="142" y="130" on="1"/>
        <pt x="171" y="130" on="0"/>
        <pt x="218" y="98" on="0"/>
        <pt x="245" y="42" on="0"/>
        <pt x="245" y="5" on="1"/>
        <pt x="245" y="-29" on="0"/>
        <pt x="221" y="-92" on="0"/>
        <pt x="178" y="-147" on="0"/>
        <pt x="119" y="-189" on="0"/>
      </contour>
    </TTGlyph>
    <TTGlyph name="copyright" xMin="26" yMin="-18" xMax="763" yMax="718">
      <contour>
        <pt x="395" y="-18" on="1" overlap="1"/>
        <pt x="317" y="-18" on="0"/>
        <pt x="184" y="38" on="0"/>
        <pt x="83" y="139" on="0"/>
        <pt x="26" y="273" on="0"/>
        <pt x="26" y="350" on="1"/>
        <pt x="26" y="427" on="0"/>
        <pt x="83" y="561" on="0"/>
        <pt x="184" y="662" on="0"/>
        <pt x="317" y="718" on="0"/>
        <pt x="395" y="718" on="1"/>
        <pt x="471" y="718" on="0"/>
        <pt x="605" y="662" on="0"/>
        <pt x="706" y="561" on="0"/>
        <pt x="763" y="427" on="0"/>
        <pt x="763" y="350" on="1"/>
        <pt x="763" y="273" on="0"/>
        <pt x="706" y="139" on="0"/>
        <pt x="605" y="38" on="0"/>
        <pt x="471" y="-18" on="0"/>
      </contour>
      <contour>
        <pt x="410" y="143" on="1"/>
        <pt x="351" y="143" on="0"/>
        <pt x="255" y="197" on="0"/>
        <pt x="198" y="290" on="0"/>
        <pt x="198" y="349" on="1"/>
        <pt x="198" y="406" on="0"/>
        <pt x="255" y="501" on="0"/>
        <pt x="351" y="557" on="0"/>
        <pt x="410" y="557" on="1"/>
        <pt x="446" y="557" on="0"/>
        <pt x="514" y="532" on="0"/>
        <pt x="546" y="509" on="1"/>
        <pt x="497" y="404" on="1"/>
        <pt x="482" y="414" on="0"/>
        <pt x="456" y="427" on="0"/>
        <pt x="433" y="433" on="0"/>
        <pt x="422" y="433" on="1"/>
        <pt x="397" y="433" on="0"/>
        <pt x="358" y="410" on="0"/>
        <pt x="335" y="373" on="0"/>
        <pt x="335" y="349" on="1"/>
        <pt x="335" y="325" on="0"/>
        <pt x="358" y="287" on="0"/>
        <pt x="397" y="265" on="0"/>
        <pt x="422" y="265" on="1"/>
        <pt x="440" y="265" on="0"/>
        <pt x="479" y="278" on="0"/>
        <pt x="500" y="294" on="1"/>
        <pt x="550" y="187" on="1"/>
        <pt x="518" y="165" on="0"/>
        <pt x="447" y="143" on="0"/>
      </contour>
      <contour>
        <pt x="395" y="56" on="1"/>
        <pt x="456" y="56" on="0"/>
        <pt x="563" y="101" on="0"/>
        <pt x="643" y="182" on="0"/>
        <pt x="689" y="289" on="0"/>
        <pt x="689" y="350" on="1"/>
        <pt x="689" y="412" on="0"/>
        <pt x="643" y="519" on="0"/>
        <pt x="563" y="599" on="0"/>
        <pt x="456" y="644" on="0"/>
        <pt x="395" y="644" on="1"/>
        <pt x="333" y="644" on="0"/>
        <pt x="226" y="599" on="0"/>
        <pt x="146" y="519" on="0"/>
        <pt x="100" y="412" on="0"/>
        <pt x="100" y="350" on="1"/>
        <pt x="100" y="289" on="0"/>
        <pt x="146" y="182" on="0"/>
        <pt x="226" y="101" on="0"/>
        <pt x="333" y="56" on="0"/>
      </contour>
    </TTGlyph>
    <TTGlyph name="currency" xMin="28" yMin="60" xMax="534" yMax="555">
      <contour>
        <pt x="282" y="109" on="1" overlap="1"/>
        <pt x="223" y="109" on="0"/>
        <pt x="128" y="160" on="0"/>
        <pt x="73" y="249" on="0"/>
        <pt x="73" y="305" on="1"/>
        <pt x="73" y="362" on="0"/>
        <pt x="128" y="451" on="0"/>
        <pt x="223" y="502" on="0"/>
        <pt x="282" y="502" on="1"/>
        <pt x="341" y="502" on="0"/>
        <pt x="435" y="450" on="0"/>
        <pt x="489" y="361" on="0"/>
        <pt x="489" y="305" on="1"/>
        <pt x="489" y="249" on="0"/>
        <pt x="435" y="160" on="0"/>
        <pt x="341" y="109" on="0"/>
      </contour>
      <contour>
        <pt x="131" y="60" on="1"/>
        <pt x="32" y="159" on="1"/>
        <pt x="118" y="249" on="1"/>
        <pt x="216" y="147" on="1"/>
      </contour>
      <contour>
        <pt x="112" y="370" on="1"/>
        <pt x="28" y="452" on="1"/>
        <pt x="127" y="551" on="1"/>
        <pt x="213" y="467" on="1"/>
      </contour>
      <contour>
        <pt x="282" y="227" on="1"/>
        <pt x="303" y="227" on="0"/>
        <pt x="336" y="247" on="0"/>
        <pt x="354" y="282" on="0"/>
        <pt x="354" y="305" on="1"/>
        <pt x="354" y="329" on="0"/>
        <pt x="336" y="365" on="0"/>
        <pt x="303" y="385" on="0"/>
        <pt x="282" y="385" on="1"/>
        <pt x="261" y="385" on="0"/>
        <pt x="228" y="365" on="0"/>
        <pt x="209" y="329" on="0"/>
        <pt x="209" y="305" on="1"/>
        <pt x="209" y="282" on="0"/>
        <pt x="228" y="247" on="0"/>
        <pt x="261" y="227" on="0"/>
      </contour>
      <contour>
        <pt x="435" y="64" on="1"/>
        <pt x="347" y="149" on="1"/>
        <pt x="444" y="249" on="1"/>
        <pt x="534" y="163" on="1"/>
      </contour>
      <contour>
        <pt x="443" y="362" on="1"/>
        <pt x="344" y="460" on="1"/>
        <pt x="435" y="555" on="1"/>
        <pt x="534" y="456" on="1"/>
      </contour>
    </TTGlyph>
    <TTGlyph name="d" xMin="34" yMin="-11" xMax="590" yMax="740">
      <contour>
        <pt x="272" y="-11" on="1" overlap="1"/>
        <pt x="203" y="-11" on="0"/>
        <pt x="96" y="60" on="0"/>
        <pt x="34" y="185" on="0"/>
        <pt x="34" y="265" on="1"/>
        <pt x="34" y="345" on="0"/>
        <pt x="96" y="470" on="0"/>
        <pt x="204" y="542" on="0"/>
        <pt x="274" y="542" on="1"/>
        <pt x="310" y="542" on="0"/>
        <pt x="376" y="520" on="0"/>
        <pt x="430" y="482" on="0"/>
        <pt x="464" y="433" on="0"/>
        <pt x="467" y="407" on="1"/>
        <pt x="429" y="398" on="1"/>
        <pt x="429" y="740" on="1"/>
        <pt x="590" y="740" on="1"/>
        <pt x="590" y="0" on="1"/>
        <pt x="441" y="0" on="1"/>
        <pt x="432" y="121" on="1"/>
        <pt x="464" y="116" on="1"/>
        <pt x="461" y="91" on="0"/>
        <pt x="428" y="45" on="0"/>
        <pt x="376" y="10" on="0"/>
        <pt x="309" y="-11" on="0"/>
      </contour>
      <contour>
        <pt x="313" y="122" on="1"/>
        <pt x="350" y="122" on="0"/>
        <pt x="404" y="158" on="0"/>
        <pt x="433" y="222" on="0"/>
        <pt x="433" y="265" on="1"/>
        <pt x="433" y="309" on="0"/>
        <pt x="404" y="373" on="0"/>
        <pt x="350" y="409" on="0"/>
        <pt x="313" y="409" on="1"/>
        <pt x="276" y="409" on="0"/>
        <pt x="223" y="373" on="0"/>
        <pt x="193" y="309" on="0"/>
        <pt x="193" y="265" on="1"/>
        <pt x="193" y="222" on="0"/>
        <pt x="223" y="158" on="0"/>
        <pt x="276" y="122" on="0"/>
      </contour>
    </TTGlyph>
    <TTGlyph name="dagger" xMin="40" yMin="205" xMax="400" yMax="721">
      <contour>
        <pt x="142" y="205" on="1" overlap="1"/>
        <pt x="142" y="721" on="1"/>
        <pt x="298" y="721" on="1"/>
        <pt x="298" y="205" on="1"/>
      </contour>
      <contour>
        <pt x="40" y="446" on="1"/>
        <pt x="40" y="579" on="1"/>
        <pt x="400" y="579" on="1"/>
        <pt x="400" y="446" on="1"/>
      </contour>
    </TTGlyph>
    <TTGlyph name="daggerdbl" xMin="40" yMin="174" xMax="385" yMax="724">
      <contour>
        <pt x="135" y="174" on="1" overlap="1"/>
        <pt x="135" y="724" on="1"/>
        <pt x="291" y="724" on="1"/>
        <pt x="291" y="174" on="1"/>
      </contour>
      <contour>
        <pt x="40" y="325" on="1"/>
        <pt x="40" y="446" on="1"/>
        <pt x="385" y="446" on="1"/>
        <pt x="385" y="325" on="1"/>
      </contour>
      <contour>
        <pt x="40" y="501" on="1"/>
        <pt x="40" y="622" on="1"/>
        <pt x="385" y="622" on="1"/>
        <pt x="385" y="501" on="1"/>
      </contour>
    </TTGlyph>
    <TTGlyph name="dcaron" xMin="34" yMin="-11" xMax="836" yMax="740">
      <component glyphName="d" x="0" y="0" flags="0x404"/>
      <component glyphName="uni030C.alt" x="491" y="48" flags="0x4"/>
    </TTGlyph>
    <TTGlyph name="dcroat" xMin="34" yMin="-11" xMax="643" yMax="740">
      <contour>
        <pt x="317" y="575" on="1" overlap="1"/>
        <pt x="317" y="693" on="1"/>
        <pt x="643" y="693" on="1"/>
        <pt x="643" y="575" on="1"/>
      </contour>
      <contour>
        <pt x="272" y="-11" on="1"/>
        <pt x="203" y="-11" on="0"/>
        <pt x="96" y="60" on="0"/>
        <pt x="34" y="185" on="0"/>
        <pt x="34" y="265" on="1"/>
        <pt x="34" y="345" on="0"/>
        <pt x="96" y="470" on="0"/>
        <pt x="204" y="542" on="0"/>
        <pt x="274" y="542" on="1"/>
        <pt x="310" y="542" on="0"/>
        <pt x="376" y="520" on="0"/>
        <pt x="430" y="482" on="0"/>
        <pt x="464" y="433" on="0"/>
        <pt x="467" y="407" on="1"/>
        <pt x="429" y="398" on="1"/>
        <pt x="429" y="740" on="1"/>
        <pt x="590" y="740" on="1"/>
        <pt x="590" y="0" on="1"/>
        <pt x="441" y="0" on="1"/>
        <pt x="432" y="121" on="1"/>
        <pt x="464" y="116" on="1"/>
        <pt x="461" y="91" on="0"/>
        <pt x="428" y="45" on="0"/>
        <pt x="376" y="10" on="0"/>
        <pt x="309" y="-11" on="0"/>
      </contour>
      <contour>
        <pt x="313" y="122" on="1"/>
        <pt x="350" y="122" on="0"/>
        <pt x="404" y="158" on="0"/>
        <pt x="433" y="222" on="0"/>
        <pt x="433" y="265" on="1"/>
        <pt x="433" y="309" on="0"/>
        <pt x="404" y="373" on="0"/>
        <pt x="350" y="409" on="0"/>
        <pt x="313" y="409" on="1"/>
        <pt x="276" y="409" on="0"/>
        <pt x="223" y="373" on="0"/>
        <pt x="193" y="309" on="0"/>
        <pt x="193" y="265" on="1"/>
        <pt x="193" y="222" on="0"/>
        <pt x="223" y="158" on="0"/>
        <pt x="276" y="122" on="0"/>
      </contour>
    </TTGlyph>
    <TTGlyph name="degree" xMin="99" yMin="393" xMax="433" yMax="715">
      <contour>
        <pt x="266" y="393" on="1" overlap="1"/>
        <pt x="219" y="393" on="0"/>
        <pt x="143" y="436" on="0"/>
        <pt x="99" y="509" on="0"/>
        <pt x="99" y="553" on="1"/>
        <pt x="99" y="599" on="0"/>
        <pt x="142" y="672" on="0"/>
        <pt x="218" y="715" on="0"/>
        <pt x="266" y="715" on="1"/>
        <pt x="314" y="715" on="0"/>
        <pt x="390" y="672" on="0"/>
        <pt x="433" y="599" on="0"/>
        <pt x="433" y="554" on="1"/>
        <pt x="433" y="509" on="0"/>
        <pt x="389" y="436" on="0"/>
        <pt x="313" y="393" on="0"/>
      </contour>
      <contour>
        <pt x="266" y="489" on="1"/>
        <pt x="283" y="489" on="0"/>
        <pt x="310" y="507" on="0"/>
        <pt x="326" y="536" on="0"/>
        <pt x="326" y="554" on="1"/>
        <pt x="326" y="572" on="0"/>
        <pt x="310" y="601" on="0"/>
        <pt x="283" y="618" on="0"/>
        <pt x="266" y="618" on="1"/>
        <pt x="249" y="618" on="0"/>
        <pt x="221" y="601" on="0"/>
        <pt x="206" y="571" on="0"/>
        <pt x="206" y="553" on="1"/>
        <pt x="206" y="535" on="0"/>
        <pt x="222" y="506" on="0"/>
        <pt x="249" y="489" on="0"/>
      </contour>
    </TTGlyph>
    <TTGlyph name="dieresis" xMin="43" yMin="626" xMax="457" yMax="796">
      <component glyphName="uni0308" x="0" y="0" flags="0x404"/>
    </TTGlyph>
    <TTGlyph name="divide" xMin="43" yMin="-23" xMax="554" yMax="551">
      <contour>
        <pt x="43" y="199" on="1" overlap="1"/>
        <pt x="43" y="330" on="1"/>
        <pt x="554" y="330" on="1"/>
        <pt x="554" y="199" on="1"/>
      </contour>
      <contour>
        <pt x="296" y="-23" on="1"/>
        <pt x="269" y="-23" on="0"/>
        <pt x="228" y="-3" on="0"/>
        <pt x="206" y="36" on="0"/>
        <pt x="206" y="62" on="1"/>
        <pt x="206" y="86" on="0"/>
        <pt x="229" y="125" on="0"/>
        <pt x="269" y="147" on="0"/>
        <pt x="296" y="147" on="1"/>
        <pt x="324" y="147" on="0"/>
        <pt x="365" y="126" on="0"/>
        <pt x="387" y="88" on="0"/>
        <pt x="387" y="62" on="1"/>
        <pt x="387" y="37" on="0"/>
        <pt x="364" y="-1" on="0"/>
        <pt x="324" y="-23" on="0"/>
      </contour>
      <contour>
        <pt x="296" y="381" on="1"/>
        <pt x="269" y="381" on="0"/>
        <pt x="228" y="402" on="0"/>
        <pt x="206" y="440" on="0"/>
        <pt x="206" y="466" on="1"/>
        <pt x="206" y="490" on="0"/>
        <pt x="229" y="529" on="0"/>
        <pt x="269" y="551" on="0"/>
        <pt x="296" y="551" on="1"/>
        <pt x="324" y="551" on="0"/>
        <pt x="365" y="531" on="0"/>
        <pt x="387" y="492" on="0"/>
        <pt x="387" y="466" on="1"/>
        <pt x="387" y="442" on="0"/>
        <pt x="364" y="404" on="0"/>
        <pt x="323" y="381" on="0"/>
      </contour>
    </TTGlyph>
    <TTGlyph name="dollar" xMin="28" yMin="-91" xMax="594" yMax="788">
      <contour>
        <pt x="320" y="-10" on="1" overlap="1"/>
        <pt x="222" y="-10" on="0"/>
        <pt x="79" y="51" on="0"/>
        <pt x="28" y="109" on="1"/>
        <pt x="108" y="239" on="1"/>
        <pt x="164" y="181" on="0"/>
        <pt x="270" y="133" on="0"/>
        <pt x="328" y="133" on="1"/>
        <pt x="355" y="133" on="0"/>
        <pt x="399" y="147" on="0"/>
        <pt x="423" y="174" on="0"/>
        <pt x="423" y="194" on="1"/>
        <pt x="423" y="209" on="0"/>
        <pt x="408" y="233" on="0"/>
        <pt x="382" y="251" on="0"/>
        <pt x="346" y="266" on="0"/>
        <pt x="306" y="277" on="0"/>
        <pt x="285" y="281" on="1"/>
        <pt x="207" y="298" on="0"/>
        <pt x="106" y="356" on="0"/>
        <pt x="56" y="443" on="0"/>
        <pt x="56" y="502" on="1"/>
        <pt x="56" y="549" on="0"/>
        <pt x="99" y="628" on="0"/>
        <pt x="172" y="685" on="0"/>
        <pt x="268" y="716" on="0"/>
        <pt x="320" y="716" on="1"/>
        <pt x="405" y="716" on="0"/>
        <pt x="539" y="664" on="0"/>
        <pt x="592" y="609" on="1"/>
        <pt x="520" y="491" on="1"/>
        <pt x="480" y="532" on="0"/>
        <pt x="380" y="572" on="0"/>
        <pt x="325" y="572" on="1"/>
        <pt x="295" y="572" on="0"/>
        <pt x="252" y="557" on="0"/>
        <pt x="228" y="530" on="0"/>
        <pt x="228" y="511" on="1"/>
        <pt x="228" y="494" on="0"/>
        <pt x="248" y="470" on="0"/>
        <pt x="282" y="451" on="0"/>
        <pt x="326" y="438" on="0"/>
        <pt x="350" y="434" on="1"/>
        <pt x="405" y="423" on="0"/>
        <pt x="494" y="387" on="0"/>
        <pt x="559" y="335" on="0"/>
        <pt x="594" y="264" on="0"/>
        <pt x="594" y="217" on="1"/>
        <pt x="594" y="144" on="0"/>
        <pt x="523" y="43" on="0"/>
        <pt x="400" y="-10" on="0"/>
      </contour>
      <contour>
        <pt x="260" y="-91" on="1"/>
        <pt x="271" y="374" on="1"/>
        <pt x="352" y="341" on="1"/>
        <pt x="363" y="-91" on="1"/>
      </contour>
      <contour>
        <pt x="377" y="340" on="1"/>
        <pt x="296" y="373" on="1"/>
        <pt x="285" y="788" on="1"/>
        <pt x="388" y="788" on="1"/>
      </contour>
    </TTGlyph>
    <TTGlyph name="dong" xMin="40" yMin="-11" xMax="512" yMax="708">
      <contour>
        <pt x="202" y="146" on="1" overlap="1"/>
        <pt x="160" y="146" on="0"/>
        <pt x="85" y="195" on="0"/>
        <pt x="40" y="277" on="0"/>
        <pt x="40" y="327" on="1"/>
        <pt x="40" y="374" on="0"/>
        <pt x="85" y="452" on="0"/>
        <pt x="161" y="497" on="0"/>
        <pt x="206" y="497" on="1"/>
        <pt x="239" y="497" on="0"/>
        <pt x="293" y="471" on="0"/>
        <pt x="330" y="422" on="0"/>
        <pt x="336" y="388" on="1"/>
        <pt x="301" y="404" on="1"/>
        <pt x="301" y="708" on="1"/>
        <pt x="444" y="708" on="1"/>
        <pt x="444" y="156" on="1"/>
        <pt x="301" y="156" on="1"/>
        <pt x="301" y="266" on="1"/>
        <pt x="335" y="256" on="1"/>
        <pt x="335" y="231" on="0"/>
        <pt x="298" y="180" on="0"/>
        <pt x="237" y="146" on="0"/>
      </contour>
      <contour>
        <pt x="47" y="-11" on="1"/>
        <pt x="47" y="91" on="1"/>
        <pt x="470" y="91" on="1"/>
        <pt x="470" y="-11" on="1"/>
      </contour>
      <contour>
        <pt x="245" y="259" on="1"/>
        <pt x="262" y="259" on="0"/>
        <pt x="290" y="278" on="0"/>
        <pt x="306" y="309" on="0"/>
        <pt x="306" y="327" on="1"/>
        <pt x="306" y="346" on="0"/>
        <pt x="290" y="378" on="0"/>
        <pt x="262" y="396" on="0"/>
        <pt x="245" y="396" on="1"/>
        <pt x="227" y="396" on="0"/>
        <pt x="200" y="378" on="0"/>
        <pt x="185" y="347" on="0"/>
        <pt x="185" y="327" on="1"/>
        <pt x="185" y="307" on="0"/>
        <pt x="200" y="277" on="0"/>
        <pt x="227" y="259" on="0"/>
      </contour>
      <contour>
        <pt x="214" y="539" on="1"/>
        <pt x="214" y="634" on="1"/>
        <pt x="512" y="634" on="1"/>
        <pt x="512" y="539" on="1"/>
      </contour>
    </TTGlyph>
    <TTGlyph name="dotaccent" xMin="155" yMin="630" xMax="345" yMax="796">
      <component glyphName="uni0307" x="0" y="0" flags="0x404"/>
    </TTGlyph>
    <TTGlyph name="dotbelowcomb" xMin="152" yMin="-224" xMax="348" yMax="-54">
      <contour>
        <pt x="250" y="-224" on="1" overlap="1"/>
        <pt x="204" y="-224" on="0"/>
        <pt x="152" y="-179" on="0"/>
        <pt x="152" y="-139" on="1"/>
        <pt x="152" y="-101" on="0"/>
        <pt x="205" y="-54" on="0"/>
        <pt x="250" y="-54" on="1"/>
        <pt x="296" y="-54" on="0"/>
        <pt x="348" y="-98" on="0"/>
        <pt x="348" y="-139" on="1"/>
        <pt x="348" y="-176" on="0"/>
        <pt x="295" y="-224" on="0"/>
      </contour>
    </TTGlyph>
    <TTGlyph name="dotlessi" xMin="64" yMin="0" xMax="225" yMax="531">
      <contour>
        <pt x="64" y="0" on="1" overlap="1"/>
        <pt x="64" y="531" on="1"/>
        <pt x="225" y="531" on="1"/>
        <pt x="225" y="0" on="1"/>
      </contour>
    </TTGlyph>
    <TTGlyph name="e" xMin="34" yMin="-10" xMax="557" yMax="542">
      <contour>
        <pt x="324" y="-10" on="1" overlap="1"/>
        <pt x="236" y="-10" on="0"/>
        <pt x="106" y="61" on="0"/>
        <pt x="34" y="184" on="0"/>
        <pt x="34" y="263" on="1"/>
        <pt x="34" y="324" on="0"/>
        <pt x="74" y="426" on="0"/>
        <pt x="146" y="501" on="0"/>
        <pt x="245" y="542" on="0"/>
        <pt x="304" y="542" on="1"/>
        <pt x="360" y="542" on="0"/>
        <pt x="453" y="502" on="0"/>
        <pt x="521" y="430" on="0"/>
        <pt x="557" y="332" on="0"/>
        <pt x="555" y="274" on="1"/>
        <pt x="554" y="231" on="1"/>
        <pt x="131" y="231" on="1"/>
        <pt x="108" y="321" on="1"/>
        <pt x="424" y="321" on="1"/>
        <pt x="407" y="302" on="1"/>
        <pt x="407" y="322" on="1"/>
        <pt x="405" y="347" on="0"/>
        <pt x="378" y="386" on="0"/>
        <pt x="334" y="408" on="0"/>
        <pt x="306" y="408" on="1"/>
        <pt x="267" y="408" on="0"/>
        <pt x="212" y="377" on="0"/>
        <pt x="184" y="318" on="0"/>
        <pt x="184" y="275" on="1"/>
        <pt x="184" y="231" on="0"/>
        <pt x="221" y="166" on="0"/>
        <pt x="292" y="130" on="0"/>
        <pt x="341" y="130" on="1"/>
        <pt x="375" y="130" on="0"/>
        <pt x="428" y="150" on="0"/>
        <pt x="459" y="174" on="1"/>
        <pt x="534" y="68" on="1"/>
        <pt x="503" y="41" on="0"/>
        <pt x="433" y="7" on="0"/>
        <pt x="360" y="-10" on="0"/>
      </contour>
    </TTGlyph>
    <TTGlyph name="eacute" xMin="34" yMin="-10" xMax="557" yMax="804">
      <component glyphName="e" x="0" y="0" flags="0x604"/>
      <component glyphName="acutecomb" x="54" y="6" flags="0x4"/>
    </TTGlyph>
    <TTGlyph name="ebreve" xMin="34" yMin="-10" xMax="557" yMax="773">
      <component glyphName="e" x="0" y="0" flags="0x604"/>
      <component glyphName="uni0306" x="54" y="6" flags="0x4"/>
    </TTGlyph>
    <TTGlyph name="ecaron" xMin="34" yMin="-10" xMax="557" yMax="786">
      <component glyphName="e" x="0" y="0" flags="0x604"/>
      <component glyphName="uni030C" x="54" y="6" flags="0x4"/>
    </TTGlyph>
    <TTGlyph name="ecircumflex" xMin="34" yMin="-10" xMax="557" yMax="780">
      <component glyphName="e" x="0" y="0" flags="0x604"/>
      <component glyphName="uni0302" x="54" y="6" flags="0x4"/>
    </TTGlyph>
    <TTGlyph name="edieresis" xMin="34" yMin="-10" xMax="557" yMax="802">
      <component glyphName="e" x="0" y="0" flags="0x604"/>
      <component glyphName="uni0308" x="53" y="6" flags="0x4"/>
    </TTGlyph>
    <TTGlyph name="edotaccent" xMin="34" yMin="-10" xMax="557" yMax="802">
      <component glyphName="e" x="0" y="0" flags="0x604"/>
      <component glyphName="uni0307" x="54" y="6" flags="0x4"/>
    </TTGlyph>
    <TTGlyph name="egrave" xMin="34" yMin="-10" xMax="557" yMax="804">
      <component glyphName="e" x="0" y="0" flags="0x604"/>
      <component glyphName="gravecomb" x="34" y="6" flags="0x4"/>
    </TTGlyph>
    <TTGlyph name="eight" xMin="40" yMin="-3" xMax="559" yMax="711">
      <contour>
        <pt x="299" y="-3" on="1" overlap="1"/>
        <pt x="227" y="-3" on="0"/>
        <pt x="110" y="52" on="0"/>
        <pt x="40" y="146" on="0"/>
        <pt x="40" y="205" on="1"/>
        <pt x="40" y="244" on="0"/>
        <pt x="60" y="307" on="0"/>
        <pt x="101" y="356" on="0"/>
        <pt x="160" y="391" on="0"/>
        <pt x="198" y="402" on="1"/>
        <pt x="186" y="362" on="1"/>
        <pt x="158" y="373" on="0"/>
        <pt x="112" y="405" on="0"/>
        <pt x="80" y="446" on="0"/>
        <pt x="63" y="494" on="0"/>
        <pt x="63" y="520" on="1"/>
        <pt x="63" y="576" on="0"/>
        <pt x="126" y="662" on="0"/>
        <pt x="233" y="711" on="0"/>
        <pt x="299" y="711" on="1"/>
        <pt x="364" y="711" on="0"/>
        <pt x="471" y="662" on="0"/>
        <pt x="535" y="576" on="0"/>
        <pt x="535" y="520" on="1"/>
        <pt x="535" y="494" on="0"/>
        <pt x="519" y="446" on="0"/>
        <pt x="487" y="407" on="0"/>
        <pt x="441" y="374" on="0"/>
        <pt x="411" y="362" on="1"/>
        <pt x="402" y="398" on="1"/>
        <pt x="436" y="389" on="0"/>
        <pt x="494" y="356" on="0"/>
        <pt x="536" y="307" on="0"/>
        <pt x="559" y="244" on="0"/>
        <pt x="559" y="205" on="1"/>
        <pt x="559" y="145" on="0"/>
        <pt x="489" y="51" on="0"/>
        <pt x="371" y="-3" on="0"/>
      </contour>
      <contour>
        <pt x="299" y="131" on="1"/>
        <pt x="327" y="131" on="0"/>
        <pt x="371" y="153" on="0"/>
        <pt x="397" y="191" on="0"/>
        <pt x="397" y="216" on="1"/>
        <pt x="397" y="242" on="0"/>
        <pt x="372" y="281" on="0"/>
        <pt x="327" y="304" on="0"/>
        <pt x="299" y="304" on="1"/>
        <pt x="271" y="304" on="0"/>
        <pt x="227" y="281" on="0"/>
        <pt x="201" y="242" on="0"/>
        <pt x="201" y="216" on="1"/>
        <pt x="201" y="192" on="0"/>
        <pt x="227" y="154" on="0"/>
        <pt x="271" y="131" on="0"/>
      </contour>
      <contour>
        <pt x="299" y="439" on="1"/>
        <pt x="323" y="439" on="0"/>
        <pt x="362" y="458" on="0"/>
        <pt x="384" y="491" on="0"/>
        <pt x="384" y="513" on="1"/>
        <pt x="384" y="535" on="0"/>
        <pt x="362" y="569" on="0"/>
        <pt x="323" y="589" on="0"/>
        <pt x="299" y="589" on="1"/>
        <pt x="274" y="589" on="0"/>
        <pt x="235" y="569" on="0"/>
        <pt x="213" y="535" on="0"/>
        <pt x="213" y="513" on="1"/>
        <pt x="213" y="491" on="0"/>
        <pt x="235" y="458" on="0"/>
        <pt x="274" y="439" on="0"/>
      </contour>
    </TTGlyph>
    <TTGlyph name="eight.dnom" xMin="42" yMin="-11" xMax="342" yMax="376">
      <contour>
        <pt x="193" y="-11" on="1" overlap="1"/>
        <pt x="151" y="-11" on="0"/>
        <pt x="83" y="20" on="0"/>
        <pt x="42" y="71" on="0"/>
        <pt x="42" y="102" on="1"/>
        <pt x="42" y="138" on="0"/>
        <pt x="85" y="186" on="0"/>
        <pt x="127" y="198" on="1"/>
        <pt x="124" y="180" on="1"/>
        <pt x="91" y="192" on="0"/>
        <pt x="52" y="236" on="0"/>
        <pt x="52" y="268" on="1"/>
        <pt x="52" y="298" on="0"/>
        <pt x="89" y="347" on="0"/>
        <pt x="152" y="376" on="0"/>
        <pt x="193" y="376" on="1"/>
        <pt x="232" y="376" on="0"/>
        <pt x="296" y="347" on="0"/>
        <pt x="333" y="298" on="0"/>
        <pt x="333" y="268" on="1"/>
        <pt x="333" y="247" on="0"/>
        <pt x="316" y="215" on="0"/>
        <pt x="284" y="190" on="0"/>
        <pt x="261" y="180" on="1"/>
        <pt x="260" y="198" on="1"/>
        <pt x="297" y="188" on="0"/>
        <pt x="342" y="138" on="0"/>
        <pt x="342" y="102" on="1"/>
        <pt x="342" y="71" on="0"/>
        <pt x="302" y="20" on="0"/>
        <pt x="234" y="-11" on="0"/>
      </contour>
      <contour>
        <pt x="193" y="66" on="1"/>
        <pt x="213" y="66" on="0"/>
        <pt x="242" y="92" on="0"/>
        <pt x="242" y="112" on="1"/>
        <pt x="242" y="130" on="0"/>
        <pt x="213" y="156" on="0"/>
        <pt x="193" y="156" on="1"/>
        <pt x="172" y="156" on="0"/>
        <pt x="143" y="130" on="0"/>
        <pt x="143" y="112" on="1"/>
        <pt x="143" y="92" on="0"/>
        <pt x="172" y="66" on="0"/>
      </contour>
      <contour>
        <pt x="193" y="226" on="1"/>
        <pt x="211" y="226" on="0"/>
        <pt x="236" y="247" on="0"/>
        <pt x="236" y="263" on="1"/>
        <pt x="236" y="280" on="0"/>
        <pt x="211" y="303" on="0"/>
        <pt x="193" y="303" on="1"/>
        <pt x="174" y="303" on="0"/>
        <pt x="150" y="281" on="0"/>
        <pt x="150" y="263" on="1"/>
        <pt x="150" y="247" on="0"/>
        <pt x="175" y="226" on="0"/>
      </contour>
    </TTGlyph>
    <TTGlyph name="eight.numr" xMin="42" yMin="341" xMax="342" yMax="728">
      <component glyphName="eight.dnom" x="0" y="352" flags="0x604"/>
    </TTGlyph>
    <TTGlyph name="ellipsis" xMin="42" yMin="-11" xMax="695" yMax="168">
      <component glyphName="period" x="0" y="0" flags="0x404"/>
      <component glyphName="period" x="240" y="0" flags="0x4"/>
      <component glyphName="period" x="480" y="0" flags="0x4"/>
    </TTGlyph>
    <TTGlyph name="emacron" xMin="34" yMin="-10" xMax="557" yMax="741">
      <component glyphName="e" x="0" y="0" flags="0x604"/>
      <component glyphName="uni0304" x="54" y="6" flags="0x4"/>
    </TTGlyph>
    <TTGlyph name="emdash" xMin="57" yMin="220" xMax="876" yMax="357">
      <contour>
        <pt x="57" y="220" on="1" overlap="1"/>
        <pt x="57" y="357" on="1"/>
        <pt x="876" y="357" on="1"/>
        <pt x="876" y="220" on="1"/>
      </contour>
    </TTGlyph>
    <TTGlyph name="emdash.case" xMin="51" yMin="266" xMax="870" yMax="403">
      <component glyphName="emdash" x="-6" y="46" flags="0x604"/>
    </TTGlyph>
    <TTGlyph name="emptyset" xMin="34" yMin="-13" xMax="607" yMax="542">
      <contour>
        <pt x="98" y="-13" on="1" overlap="1"/>
        <pt x="34" y="53" on="1"/>
        <pt x="531" y="535" on="1"/>
        <pt x="592" y="469" on="1"/>
      </contour>
      <contour>
        <pt x="321" y="-10" on="1"/>
        <pt x="238" y="-10" on="0"/>
        <pt x="109" y="62" on="0"/>
        <pt x="34" y="186" on="0"/>
        <pt x="34" y="266" on="1"/>
        <pt x="34" y="346" on="0"/>
        <pt x="109" y="470" on="0"/>
        <pt x="238" y="542" on="0"/>
        <pt x="321" y="542" on="1"/>
        <pt x="404" y="542" on="0"/>
        <pt x="533" y="470" on="0"/>
        <pt x="607" y="346" on="0"/>
        <pt x="607" y="266" on="1"/>
        <pt x="607" y="186" on="0"/>
        <pt x="533" y="62" on="0"/>
        <pt x="404" y="-10" on="0"/>
      </contour>
      <contour>
        <pt x="321" y="128" on="1"/>
        <pt x="357" y="128" on="0"/>
        <pt x="413" y="164" on="0"/>
        <pt x="445" y="226" on="0"/>
        <pt x="444" y="266" on="1"/>
        <pt x="445" y="306" on="0"/>
        <pt x="413" y="369" on="0"/>
        <pt x="357" y="405" on="0"/>
        <pt x="321" y="405" on="1"/>
        <pt x="285" y="405" on="0"/>
        <pt x="228" y="369" on="0"/>
        <pt x="196" y="306" on="0"/>
        <pt x="197" y="266" on="1"/>
        <pt x="196" y="226" on="0"/>
        <pt x="228" y="164" on="0"/>
        <pt x="285" y="128" on="0"/>
      </contour>
    </TTGlyph>
    <TTGlyph name="endash" xMin="57" yMin="220" xMax="538" yMax="357">
      <contour>
        <pt x="57" y="220" on="1" overlap="1"/>
        <pt x="57" y="357" on="1"/>
        <pt x="538" y="357" on="1"/>
        <pt x="538" y="220" on="1"/>
      </contour>
    </TTGlyph>
    <TTGlyph name="endash.case" xMin="51" yMin="263" xMax="532" yMax="400">
      <component glyphName="endash" x="-6" y="43" flags="0x604"/>
    </TTGlyph>
    <TTGlyph name="eng" xMin="71" yMin="-203" xMax="572" yMax="542">
      <contour>
        <pt x="349" y="-203" on="1" overlap="1"/>
        <pt x="288" y="-78" on="1"/>
        <pt x="352" y="-78" on="0"/>
        <pt x="410" y="-21" on="0"/>
        <pt x="411" y="36" on="1"/>
        <pt x="411" y="313" on="1"/>
        <pt x="411" y="345" on="0"/>
        <pt x="393" y="387" on="0"/>
        <pt x="356" y="408" on="0"/>
        <pt x="329" y="407" on="1"/>
        <pt x="308" y="407" on="0"/>
        <pt x="272" y="394" on="0"/>
        <pt x="246" y="369" on="0"/>
        <pt x="231" y="337" on="0"/>
        <pt x="231" y="318" on="1"/>
        <pt x="231" y="0" on="1"/>
        <pt x="71" y="0" on="1"/>
        <pt x="71" y="531" on="1"/>
        <pt x="223" y="531" on="1"/>
        <pt x="226" y="465" on="1"/>
        <pt x="244" y="487" on="0"/>
        <pt x="295" y="522" on="0"/>
        <pt x="355" y="542" on="0"/>
        <pt x="388" y="542" on="1"/>
        <pt x="448" y="542" on="0"/>
        <pt x="530" y="493" on="0"/>
        <pt x="572" y="396" on="0"/>
        <pt x="572" y="326" on="1"/>
        <pt x="572" y="-10" on="1"/>
        <pt x="572" y="-74" on="0"/>
        <pt x="520" y="-159" on="0"/>
        <pt x="420" y="-203" on="0"/>
      </contour>
    </TTGlyph>
    <TTGlyph name="eogonek" xMin="34" yMin="-205" xMax="557" yMax="542">
      <contour>
        <pt x="383" y="-205" on="1" overlap="1"/>
        <pt x="329" y="-205" on="0"/>
        <pt x="268" y="-142" on="0"/>
        <pt x="268" y="-99" on="1"/>
        <pt x="268" y="-57" on="0"/>
        <pt x="320" y="7" on="0"/>
        <pt x="411" y="63" on="0"/>
        <pt x="471" y="90" on="1"/>
        <pt x="498" y="42" on="1"/>
        <pt x="440" y="10" on="0"/>
        <pt x="379" y="-41" on="0"/>
        <pt x="379" y="-69" on="1"/>
        <pt x="379" y="-84" on="0"/>
        <pt x="395" y="-102" on="0"/>
        <pt x="407" y="-102" on="1"/>
        <pt x="418" y="-102" on="0"/>
        <pt x="434" y="-90" on="0"/>
        <pt x="443" y="-78" on="1"/>
        <pt x="512" y="-129" on="1"/>
        <pt x="502" y="-147" on="0"/>
        <pt x="466" y="-182" on="0"/>
        <pt x="415" y="-205" on="0"/>
      </contour>
      <contour>
        <pt x="324" y="-10" on="1"/>
        <pt x="236" y="-10" on="0"/>
        <pt x="106" y="61" on="0"/>
        <pt x="34" y="184" on="0"/>
        <pt x="34" y="263" on="1"/>
        <pt x="34" y="324" on="0"/>
        <pt x="74" y="426" on="0"/>
        <pt x="146" y="501" on="0"/>
        <pt x="245" y="542" on="0"/>
        <pt x="304" y="542" on="1"/>
        <pt x="360" y="542" on="0"/>
        <pt x="453" y="502" on="0"/>
        <pt x="521" y="430" on="0"/>
        <pt x="557" y="332" on="0"/>
        <pt x="555" y="274" on="1"/>
        <pt x="554" y="231" on="1"/>
        <pt x="131" y="231" on="1"/>
        <pt x="108" y="321" on="1"/>
        <pt x="424" y="321" on="1"/>
        <pt x="407" y="302" on="1"/>
        <pt x="407" y="322" on="1"/>
        <pt x="405" y="347" on="0"/>
        <pt x="378" y="386" on="0"/>
        <pt x="334" y="408" on="0"/>
        <pt x="306" y="408" on="1"/>
        <pt x="267" y="408" on="0"/>
        <pt x="212" y="377" on="0"/>
        <pt x="184" y="318" on="0"/>
        <pt x="184" y="275" on="1"/>
        <pt x="184" y="231" on="0"/>
        <pt x="221" y="166" on="0"/>
        <pt x="292" y="130" on="0"/>
        <pt x="341" y="130" on="1"/>
        <pt x="375" y="130" on="0"/>
        <pt x="428" y="150" on="0"/>
        <pt x="459" y="174" on="1"/>
        <pt x="534" y="68" on="1"/>
        <pt x="503" y="41" on="0"/>
        <pt x="433" y="7" on="0"/>
        <pt x="360" y="-10" on="0"/>
      </contour>
    </TTGlyph>
    <TTGlyph name="equal" xMin="67" yMin="108" xMax="556" yMax="455">
      <contour>
        <pt x="67" y="325" on="1" overlap="1"/>
        <pt x="67" y="455" on="1"/>
        <pt x="556" y="455" on="1"/>
        <pt x="556" y="325" on="1"/>
      </contour>
      <contour>
        <pt x="67" y="108" on="1"/>
        <pt x="67" y="237" on="1"/>
        <pt x="556" y="237" on="1"/>
        <pt x="556" y="108" on="1"/>
      </contour>
    </TTGlyph>
    <TTGlyph name="estimated" xMin="59" yMin="-11" xMax="640" yMax="581">
      <contour>
        <pt x="357" y="-11" on="1" overlap="1"/>
        <pt x="270" y="-11" on="0"/>
        <pt x="134" y="66" on="0"/>
        <pt x="59" y="200" on="0"/>
        <pt x="59" y="285" on="1"/>
        <pt x="59" y="371" on="0"/>
        <pt x="133" y="505" on="0"/>
        <pt x="265" y="581" on="0"/>
        <pt x="352" y="581" on="1"/>
        <pt x="433" y="581" on="0"/>
        <pt x="559" y="513" on="0"/>
        <pt x="634" y="390" on="0"/>
        <pt x="639" y="309" on="1"/>
        <pt x="640" y="299" on="0"/>
        <pt x="627" y="285" on="0"/>
        <pt x="617" y="285" on="1"/>
        <pt x="209" y="285" on="1"/>
        <pt x="219" y="292" on="1"/>
        <pt x="219" y="113" on="1"/>
        <pt x="219" y="96" on="0"/>
        <pt x="244" y="66" on="0"/>
        <pt x="285" y="42" on="0"/>
        <pt x="337" y="28" on="0"/>
        <pt x="363" y="28" on="1"/>
        <pt x="432" y="28" on="0"/>
        <pt x="530" y="81" on="0"/>
        <pt x="567" y="139" on="1"/>
        <pt x="574" y="150" on="0"/>
        <pt x="584" y="150" on="1"/>
        <pt x="593" y="150" on="0"/>
        <pt x="606" y="139" on="0"/>
        <pt x="606" y="130" on="1"/>
        <pt x="606" y="127" on="0"/>
        <pt x="603" y="119" on="0"/>
        <pt x="600" y="115" on="1"/>
        <pt x="552" y="46" on="0"/>
        <pt x="440" y="-11" on="0"/>
      </contour>
      <contour>
        <pt x="219" y="314" on="1"/>
        <pt x="205" y="324" on="1"/>
        <pt x="501" y="324" on="1"/>
        <pt x="486" y="317" on="1"/>
        <pt x="486" y="444" on="1"/>
        <pt x="486" y="460" on="0"/>
        <pt x="469" y="494" on="0"/>
        <pt x="435" y="524" on="0"/>
        <pt x="385" y="543" on="0"/>
        <pt x="352" y="543" on="1"/>
        <pt x="309" y="543" on="0"/>
        <pt x="250" y="512" on="0"/>
        <pt x="219" y="466" on="0"/>
        <pt x="219" y="444" on="1"/>
      </contour>
    </TTGlyph>
    <TTGlyph name="eth" xMin="34" yMin="-7" xMax="563" yMax="746">
      <contour>
        <pt x="297" y="-7" on="1" overlap="1"/>
        <pt x="220" y="-7" on="0"/>
        <pt x="102" y="63" on="0"/>
        <pt x="34" y="182" on="0"/>
        <pt x="34" y="256" on="1"/>
        <pt x="34" y="309" on="0"/>
        <pt x="75" y="403" on="0"/>
        <pt x="146" y="476" on="0"/>
        <pt x="237" y="517" on="0"/>
        <pt x="286" y="517" on="1"/>
        <pt x="336" y="517" on="0"/>
        <pt x="416" y="475" on="0"/>
        <pt x="470" y="400" on="0"/>
        <pt x="479" y="348" on="1"/>
        <pt x="384" y="379" on="1"/>
        <pt x="382" y="423" on="0"/>
        <pt x="364" y="494" on="0"/>
        <pt x="332" y="551" on="0"/>
        <pt x="283" y="596" on="0"/>
        <pt x="214" y="631" on="0"/>
        <pt x="169" y="645" on="1"/>
        <pt x="217" y="746" on="1"/>
        <pt x="280" y="731" on="0"/>
        <pt x="387" y="674" on="0"/>
        <pt x="472" y="592" on="0"/>
        <pt x="531" y="487" on="0"/>
        <pt x="563" y="361" on="0"/>
        <pt x="563" y="288" on="1"/>
        <pt x="563" y="201" on="0"/>
        <pt x="496" y="68" on="0"/>
        <pt x="377" y="-7" on="0"/>
      </contour>
      <contour>
        <pt x="298" y="129" on="1"/>
        <pt x="331" y="129" on="0"/>
        <pt x="383" y="164" on="0"/>
        <pt x="414" y="224" on="0"/>
        <pt x="414" y="262" on="1"/>
        <pt x="414" y="298" on="0"/>
        <pt x="383" y="357" on="0"/>
        <pt x="331" y="392" on="0"/>
        <pt x="298" y="392" on="1"/>
        <pt x="266" y="392" on="0"/>
        <pt x="214" y="358" on="0"/>
        <pt x="183" y="299" on="0"/>
        <pt x="183" y="262" on="1"/>
        <pt x="183" y="224" on="0"/>
        <pt x="214" y="164" on="0"/>
        <pt x="266" y="129" on="0"/>
      </contour>
      <contour>
        <pt x="150" y="517" on="1"/>
        <pt x="137" y="582" on="1"/>
        <pt x="297" y="623" on="1"/>
        <pt x="354" y="650" on="1"/>
        <pt x="500" y="683" on="1"/>
        <pt x="518" y="617" on="1"/>
        <pt x="405" y="591" on="1"/>
        <pt x="362" y="567" on="1"/>
      </contour>
    </TTGlyph>
    <TTGlyph name="exclam" xMin="67" yMin="-11" xMax="240" yMax="711">
      <contour>
        <pt x="104" y="255" on="1" overlap="1"/>
        <pt x="96" y="316" on="0"/>
        <pt x="80" y="446" on="0"/>
        <pt x="70" y="574" on="0"/>
        <pt x="70" y="633" on="1"/>
        <pt x="70" y="711" on="1"/>
        <pt x="239" y="711" on="1"/>
        <pt x="239" y="633" on="1"/>
        <pt x="239" y="573" on="0"/>
        <pt x="229" y="443" on="0"/>
        <pt x="213" y="314" on="0"/>
        <pt x="204" y="255" on="1"/>
      </contour>
      <contour>
        <pt x="154" y="-11" on="1"/>
        <pt x="113" y="-11" on="0"/>
        <pt x="67" y="35" on="0"/>
        <pt x="67" y="78" on="1"/>
        <pt x="67" y="118" on="0"/>
        <pt x="115" y="168" on="0"/>
        <pt x="154" y="168" on="1"/>
        <pt x="195" y="168" on="0"/>
        <pt x="240" y="121" on="0"/>
        <pt x="240" y="78" on="1"/>
        <pt x="240" y="39" on="0"/>
        <pt x="192" y="-11" on="0"/>
      </contour>
    </TTGlyph>
    <TTGlyph name="exclamdown" xMin="66" yMin="-181" xMax="239" yMax="541">
      <contour>
        <pt x="202" y="275" on="1" overlap="1"/>
        <pt x="210" y="214" on="0"/>
        <pt x="226" y="85" on="0"/>
        <pt x="236" y="-44" on="0"/>
        <pt x="236" y="-103" on="1"/>
        <pt x="236" y="-181" on="1"/>
        <pt x="67" y="-181" on="1"/>
        <pt x="67" y="-103" on="1"/>
        <pt x="67" y="-43" on="0"/>
        <pt x="77" y="88" on="0"/>
        <pt x="94" y="216" on="0"/>
        <pt x="102" y="275" on="1"/>
      </contour>
      <contour>
        <pt x="152" y="541" on="1"/>
        <pt x="194" y="541" on="0"/>
        <pt x="239" y="495" on="0"/>
        <pt x="239" y="452" on="1"/>
        <pt x="239" y="412" on="0"/>
        <pt x="191" y="362" on="0"/>
        <pt x="152" y="362" on="1"/>
        <pt x="111" y="362" on="0"/>
        <pt x="66" y="409" on="0"/>
        <pt x="66" y="452" on="1"/>
        <pt x="66" y="491" on="0"/>
        <pt x="114" y="541" on="0"/>
      </contour>
    </TTGlyph>
    <TTGlyph name="f" xMin="27" yMin="0" xMax="411" yMax="742">
      <contour>
        <pt x="104" y="0" on="1" overlap="1"/>
        <pt x="104" y="557" on="1"/>
        <pt x="104" y="609" on="0"/>
        <pt x="149" y="693" on="0"/>
        <pt x="230" y="742" on="0"/>
        <pt x="284" y="742" on="1"/>
        <pt x="322" y="742" on="0"/>
        <pt x="386" y="720" on="0"/>
        <pt x="411" y="700" on="1"/>
        <pt x="365" y="583" on="1"/>
        <pt x="352" y="590" on="0"/>
        <pt x="328" y="598" on="0"/>
        <pt x="318" y="598" on="1"/>
        <pt x="300" y="598" on="0"/>
        <pt x="276" y="586" on="0"/>
        <pt x="265" y="561" on="0"/>
        <pt x="265" y="543" on="1"/>
        <pt x="265" y="0" on="1"/>
        <pt x="185" y="0" on="1"/>
        <pt x="158" y="0" on="0"/>
        <pt x="117" y="0" on="0"/>
      </contour>
      <contour>
        <pt x="27" y="384" on="1"/>
        <pt x="27" y="516" on="1"/>
        <pt x="374" y="516" on="1"/>
        <pt x="374" y="384" on="1"/>
      </contour>
    </TTGlyph>
    <TTGlyph name="f_f" xMin="27" yMin="0" xMax="804" yMax="742">
      <component glyphName="f" x="0" y="0" flags="0x404"/>
      <component glyphName="f" x="393" y="0" flags="0x4"/>
    </TTGlyph>
    <TTGlyph name="f_f_i" xMin="27" yMin="0" xMax="1041" yMax="801">
      <component glyphName="f" x="0" y="0" flags="0x404"/>
      <component glyphName="f" x="393" y="0" flags="0x4"/>
      <component glyphName="i" x="786" y="0" flags="0x4"/>
    </TTGlyph>
    <TTGlyph name="f_f_ij" xMin="27" yMin="-210" xMax="1365" yMax="801">
      <component glyphName="f" x="0" y="0" flags="0x404"/>
      <component glyphName="f" x="393" y="0" flags="0x4"/>
      <component glyphName="i" x="786" y="0" flags="0x4"/>
      <component glyphName="j" x="1105" y="0" flags="0x4"/>
    </TTGlyph>
    <TTGlyph name="f_f_l" xMin="27" yMin="0" xMax="1018" yMax="742">
      <component glyphName="f" x="0" y="0" flags="0x404"/>
      <component glyphName="f" x="393" y="0" flags="0x4"/>
      <component glyphName="l" x="786" y="0" flags="0x4"/>
    </TTGlyph>
    <TTGlyph name="f_ij" xMin="27" yMin="-210" xMax="972" yMax="801">
      <component glyphName="f" x="0" y="0" flags="0x404"/>
      <component glyphName="i" x="393" y="0" flags="0x4"/>
      <component glyphName="j" x="712" y="0" flags="0x4"/>
    </TTGlyph>
    <TTGlyph name="fi" xMin="27" yMin="0" xMax="648" yMax="801">
      <component glyphName="f" x="0" y="0" flags="0x404"/>
      <component glyphName="i" x="393" y="0" flags="0x4"/>
    </TTGlyph>
    <TTGlyph name="figuredash" xMin="51" yMin="220" xMax="532" yMax="357">
      <component glyphName="endash" x="-6" y="0" flags="0x604"/>
    </TTGlyph>
    <TTGlyph name="five" xMin="32" yMin="-7" xMax="545" yMax="706">
      <contour>
        <pt x="282" y="-7" on="1" overlap="1"/>
        <pt x="203" y="-7" on="0"/>
        <pt x="74" y="57" on="0"/>
        <pt x="32" y="117" on="1"/>
        <pt x="123" y="217" on="1"/>
        <pt x="164" y="172" on="0"/>
        <pt x="234" y="139" on="0"/>
        <pt x="277" y="139" on="1"/>
        <pt x="309" y="139" on="0"/>
        <pt x="359" y="165" on="0"/>
        <pt x="388" y="212" on="0"/>
        <pt x="388" y="241" on="1"/>
        <pt x="388" y="271" on="0"/>
        <pt x="359" y="318" on="0"/>
        <pt x="310" y="346" on="0"/>
        <pt x="278" y="346" on="1"/>
        <pt x="255" y="346" on="0"/>
        <pt x="215" y="338" on="0"/>
        <pt x="170" y="319" on="0"/>
        <pt x="139" y="301" on="1"/>
        <pt x="67" y="397" on="1"/>
        <pt x="110" y="706" on="1"/>
        <pt x="512" y="706" on="1"/>
        <pt x="512" y="563" on="1"/>
        <pt x="191" y="563" on="1"/>
        <pt x="235" y="619" on="1"/>
        <pt x="202" y="397" on="1"/>
        <pt x="142" y="417" on="1"/>
        <pt x="161" y="434" on="0"/>
        <pt x="216" y="460" on="0"/>
        <pt x="280" y="477" on="0"/>
        <pt x="312" y="477" on="1"/>
        <pt x="378" y="477" on="0"/>
        <pt x="483" y="416" on="0"/>
        <pt x="545" y="308" on="0"/>
        <pt x="545" y="238" on="1"/>
        <pt x="545" y="169" on="0"/>
        <pt x="475" y="58" on="0"/>
        <pt x="357" y="-7" on="0"/>
      </contour>
    </TTGlyph>
    <TTGlyph name="five.dnom" xMin="33" yMin="-10" xMax="323" yMax="365">
      <contour>
        <pt x="159" y="-10" on="1" overlap="1"/>
        <pt x="129" y="-10" on="0"/>
        <pt x="56" y="13" on="0"/>
        <pt x="33" y="30" on="1"/>
        <pt x="81" y="108" on="1"/>
        <pt x="100" y="97" on="0"/>
        <pt x="141" y="84" on="0"/>
        <pt x="164" y="84" on="1"/>
        <pt x="187" y="84" on="0"/>
        <pt x="214" y="107" on="0"/>
        <pt x="214" y="125" on="1"/>
        <pt x="214" y="142" on="0"/>
        <pt x="188" y="165" on="0"/>
        <pt x="166" y="165" on="1"/>
        <pt x="148" y="165" on="0"/>
        <pt x="113" y="157" on="0"/>
        <pt x="92" y="144" on="1"/>
        <pt x="46" y="190" on="1"/>
        <pt x="73" y="365" on="1"/>
        <pt x="305" y="365" on="1"/>
        <pt x="305" y="274" on="1"/>
        <pt x="123" y="274" on="1"/>
        <pt x="168" y="317" on="1"/>
        <pt x="140" y="180" on="1"/>
        <pt x="112" y="200" on="1"/>
        <pt x="127" y="219" on="0"/>
        <pt x="169" y="234" on="0"/>
        <pt x="199" y="234" on="1"/>
        <pt x="234" y="234" on="0"/>
        <pt x="290" y="205" on="0"/>
        <pt x="323" y="154" on="0"/>
        <pt x="323" y="123" on="1"/>
        <pt x="323" y="83" on="0"/>
        <pt x="282" y="24" on="0"/>
        <pt x="208" y="-10" on="0"/>
      </contour>
    </TTGlyph>
    <TTGlyph name="five.numr" xMin="33" yMin="343" xMax="323" yMax="718">
      <component glyphName="five.dnom" x="0" y="353" flags="0x604"/>
    </TTGlyph>
    <TTGlyph name="fiveeighths" xMin="32" yMin="-11" xMax="848" yMax="718">
      <component glyphName="five.dnom" x="-1" y="353" flags="0x404"/>
      <component glyphName="fraction" x="137" y="0" flags="0x4"/>
      <component glyphName="eight.dnom" x="506" y="0" flags="0x4"/>
    </TTGlyph>
    <TTGlyph name="fl" xMin="27" yMin="0" xMax="625" yMax="742">
      <component glyphName="f" x="0" y="0" flags="0x404"/>
      <component glyphName="l" x="393" y="0" flags="0x4"/>
    </TTGlyph>
    <TTGlyph name="florin" xMin="-4" yMin="-31" xMax="560" yMax="699">
      <contour>
        <pt x="111" y="-31" on="1" overlap="1"/>
        <pt x="79" y="-31" on="0"/>
        <pt x="19" y="-15" on="0"/>
        <pt x="-4" y="1" on="1"/>
        <pt x="49" y="128" on="1"/>
        <pt x="65" y="120" on="0"/>
        <pt x="90" y="113" on="0"/>
        <pt x="107" y="113" on="1"/>
        <pt x="122" y="113" on="0"/>
        <pt x="144" y="130" on="0"/>
        <pt x="159" y="163" on="0"/>
        <pt x="164" y="188" on="1"/>
        <pt x="221" y="522" on="1"/>
        <pt x="236" y="613" on="0"/>
        <pt x="342" y="699" on="0"/>
        <pt x="429" y="699" on="1"/>
        <pt x="466" y="699" on="0"/>
        <pt x="530" y="681" on="0"/>
        <pt x="560" y="662" on="1"/>
        <pt x="506" y="537" on="1"/>
        <pt x="488" y="548" on="0"/>
        <pt x="460" y="556" on="0"/>
        <pt x="445" y="556" on="1"/>
        <pt x="415" y="556" on="0"/>
        <pt x="385" y="522" on="0"/>
        <pt x="379" y="490" on="1"/>
        <pt x="321" y="155" on="1"/>
        <pt x="304" y="60" on="0"/>
        <pt x="198" y="-31" on="0"/>
      </contour>
      <contour>
        <pt x="86" y="310" on="1"/>
        <pt x="86" y="439" on="1"/>
        <pt x="472" y="438" on="1"/>
        <pt x="472" y="309" on="1"/>
      </contour>
    </TTGlyph>
    <TTGlyph name="four" xMin="19" yMin="0" xMax="627" yMax="706">
      <contour>
        <pt x="349" y="0" on="1" overlap="1"/>
        <pt x="349" y="566" on="1"/>
        <pt x="440" y="564" on="1"/>
        <pt x="187" y="254" on="1"/>
        <pt x="163" y="284" on="1"/>
        <pt x="627" y="284" on="1"/>
        <pt x="627" y="144" on="1"/>
        <pt x="87" y="144" on="1"/>
        <pt x="19" y="275" on="1"/>
        <pt x="376" y="706" on="1"/>
        <pt x="513" y="706" on="1"/>
        <pt x="513" y="0" on="1"/>
      </contour>
    </TTGlyph>
    <TTGlyph name="four.dnom" xMin="25" yMin="-1" xMax="370" yMax="369">
      <contour>
        <pt x="296" y="159" on="1" overlap="1"/>
        <pt x="370" y="159" on="1"/>
        <pt x="370" y="69" on="1"/>
        <pt x="296" y="69" on="1"/>
      </contour>
      <contour>
        <pt x="111" y="125" on="1"/>
        <pt x="95" y="159" on="1"/>
        <pt x="242" y="159" on="1"/>
        <pt x="208" y="125" on="1"/>
        <pt x="208" y="283" on="1"/>
        <pt x="237" y="272" on="1"/>
      </contour>
      <contour>
        <pt x="312" y="-1" on="1"/>
        <pt x="191" y="-1" on="1"/>
        <pt x="191" y="103" on="1"/>
        <pt x="222" y="69" on="1"/>
        <pt x="45" y="69" on="1"/>
        <pt x="25" y="149" on="1"/>
        <pt x="206" y="369" on="1"/>
        <pt x="312" y="369" on="1"/>
      </contour>
    </TTGlyph>
    <TTGlyph name="four.numr" xMin="25" yMin="349" xMax="370" yMax="719">
      <component glyphName="four.dnom" x="0" y="350" flags="0x604"/>
    </TTGlyph>
    <TTGlyph name="fraction" xMin="-3" yMin="0" xMax="609" yMax="700">
      <contour>
        <pt x="-3" y="0" on="1" overlap="1"/>
        <pt x="464" y="700" on="1"/>
        <pt x="609" y="700" on="1"/>
        <pt x="141" y="0" on="1"/>
      </contour>
    </TTGlyph>
    <TTGlyph name="franc" xMin="31" yMin="0" xMax="570" yMax="700">
      <contour>
        <pt x="31" y="86" on="1" overlap="1"/>
        <pt x="31" y="204" on="1"/>
        <pt x="357" y="204" on="1"/>
        <pt x="357" y="86" on="1"/>
      </contour>
      <contour>
        <pt x="88" y="0" on="1"/>
        <pt x="88" y="700" on="1"/>
        <pt x="258" y="700" on="1"/>
        <pt x="258" y="0" on="1"/>
      </contour>
      <contour>
        <pt x="167" y="268" on="1"/>
        <pt x="167" y="410" on="1"/>
        <pt x="529" y="410" on="1"/>
        <pt x="529" y="268" on="1"/>
      </contour>
      <contour>
        <pt x="167" y="550" on="1"/>
        <pt x="167" y="700" on="1"/>
        <pt x="570" y="700" on="1"/>
        <pt x="570" y="550" on="1"/>
      </contour>
    </TTGlyph>
    <TTGlyph name="g" xMin="34" yMin="-230" xMax="601" yMax="542">
      <contour>
        <pt x="314" y="-230" on="1" overlap="1"/>
        <pt x="249" y="-230" on="0"/>
        <pt x="120" y="-192" on="0"/>
        <pt x="80" y="-162" on="1"/>
        <pt x="136" y="-50" on="1"/>
        <pt x="157" y="-64" on="0"/>
        <pt x="208" y="-85" on="0"/>
        <pt x="264" y="-97" on="0"/>
        <pt x="293" y="-97" on="1"/>
        <pt x="344" y="-97" on="0"/>
        <pt x="408" y="-67" on="0"/>
        <pt x="440" y="-6" on="0"/>
        <pt x="440" y="40" on="1"/>
        <pt x="440" y="129" on="1"/>
        <pt x="471" y="124" on="1"/>
        <pt x="464" y="91" on="0"/>
        <pt x="409" y="37" on="0"/>
        <pt x="329" y="4" on="0"/>
        <pt x="284" y="4" on="1"/>
        <pt x="212" y="4" on="0"/>
        <pt x="99" y="71" on="0"/>
        <pt x="34" y="190" on="0"/>
        <pt x="34" y="268" on="1"/>
        <pt x="34" y="348" on="0"/>
        <pt x="98" y="471" on="0"/>
        <pt x="210" y="542" on="0"/>
        <pt x="280" y="542" on="1"/>
        <pt x="310" y="542" on="0"/>
        <pt x="365" y="528" on="0"/>
        <pt x="412" y="505" on="0"/>
        <pt x="449" y="474" on="0"/>
        <pt x="472" y="438" on="0"/>
        <pt x="476" y="419" on="1"/>
        <pt x="443" y="411" on="1"/>
        <pt x="449" y="531" on="1"/>
        <pt x="601" y="531" on="1"/>
        <pt x="601" y="43" on="1"/>
        <pt x="601" y="-22" on="0"/>
        <pt x="562" y="-123" on="0"/>
        <pt x="487" y="-194" on="0"/>
        <pt x="381" y="-230" on="0"/>
      </contour>
      <contour>
        <pt x="318" y="128" on="1"/>
        <pt x="357" y="128" on="0"/>
        <pt x="414" y="163" on="0"/>
        <pt x="445" y="225" on="0"/>
        <pt x="445" y="267" on="1"/>
        <pt x="445" y="309" on="0"/>
        <pt x="414" y="372" on="0"/>
        <pt x="357" y="407" on="0"/>
        <pt x="318" y="407" on="1"/>
        <pt x="280" y="407" on="0"/>
        <pt x="224" y="372" on="0"/>
        <pt x="193" y="309" on="0"/>
        <pt x="193" y="267" on="1"/>
        <pt x="193" y="225" on="0"/>
        <pt x="224" y="163" on="0"/>
        <pt x="280" y="128" on="0"/>
      </contour>
    </TTGlyph>
    <TTGlyph name="g.ss01" xMin="36" yMin="-234" xMax="571" yMax="540">
      <contour>
        <pt x="303" y="-234" on="1" overlap="1"/>
        <pt x="172" y="-234" on="0"/>
        <pt x="36" y="-140" on="0"/>
        <pt x="36" y="-61" on="1"/>
        <pt x="36" y="-32" on="0"/>
        <pt x="57" y="17" on="0"/>
        <pt x="102" y="57" on="0"/>
        <pt x="137" y="69" on="1"/>
        <pt x="135" y="61" on="1"/>
        <pt x="99" y="70" on="0"/>
        <pt x="60" y="115" on="0"/>
        <pt x="60" y="142" on="1"/>
        <pt x="60" y="165" on="0"/>
        <pt x="85" y="199" on="0"/>
        <pt x="129" y="222" on="0"/>
        <pt x="159" y="225" on="1"/>
        <pt x="155" y="205" on="1"/>
        <pt x="119" y="235" on="0"/>
        <pt x="80" y="285" on="0"/>
        <pt x="65" y="332" on="0"/>
        <pt x="65" y="359" on="1"/>
        <pt x="65" y="409" on="0"/>
        <pt x="125" y="491" on="0"/>
        <pt x="227" y="540" on="0"/>
        <pt x="289" y="540" on="1"/>
        <pt x="305" y="540" on="0"/>
        <pt x="333" y="536" on="0"/>
        <pt x="367" y="528" on="0"/>
        <pt x="393" y="521" on="1"/>
        <pt x="339" y="529" on="1"/>
        <pt x="571" y="529" on="1"/>
        <pt x="571" y="417" on="1"/>
        <pt x="468" y="417" on="1"/>
        <pt x="488" y="445" on="1"/>
        <pt x="497" y="425" on="0"/>
        <pt x="507" y="396" on="0"/>
        <pt x="511" y="372" on="0"/>
        <pt x="511" y="359" on="1"/>
        <pt x="511" y="308" on="0"/>
        <pt x="451" y="223" on="0"/>
        <pt x="350" y="173" on="0"/>
        <pt x="288" y="173" on="1"/>
        <pt x="250" y="173" on="1"/>
        <pt x="232" y="173" on="0"/>
        <pt x="211" y="157" on="0"/>
        <pt x="211" y="144" on="1"/>
        <pt x="211" y="129" on="0"/>
        <pt x="231" y="113" on="0"/>
        <pt x="250" y="113" on="1"/>
        <pt x="303" y="113" on="1"/>
        <pt x="429" y="113" on="0"/>
        <pt x="571" y="25" on="0"/>
        <pt x="571" y="-61" on="1"/>
        <pt x="571" y="-113" on="0"/>
        <pt x="507" y="-192" on="0"/>
        <pt x="387" y="-234" on="0"/>
      </contour>
      <contour>
        <pt x="302" y="-117" on="1"/>
        <pt x="335" y="-117" on="0"/>
        <pt x="383" y="-102" on="0"/>
        <pt x="410" y="-77" on="0"/>
        <pt x="410" y="-61" on="1"/>
        <pt x="410" y="-35" on="0"/>
        <pt x="352" y="-4" on="0"/>
        <pt x="302" y="-4" on="1"/>
        <pt x="255" y="-4" on="0"/>
        <pt x="197" y="-35" on="0"/>
        <pt x="197" y="-61" on="1"/>
        <pt x="197" y="-77" on="0"/>
        <pt x="223" y="-102" on="0"/>
        <pt x="271" y="-117" on="0"/>
      </contour>
      <contour>
        <pt x="289" y="285" on="1"/>
        <pt x="311" y="285" on="0"/>
        <pt x="346" y="302" on="0"/>
        <pt x="367" y="335" on="0"/>
        <pt x="367" y="356" on="1"/>
        <pt x="367" y="375" on="0"/>
        <pt x="346" y="406" on="0"/>
        <pt x="311" y="424" on="0"/>
        <pt x="289" y="424" on="1"/>
        <pt x="267" y="424" on="0"/>
        <pt x="233" y="406" on="0"/>
        <pt x="212" y="375" on="0"/>
        <pt x="212" y="356" on="1"/>
        <pt x="212" y="336" on="0"/>
        <pt x="233" y="303" on="0"/>
        <pt x="267" y="285" on="0"/>
      </contour>
    </TTGlyph>
    <TTGlyph name="gbreve" xMin="34" yMin="-230" xMax="601" yMax="773">
      <component glyphName="g" x="0" y="0" flags="0x604"/>
      <component glyphName="uni0306" x="85" y="6" flags="0x4"/>
    </TTGlyph>
    <TTGlyph name="gbreve.ss01" xMin="36" yMin="-234" xMax="571" yMax="773">
      <component glyphName="g.ss01" x="0" y="0" flags="0x604"/>
      <component glyphName="uni0306" x="48" y="6" flags="0x4"/>
    </TTGlyph>
    <TTGlyph name="gcaron" xMin="34" yMin="-230" xMax="601" yMax="786">
      <component glyphName="g" x="0" y="0" flags="0x604"/>
      <component glyphName="uni030C" x="85" y="6" flags="0x4"/>
    </TTGlyph>
    <TTGlyph name="gcaron.ss01" xMin="36" yMin="-234" xMax="571" yMax="786">
      <component glyphName="g.ss01" x="0" y="0" flags="0x604"/>
      <component glyphName="uni030C" x="48" y="6" flags="0x4"/>
    </TTGlyph>
    <TTGlyph name="gcircumflex" xMin="34" yMin="-230" xMax="601" yMax="780">
      <component glyphName="g" x="0" y="0" flags="0x604"/>
      <component glyphName="uni0302" x="85" y="6" flags="0x4"/>
    </TTGlyph>
    <TTGlyph name="gcircumflex.ss01" xMin="36" yMin="-234" xMax="571" yMax="780">
      <component glyphName="g.ss01" x="0" y="0" flags="0x604"/>
      <component glyphName="uni0302" x="48" y="6" flags="0x4"/>
    </TTGlyph>
    <TTGlyph name="gdotaccent" xMin="34" yMin="-230" xMax="601" yMax="802">
      <component glyphName="g" x="0" y="0" flags="0x604"/>
      <component glyphName="uni0307" x="85" y="6" flags="0x4"/>
    </TTGlyph>
    <TTGlyph name="gdotaccent.ss01" xMin="36" yMin="-234" xMax="571" yMax="802">
      <component glyphName="g.ss01" x="0" y="0" flags="0x604"/>
      <component glyphName="uni0307" x="48" y="6" flags="0x4"/>
    </TTGlyph>
    <TTGlyph name="germandbls" xMin="27" yMin="-10" xMax="644" yMax="734">
      <contour>
        <pt x="427" y="-10" on="1" overlap="1"/>
        <pt x="385" y="-10" on="0"/>
        <pt x="320" y="16" on="0"/>
        <pt x="295" y="41" on="1"/>
        <pt x="358" y="151" on="1"/>
        <pt x="376" y="136" on="0"/>
        <pt x="406" y="125" on="0"/>
        <pt x="422" y="125" on="1"/>
        <pt x="453" y="125" on="0"/>
        <pt x="489" y="166" on="0"/>
        <pt x="489" y="202" on="1"/>
        <pt x="489" y="230" on="0"/>
        <pt x="467" y="275" on="0"/>
        <pt x="426" y="311" on="0"/>
        <pt x="373" y="338" on="0"/>
        <pt x="343" y="349" on="1"/>
        <pt x="343" y="434" on="1"/>
        <pt x="364" y="443" on="0"/>
        <pt x="394" y="463" on="0"/>
        <pt x="413" y="485" on="0"/>
        <pt x="421" y="511" on="0"/>
        <pt x="421" y="525" on="1"/>
        <pt x="421" y="556" on="0"/>
        <pt x="379" y="589" on="0"/>
        <pt x="343" y="589" on="1"/>
        <pt x="303" y="589" on="0"/>
        <pt x="262" y="540" on="0"/>
        <pt x="262" y="498" on="1"/>
        <pt x="262" y="0" on="1"/>
        <pt x="104" y="0" on="1"/>
        <pt x="104" y="499" on="1"/>
        <pt x="104" y="569" on="0"/>
        <pt x="163" y="675" on="0"/>
        <pt x="272" y="734" on="0"/>
        <pt x="349" y="734" on="1"/>
        <pt x="413" y="734" on="0"/>
        <pt x="513" y="694" on="0"/>
        <pt x="571" y="618" on="0"/>
        <pt x="571" y="565" on="1"/>
        <pt x="571" y="533" on="0"/>
        <pt x="544" y="469" on="0"/>
        <pt x="494" y="416" on="0"/>
        <pt x="459" y="401" on="1"/>
        <pt x="457" y="437" on="1"/>
        <pt x="499" y="424" on="0"/>
        <pt x="567" y="380" on="0"/>
        <pt x="617" y="321" on="0"/>
        <pt x="644" y="247" on="0"/>
        <pt x="644" y="203" on="1"/>
        <pt x="644" y="142" on="0"/>
        <pt x="588" y="46" on="0"/>
        <pt x="490" y="-10" on="0"/>
      </contour>
      <contour>
        <pt x="27" y="364" on="1"/>
        <pt x="27" y="502" on="1"/>
        <pt x="178" y="502" on="1"/>
        <pt x="178" y="364" on="1"/>
      </contour>
    </TTGlyph>
    <TTGlyph name="grave" xMin="124" yMin="584" xMax="376" yMax="798">
      <component glyphName="gravecomb" x="0" y="0" flags="0x404"/>
    </TTGlyph>
    <TTGlyph name="gravecomb" xMin="124" yMin="584" xMax="376" yMax="798">
      <contour>
        <pt x="329" y="584" on="1" overlap="1"/>
        <pt x="124" y="694" on="1"/>
        <pt x="197" y="798" on="1"/>
        <pt x="376" y="656" on="1"/>
      </contour>
    </TTGlyph>
    <TTGlyph name="gravecomb.case" xMin="118" yMin="748" xMax="382" yMax="943">
      <contour>
        <pt x="345" y="748" on="1" overlap="1"/>
        <pt x="118" y="826" on="1"/>
        <pt x="173" y="943" on="1"/>
        <pt x="382" y="828" on="1"/>
      </contour>
    </TTGlyph>
    <TTGlyph name="greater" xMin="40" yMin="-13" xMax="493" yMax="528">
      <contour>
        <pt x="105" y="-13" on="1" overlap="1"/>
        <pt x="40" y="113" on="1"/>
        <pt x="379" y="292" on="1"/>
        <pt x="379" y="223" on="1"/>
        <pt x="40" y="401" on="1"/>
        <pt x="105" y="528" on="1"/>
        <pt x="493" y="306" on="1"/>
        <pt x="493" y="209" on="1"/>
      </contour>
    </TTGlyph>
    <TTGlyph name="greaterequal" xMin="65" yMin="0" xMax="562" yMax="563">
      <contour>
        <pt x="109" y="158" on="1" overlap="1"/>
        <pt x="90" y="278" on="1"/>
        <pt x="456" y="392" on="1"/>
        <pt x="454" y="331" on="1"/>
        <pt x="87" y="446" on="1"/>
        <pt x="109" y="563" on="1"/>
        <pt x="562" y="409" on="1"/>
        <pt x="562" y="312" on="1"/>
      </contour>
      <contour>
        <pt x="65" y="0" on="1"/>
        <pt x="65" y="129" on="1"/>
        <pt x="562" y="129" on="1"/>
        <pt x="562" y="0" on="1"/>
      </contour>
    </TTGlyph>
    <TTGlyph name="guillemotleft" xMin="10" yMin="26" xMax="525" yMax="492">
      <component glyphName="guilsinglleft" x="247" y="0" flags="0x404"/>
      <component glyphName="guilsinglleft" x="0" y="0" flags="0x4"/>
    </TTGlyph>
    <TTGlyph name="guillemotleft.case" xMin="10" yMin="100" xMax="525" yMax="566">
      <component glyphName="guilsinglleft" x="247" y="74" flags="0x404"/>
      <component glyphName="guilsinglleft" x="0" y="74" flags="0x4"/>
    </TTGlyph>
    <TTGlyph name="guillemotright" xMin="37" yMin="29" xMax="553" yMax="495">
      <component glyphName="guilsinglright" x="249" y="0" flags="0x404"/>
      <component glyphName="guilsinglright" x="0" y="0" flags="0x4"/>
    </TTGlyph>
    <TTGlyph name="guillemotright.case" xMin="37" yMin="103" xMax="553" yMax="569">
      <component glyphName="guilsinglright" x="249" y="74" flags="0x404"/>
      <component glyphName="guilsinglright" x="0" y="74" flags="0x4"/>
    </TTGlyph>
    <TTGlyph name="guilsinglleft" xMin="10" yMin="26" xMax="278" yMax="492">
      <contour>
        <pt x="186" y="26" on="1" overlap="1"/>
        <pt x="10" y="252" on="1"/>
        <pt x="10" y="265" on="1"/>
        <pt x="186" y="492" on="1"/>
        <pt x="277" y="429" on="1"/>
        <pt x="155" y="242" on="1"/>
        <pt x="155" y="276" on="1"/>
        <pt x="278" y="90" on="1"/>
      </contour>
    </TTGlyph>
    <TTGlyph name="guilsinglleft.case" xMin="10" yMin="107" xMax="278" yMax="573">
      <component glyphName="guilsinglleft" x="0" y="81" flags="0x604"/>
    </TTGlyph>
    <TTGlyph name="guilsinglright" xMin="37" yMin="29" xMax="304" yMax="495">
      <contour>
        <pt x="129" y="29" on="1" overlap="1"/>
        <pt x="38" y="92" on="1"/>
        <pt x="160" y="279" on="1"/>
        <pt x="160" y="245" on="1"/>
        <pt x="37" y="431" on="1"/>
        <pt x="129" y="495" on="1"/>
        <pt x="304" y="269" on="1"/>
        <pt x="304" y="256" on="1"/>
      </contour>
    </TTGlyph>
    <TTGlyph name="guilsinglright.case" xMin="37" yMin="110" xMax="304" yMax="576">
      <component glyphName="guilsinglright" x="0" y="81" flags="0x604"/>
    </TTGlyph>
    <TTGlyph name="h" xMin="71" yMin="0" xMax="572" yMax="740">
      <contour>
        <pt x="71" y="0" on="1" overlap="1"/>
        <pt x="71" y="740" on="1"/>
        <pt x="228" y="740" on="1"/>
        <pt x="228" y="423" on="1"/>
        <pt x="196" y="411" on="1"/>
        <pt x="207" y="447" on="0"/>
        <pt x="264" y="506" on="0"/>
        <pt x="344" y="542" on="0"/>
        <pt x="388" y="542" on="1"/>
        <pt x="448" y="542" on="0"/>
        <pt x="530" y="493" on="0"/>
        <pt x="572" y="396" on="0"/>
        <pt x="572" y="326" on="1"/>
        <pt x="572" y="0" on="1"/>
        <pt x="411" y="0" on="1"/>
        <pt x="411" y="313" on="1"/>
        <pt x="411" y="345" on="0"/>
        <pt x="393" y="387" on="0"/>
        <pt x="356" y="408" on="0"/>
        <pt x="329" y="407" on="1"/>
        <pt x="308" y="407" on="0"/>
        <pt x="272" y="394" on="0"/>
        <pt x="246" y="369" on="0"/>
        <pt x="231" y="337" on="0"/>
        <pt x="231" y="318" on="1"/>
        <pt x="231" y="0" on="1"/>
        <pt x="152" y="0" on="1"/>
        <pt x="124" y="0" on="0"/>
        <pt x="84" y="0" on="0"/>
      </contour>
    </TTGlyph>
    <TTGlyph name="hbar" xMin="13" yMin="0" xMax="572" yMax="740">
      <contour>
        <pt x="13" y="578" on="1" overlap="1"/>
        <pt x="13" y="697" on="1"/>
        <pt x="339" y="697" on="1"/>
        <pt x="339" y="578" on="1"/>
      </contour>
      <contour>
        <pt x="71" y="0" on="1"/>
        <pt x="71" y="740" on="1"/>
        <pt x="228" y="740" on="1"/>
        <pt x="228" y="423" on="1"/>
        <pt x="196" y="411" on="1"/>
        <pt x="207" y="447" on="0"/>
        <pt x="264" y="506" on="0"/>
        <pt x="344" y="542" on="0"/>
        <pt x="388" y="542" on="1"/>
        <pt x="448" y="542" on="0"/>
        <pt x="530" y="493" on="0"/>
        <pt x="572" y="396" on="0"/>
        <pt x="572" y="326" on="1"/>
        <pt x="572" y="0" on="1"/>
        <pt x="411" y="0" on="1"/>
        <pt x="411" y="313" on="1"/>
        <pt x="411" y="345" on="0"/>
        <pt x="393" y="387" on="0"/>
        <pt x="356" y="408" on="0"/>
        <pt x="329" y="407" on="1"/>
        <pt x="308" y="407" on="0"/>
        <pt x="272" y="394" on="0"/>
        <pt x="246" y="369" on="0"/>
        <pt x="231" y="337" on="0"/>
        <pt x="231" y="318" on="1"/>
        <pt x="231" y="0" on="1"/>
        <pt x="152" y="0" on="1"/>
        <pt x="124" y="0" on="0"/>
        <pt x="84" y="0" on="0"/>
      </contour>
    </TTGlyph>
    <TTGlyph name="hcircumflex" xMin="71" yMin="0" xMax="572" yMax="957">
      <component glyphName="h" x="0" y="0" flags="0x604"/>
      <component glyphName="uni0302.case" x="68" y="40" flags="0x4"/>
    </TTGlyph>
    <TTGlyph name="hookabovecomb" xMin="128" yMin="586" xMax="373" yMax="820">
      <contour>
        <pt x="225" y="586" on="1" overlap="1"/>
        <pt x="218" y="595" on="0"/>
        <pt x="206" y="616" on="0"/>
        <pt x="206" y="628" on="1"/>
        <pt x="206" y="641" on="0"/>
        <pt x="219" y="664" on="0"/>
        <pt x="237" y="676" on="1"/>
        <pt x="251" y="686" on="0"/>
        <pt x="267" y="699" on="0"/>
        <pt x="267" y="709" on="1"/>
        <pt x="267" y="718" on="0"/>
        <pt x="250" y="727" on="0"/>
        <pt x="237" y="727" on="1"/>
        <pt x="217" y="727" on="0"/>
        <pt x="173" y="715" on="0"/>
        <pt x="151" y="706" on="1"/>
        <pt x="128" y="790" on="1"/>
        <pt x="150" y="802" on="0"/>
        <pt x="215" y="820" on="0"/>
        <pt x="249" y="820" on="1"/>
        <pt x="306" y="820" on="0"/>
        <pt x="373" y="771" on="0"/>
        <pt x="373" y="729" on="1"/>
        <pt x="373" y="697" on="0"/>
        <pt x="345" y="663" on="0"/>
        <pt x="329" y="652" on="1"/>
        <pt x="313" y="643" on="0"/>
        <pt x="292" y="624" on="0"/>
        <pt x="292" y="614" on="1"/>
        <pt x="292" y="611" on="0"/>
        <pt x="294" y="604" on="0"/>
        <pt x="295" y="601" on="1"/>
      </contour>
    </TTGlyph>
    <TTGlyph name="hookabovecomb.case" xMin="128" yMin="746" xMax="373" yMax="980">
      <contour>
        <pt x="225" y="746" on="1" overlap="1"/>
        <pt x="218" y="755" on="0"/>
        <pt x="206" y="777" on="0"/>
        <pt x="206" y="789" on="1"/>
        <pt x="206" y="801" on="0"/>
        <pt x="219" y="824" on="0"/>
        <pt x="237" y="837" on="1"/>
        <pt x="251" y="846" on="0"/>
        <pt x="267" y="860" on="0"/>
        <pt x="267" y="870" on="1"/>
        <pt x="267" y="879" on="0"/>
        <pt x="250" y="888" on="0"/>
        <pt x="237" y="888" on="1"/>
        <pt x="217" y="888" on="0"/>
        <pt x="173" y="876" on="0"/>
        <pt x="151" y="866" on="1"/>
        <pt x="128" y="951" on="1"/>
        <pt x="150" y="963" on="0"/>
        <pt x="215" y="980" on="0"/>
        <pt x="249" y="980" on="1"/>
        <pt x="306" y="980" on="0"/>
        <pt x="373" y="931" on="0"/>
        <pt x="373" y="890" on="1"/>
        <pt x="373" y="857" on="0"/>
        <pt x="345" y="823" on="0"/>
        <pt x="329" y="813" on="1"/>
        <pt x="313" y="803" on="0"/>
        <pt x="292" y="785" on="0"/>
        <pt x="292" y="775" on="1"/>
        <pt x="292" y="771" on="0"/>
        <pt x="294" y="765" on="0"/>
        <pt x="295" y="761" on="1"/>
      </contour>
    </TTGlyph>
    <TTGlyph name="hungarumlaut" xMin="25" yMin="581" xMax="476" yMax="805">
      <component glyphName="uni030B" x="0" y="0" flags="0x404"/>
    </TTGlyph>
    <TTGlyph name="hyphen" xMin="51" yMin="214" xMax="397" yMax="361">
      <contour>
        <pt x="51" y="214" on="1" overlap="1"/>
        <pt x="51" y="361" on="1"/>
        <pt x="397" y="361" on="1"/>
        <pt x="397" y="214" on="1"/>
      </contour>
    </TTGlyph>
    <TTGlyph name="hyphen.case" xMin="51" yMin="257" xMax="397" yMax="404">
      <component glyphName="hyphen" x="0" y="43" flags="0x604"/>
    </TTGlyph>
    <TTGlyph name="i" xMin="64" yMin="0" xMax="255" yMax="801">
      <contour>
        <pt x="80" y="0" on="1" overlap="1"/>
        <pt x="80" y="531" on="1"/>
        <pt x="240" y="531" on="1"/>
        <pt x="240" y="0" on="1"/>
      </contour>
      <contour>
        <pt x="160" y="636" on="1"/>
        <pt x="115" y="636" on="0"/>
        <pt x="64" y="679" on="0"/>
        <pt x="64" y="719" on="1"/>
        <pt x="64" y="755" on="0"/>
        <pt x="116" y="801" on="0"/>
        <pt x="160" y="801" on="1"/>
        <pt x="205" y="801" on="0"/>
        <pt x="255" y="758" on="0"/>
        <pt x="255" y="719" on="1"/>
        <pt x="255" y="682" on="0"/>
        <pt x="204" y="636" on="0"/>
      </contour>
    </TTGlyph>
    <TTGlyph name="i.loclTRK" xMin="49" yMin="0" xMax="239" yMax="802">
      <component glyphName="dotlessi" x="0" y="0" flags="0x604"/>
      <component glyphName="uni0307" x="-106" y="6" flags="0x4"/>
    </TTGlyph>
    <TTGlyph name="iacute" xMin="18" yMin="0" xMax="270" yMax="804">
      <component glyphName="dotlessi" x="0" y="0" flags="0x604"/>
      <component glyphName="acutecomb" x="-106" y="6" flags="0x4"/>
    </TTGlyph>
    <TTGlyph name="iacute_j.loclNLD" xMin="18" yMin="-210" xMax="579" yMax="804">
      <component glyphName="dotlessi" x="0" y="0" flags="0x404"/>
      <component glyphName="acutecomb" x="-106" y="6" flags="0x4"/>
      <component glyphName="uni0237" x="289" y="0" flags="0x4"/>
      <component glyphName="acutecomb" x="203" y="6" flags="0x4"/>
    </TTGlyph>
    <TTGlyph name="ibreve" xMin="-35" yMin="0" xMax="323" yMax="773">
      <component glyphName="dotlessi" x="0" y="0" flags="0x604"/>
      <component glyphName="uni0306" x="-106" y="6" flags="0x4"/>
    </TTGlyph>
    <TTGlyph name="icircumflex" xMin="-48" yMin="0" xMax="336" yMax="780">
      <component glyphName="dotlessi" x="0" y="0" flags="0x604"/>
      <component glyphName="uni0302" x="-106" y="6" flags="0x4"/>
    </TTGlyph>
    <TTGlyph name="idieresis" xMin="-63" yMin="0" xMax="351" yMax="802">
      <component glyphName="dotlessi" x="0" y="0" flags="0x604"/>
      <component glyphName="uni0308" x="-106" y="6" flags="0x4"/>
    </TTGlyph>
    <TTGlyph name="igrave" xMin="-2" yMin="0" xMax="250" yMax="804">
      <component glyphName="dotlessi" x="0" y="0" flags="0x604"/>
      <component glyphName="gravecomb" x="-126" y="6" flags="0x4"/>
    </TTGlyph>
    <TTGlyph name="ij" xMin="64" yMin="-210" xMax="579" yMax="801">
      <component glyphName="i" x="0" y="0" flags="0x404"/>
      <component glyphName="j" x="319" y="0" flags="0x4"/>
    </TTGlyph>
    <TTGlyph name="imacron" xMin="-24" yMin="0" xMax="312" yMax="741">
      <component glyphName="dotlessi" x="0" y="0" flags="0x604"/>
      <component glyphName="uni0304" x="-106" y="6" flags="0x4"/>
    </TTGlyph>
    <TTGlyph name="infinity" xMin="42" yMin="36" xMax="865" yMax="471">
      <contour>
        <pt x="674" y="36" on="1" overlap="1"/>
        <pt x="622" y="36" on="0"/>
        <pt x="539" y="75" on="0"/>
        <pt x="489" y="126" on="1"/>
        <pt x="354" y="278" on="1"/>
        <pt x="330" y="306" on="0"/>
        <pt x="275" y="332" on="0"/>
        <pt x="247" y="332" on="1"/>
        <pt x="227" y="332" on="0"/>
        <pt x="195" y="313" on="0"/>
        <pt x="177" y="278" on="0"/>
        <pt x="177" y="253" on="1"/>
        <pt x="177" y="229" on="0"/>
        <pt x="195" y="194" on="0"/>
        <pt x="227" y="175" on="0"/>
        <pt x="248" y="175" on="1"/>
        <pt x="277" y="175" on="0"/>
        <pt x="324" y="201" on="0"/>
        <pt x="352" y="231" on="1"/>
        <pt x="482" y="377" on="1"/>
        <pt x="516" y="416" on="0"/>
        <pt x="575" y="456" on="0"/>
        <pt x="637" y="471" on="0"/>
        <pt x="672" y="471" on="1"/>
        <pt x="729" y="471" on="0"/>
        <pt x="816" y="418" on="0"/>
        <pt x="865" y="319" on="0"/>
        <pt x="865" y="253" on="1"/>
        <pt x="865" y="187" on="0"/>
        <pt x="817" y="89" on="0"/>
        <pt x="731" y="36" on="0"/>
      </contour>
      <contour>
        <pt x="233" y="36" on="1"/>
        <pt x="176" y="36" on="0"/>
        <pt x="90" y="89" on="0"/>
        <pt x="42" y="187" on="0"/>
        <pt x="42" y="253" on="1"/>
        <pt x="42" y="319" on="0"/>
        <pt x="91" y="418" on="0"/>
        <pt x="178" y="471" on="0"/>
        <pt x="235" y="471" on="1"/>
        <pt x="271" y="471" on="0"/>
        <pt x="330" y="456" on="0"/>
        <pt x="389" y="415" on="0"/>
        <pt x="425" y="377" on="1"/>
        <pt x="555" y="231" on="1"/>
        <pt x="582" y="199" on="0"/>
        <pt x="632" y="175" on="0"/>
        <pt x="659" y="175" on="1"/>
        <pt x="680" y="175" on="0"/>
        <pt x="712" y="194" on="0"/>
        <pt x="730" y="229" on="0"/>
        <pt x="730" y="253" on="1"/>
        <pt x="730" y="278" on="0"/>
        <pt x="712" y="313" on="0"/>
        <pt x="680" y="332" on="0"/>
        <pt x="659" y="332" on="1"/>
        <pt x="632" y="332" on="0"/>
        <pt x="580" y="305" on="0"/>
        <pt x="553" y="278" on="1"/>
        <pt x="419" y="126" on="1"/>
        <pt x="386" y="89" on="0"/>
        <pt x="329" y="50" on="0"/>
        <pt x="268" y="36" on="0"/>
      </contour>
    </TTGlyph>
    <TTGlyph name="integral" xMin="-25" yMin="-133" xMax="641" yMax="756">
      <contour>
        <pt x="135" y="-133" on="1" overlap="1"/>
        <pt x="113" y="-133" on="0"/>
        <pt x="61" y="-119" on="0"/>
        <pt x="4" y="-93" on="0"/>
        <pt x="-25" y="-72" on="1"/>
        <pt x="58" y="65" on="1"/>
        <pt x="73" y="53" on="0"/>
        <pt x="111" y="38" on="0"/>
        <pt x="129" y="38" on="1"/>
        <pt x="146" y="38" on="0"/>
        <pt x="174" y="56" on="0"/>
        <pt x="193" y="92" on="0"/>
        <pt x="198" y="116" on="1"/>
        <pt x="277" y="547" on="1"/>
        <pt x="290" y="618" on="0"/>
        <pt x="345" y="710" on="0"/>
        <pt x="427" y="756" on="0"/>
        <pt x="482" y="756" on="1"/>
        <pt x="534" y="756" on="0"/>
        <pt x="612" y="730" on="0"/>
        <pt x="641" y="704" on="1"/>
        <pt x="593" y="570" on="1"/>
        <pt x="571" y="584" on="0"/>
        <pt x="525" y="600" on="0"/>
        <pt x="506" y="600" on="1"/>
        <pt x="487" y="600" on="0"/>
        <pt x="457" y="581" on="0"/>
        <pt x="436" y="540" on="0"/>
        <pt x="431" y="510" on="1"/>
        <pt x="358" y="91" on="1"/>
        <pt x="345" y="16" on="0"/>
        <pt x="286" y="-84" on="0"/>
        <pt x="196" y="-133" on="0"/>
      </contour>
    </TTGlyph>
    <TTGlyph name="iogonek" xMin="2" yMin="-211" xMax="242" yMax="802">
      <component glyphName="dotlessi" x="0" y="0" flags="0x604"/>
      <component glyphName="uni0307" x="-106" y="6" flags="0x4"/>
      <component glyphName="uni0328" x="-128" y="0" flags="0x4"/>
    </TTGlyph>
    <TTGlyph name="itilde" xMin="-37" yMin="0" xMax="326" yMax="768">
      <component glyphName="dotlessi" x="0" y="0" flags="0x604"/>
      <component glyphName="tildecomb" x="-106" y="6" flags="0x4"/>
    </TTGlyph>
    <TTGlyph name="j" xMin="-38" yMin="-210" xMax="260" yMax="801">
      <contour>
        <pt x="23" y="-210" on="1" overlap="1"/>
        <pt x="-38" y="-86" on="1"/>
        <pt x="8" y="-86" on="0"/>
        <pt x="60" y="-62" on="0"/>
        <pt x="82" y="-7" on="0"/>
        <pt x="82" y="41" on="1"/>
        <pt x="82" y="531" on="1"/>
        <pt x="242" y="531" on="1"/>
        <pt x="242" y="3" on="1"/>
        <pt x="242" y="-70" on="0"/>
        <pt x="192" y="-164" on="0"/>
        <pt x="94" y="-210" on="0"/>
      </contour>
      <contour>
        <pt x="165" y="636" on="1"/>
        <pt x="120" y="636" on="0"/>
        <pt x="69" y="679" on="0"/>
        <pt x="69" y="719" on="1"/>
        <pt x="69" y="755" on="0"/>
        <pt x="121" y="801" on="0"/>
        <pt x="165" y="801" on="1"/>
        <pt x="210" y="801" on="0"/>
        <pt x="260" y="758" on="0"/>
        <pt x="260" y="719" on="1"/>
        <pt x="260" y="682" on="0"/>
        <pt x="209" y="636" on="0"/>
      </contour>
    </TTGlyph>
    <TTGlyph name="jcircumflex" xMin="-38" yMin="-210" xMax="356" yMax="780">
      <component glyphName="uni0237" x="0" y="0" flags="0x604"/>
      <component glyphName="uni0302" x="-86" y="6" flags="0x4"/>
    </TTGlyph>
    <TTGlyph name="k" xMin="71" yMin="0" xMax="625" yMax="740">
      <contour>
        <pt x="225" y="156" on="1" overlap="1"/>
        <pt x="166" y="276" on="1"/>
        <pt x="414" y="531" on="1"/>
        <pt x="625" y="531" on="1"/>
      </contour>
      <contour>
        <pt x="71" y="0" on="1"/>
        <pt x="71" y="740" on="1"/>
        <pt x="231" y="740" on="1"/>
        <pt x="231" y="0" on="1"/>
      </contour>
      <contour>
        <pt x="431" y="0" on="1"/>
        <pt x="244" y="242" on="1"/>
        <pt x="357" y="330" on="1"/>
        <pt x="620" y="0" on="1"/>
      </contour>
    </TTGlyph>
    <TTGlyph name="kgreenlandic" xMin="71" yMin="0" xMax="615" yMax="531">
      <contour>
        <pt x="223" y="134" on="1" overlap="1"/>
        <pt x="163" y="250" on="1"/>
        <pt x="412" y="531" on="1"/>
        <pt x="615" y="531" on="1"/>
      </contour>
      <contour>
        <pt x="71" y="0" on="1"/>
        <pt x="71" y="531" on="1"/>
        <pt x="229" y="531" on="1"/>
        <pt x="229" y="0" on="1"/>
      </contour>
      <contour>
        <pt x="423" y="0" on="1"/>
        <pt x="245" y="260" on="1"/>
        <pt x="356" y="339" on="1"/>
        <pt x="609" y="0" on="1"/>
      </contour>
    </TTGlyph>
    <TTGlyph name="l" xMin="72" yMin="0" xMax="232" yMax="740">
      <contour>
        <pt x="72" y="0" on="1" overlap="1"/>
        <pt x="72" y="740" on="1"/>
        <pt x="232" y="740" on="1"/>
        <pt x="232" y="0" on="1"/>
      </contour>
    </TTGlyph>
    <TTGlyph name="lacute" xMin="27" yMin="0" xMax="291" yMax="983">
      <component glyphName="l" x="0" y="0" flags="0x604"/>
      <component glyphName="acutecomb.case" x="-91" y="40" flags="0x4"/>
    </TTGlyph>
    <TTGlyph name="lcaron" xMin="72" yMin="0" xMax="486" yMax="740">
      <component glyphName="l" x="0" y="0" flags="0x404"/>
      <component glyphName="uni030C.alt" x="141" y="48" flags="0x4"/>
    </TTGlyph>
    <TTGlyph name="ldot" xMin="72" yMin="0" xMax="465" yMax="740">
      <component glyphName="l" x="0" y="0" flags="0x404"/>
      <component glyphName="period" x="250" y="310" flags="0x4"/>
    </TTGlyph>
    <TTGlyph name="less" xMin="41" yMin="-13" xMax="495" yMax="528">
      <contour>
        <pt x="429" y="-13" on="1" overlap="1"/>
        <pt x="41" y="209" on="1"/>
        <pt x="41" y="306" on="1"/>
        <pt x="429" y="528" on="1"/>
        <pt x="495" y="401" on="1"/>
        <pt x="155" y="223" on="1"/>
        <pt x="155" y="292" on="1"/>
        <pt x="495" y="113" on="1"/>
      </contour>
    </TTGlyph>
    <TTGlyph name="lessequal" xMin="65" yMin="0" xMax="562" yMax="563">
      <contour>
        <pt x="518" y="158" on="1" overlap="1"/>
        <pt x="65" y="312" on="1"/>
        <pt x="65" y="409" on="1"/>
        <pt x="518" y="563" on="1"/>
        <pt x="540" y="446" on="1"/>
        <pt x="173" y="331" on="1"/>
        <pt x="171" y="392" on="1"/>
        <pt x="537" y="278" on="1"/>
      </contour>
      <contour>
        <pt x="65" y="0" on="1"/>
        <pt x="65" y="129" on="1"/>
        <pt x="562" y="129" on="1"/>
        <pt x="562" y="0" on="1"/>
      </contour>
    </TTGlyph>
    <TTGlyph name="lira" xMin="21" yMin="-21" xMax="619" yMax="716">
      <contour>
        <pt x="184" y="53" on="1" overlap="1"/>
        <pt x="109" y="74" on="1"/>
        <pt x="134" y="88" on="0"/>
        <pt x="168" y="158" on="0"/>
        <pt x="168" y="201" on="1"/>
        <pt x="168" y="229" on="0"/>
        <pt x="156" y="292" on="0"/>
        <pt x="136" y="352" on="1"/>
        <pt x="124" y="389" on="0"/>
        <pt x="112" y="437" on="0"/>
        <pt x="107" y="471" on="0"/>
        <pt x="107" y="487" on="1"/>
        <pt x="107" y="556" on="0"/>
        <pt x="167" y="659" on="0"/>
        <pt x="276" y="716" on="0"/>
        <pt x="350" y="716" on="1"/>
        <pt x="421" y="716" on="0"/>
        <pt x="526" y="668" on="0"/>
        <pt x="550" y="625" on="1"/>
        <pt x="430" y="531" on="1"/>
        <pt x="419" y="545" on="0"/>
        <pt x="395" y="562" on="0"/>
        <pt x="365" y="571" on="0"/>
        <pt x="348" y="571" on="1"/>
        <pt x="321" y="571" on="0"/>
        <pt x="278" y="546" on="0"/>
        <pt x="252" y="503" on="0"/>
        <pt x="252" y="475" on="1"/>
        <pt x="252" y="444" on="0"/>
        <pt x="269" y="382" on="0"/>
        <pt x="279" y="353" on="1"/>
        <pt x="290" y="318" on="0"/>
        <pt x="307" y="253" on="0"/>
        <pt x="307" y="229" on="1"/>
        <pt x="307" y="198" on="0"/>
        <pt x="283" y="142" on="0"/>
        <pt x="229" y="85" on="0"/>
      </contour>
      <contour>
        <pt x="442" y="-21" on="1"/>
        <pt x="414" y="-21" on="0"/>
        <pt x="347" y="-4" on="0"/>
        <pt x="319" y="4" on="1"/>
        <pt x="306" y="8" on="0"/>
        <pt x="270" y="18" on="0"/>
        <pt x="234" y="26" on="0"/>
        <pt x="220" y="26" on="1"/>
        <pt x="199" y="26" on="0"/>
        <pt x="152" y="16" on="0"/>
        <pt x="102" y="-1" on="0"/>
        <pt x="76" y="-12" on="1"/>
        <pt x="21" y="93" on="1"/>
        <pt x="61" y="119" on="0"/>
        <pt x="170" y="154" on="0"/>
        <pt x="233" y="154" on="1"/>
        <pt x="252" y="154" on="0"/>
        <pt x="297" y="144" on="0"/>
        <pt x="340" y="129" on="1"/>
        <pt x="361" y="122" on="0"/>
        <pt x="409" y="107" on="0"/>
        <pt x="431" y="107" on="1"/>
        <pt x="461" y="107" on="0"/>
        <pt x="522" y="124" on="0"/>
        <pt x="552" y="142" on="1"/>
        <pt x="619" y="43" on="1"/>
        <pt x="585" y="12" on="0"/>
        <pt x="493" y="-21" on="0"/>
      </contour>
      <contour>
        <pt x="46" y="220" on="1"/>
        <pt x="46" y="291" on="1"/>
        <pt x="485" y="291" on="1"/>
        <pt x="485" y="220" on="1"/>
      </contour>
      <contour>
        <pt x="46" y="339" on="1"/>
        <pt x="46" y="410" on="1"/>
        <pt x="485" y="410" on="1"/>
        <pt x="485" y="339" on="1"/>
      </contour>
    </TTGlyph>
    <TTGlyph name="logicalnot" xMin="41" yMin="106" xMax="629" yMax="415">
      <contour>
        <pt x="478" y="106" on="1" overlap="1"/>
        <pt x="478" y="319" on="1"/>
        <pt x="543" y="277" on="1"/>
        <pt x="41" y="277" on="1"/>
        <pt x="41" y="415" on="1"/>
        <pt x="629" y="415" on="1"/>
        <pt x="629" y="106" on="1"/>
      </contour>
    </TTGlyph>
    <TTGlyph name="lozenge" xMin="38" yMin="-63" xMax="616" yMax="713">
      <contour>
        <pt x="327" y="-63" on="1" overlap="1"/>
        <pt x="38" y="328" on="1"/>
        <pt x="327" y="713" on="1"/>
        <pt x="616" y="331" on="1"/>
      </contour>
      <contour>
        <pt x="328" y="157" on="1"/>
        <pt x="446" y="327" on="1"/>
        <pt x="327" y="493" on="1"/>
        <pt x="209" y="328" on="1"/>
      </contour>
    </TTGlyph>
    <TTGlyph name="lslash" xMin="-1" yMin="0" xMax="378" yMax="740">
      <contour>
        <pt x="49" y="253" on="1" overlap="1"/>
        <pt x="-1" y="379" on="1"/>
        <pt x="327" y="523" on="1"/>
        <pt x="378" y="398" on="1"/>
      </contour>
      <contour>
        <pt x="108" y="0" on="1"/>
        <pt x="108" y="740" on="1"/>
        <pt x="268" y="740" on="1"/>
        <pt x="268" y="0" on="1"/>
      </contour>
    </TTGlyph>
    <TTGlyph name="m" xMin="70" yMin="0" xMax="900" yMax="541">
      <contour>
        <pt x="70" y="0" on="1" overlap="1"/>
        <pt x="70" y="531" on="1"/>
        <pt x="222" y="531" on="1"/>
        <pt x="227" y="435" on="1"/>
        <pt x="206" y="434" on="1"/>
        <pt x="218" y="460" on="0"/>
        <pt x="255" y="500" on="0"/>
        <pt x="302" y="527" on="0"/>
        <pt x="353" y="541" on="0"/>
        <pt x="379" y="541" on="1"/>
        <pt x="418" y="541" on="0"/>
        <pt x="482" y="517" on="0"/>
        <pt x="530" y="464" on="0"/>
        <pt x="544" y="419" on="1"/>
        <pt x="519" y="421" on="1"/>
        <pt x="527" y="437" on="1"/>
        <pt x="540" y="461" on="0"/>
        <pt x="581" y="500" on="0"/>
        <pt x="631" y="527" on="0"/>
        <pt x="685" y="541" on="0"/>
        <pt x="710" y="541" on="1"/>
        <pt x="773" y="541" on="0"/>
        <pt x="857" y="492" on="0"/>
        <pt x="900" y="394" on="0"/>
        <pt x="900" y="324" on="1"/>
        <pt x="900" y="0" on="1"/>
        <pt x="739" y="0" on="1"/>
        <pt x="739" y="311" on="1"/>
        <pt x="739" y="343" on="0"/>
        <pt x="721" y="385" on="0"/>
        <pt x="686" y="406" on="0"/>
        <pt x="660" y="406" on="1"/>
        <pt x="639" y="406" on="0"/>
        <pt x="604" y="392" on="0"/>
        <pt x="579" y="368" on="0"/>
        <pt x="565" y="336" on="0"/>
        <pt x="565" y="316" on="1"/>
        <pt x="565" y="0" on="1"/>
        <pt x="404" y="0" on="1"/>
        <pt x="404" y="312" on="1"/>
        <pt x="404" y="342" on="0"/>
        <pt x="386" y="384" on="0"/>
        <pt x="350" y="406" on="0"/>
        <pt x="326" y="406" on="1"/>
        <pt x="305" y="406" on="0"/>
        <pt x="270" y="392" on="0"/>
        <pt x="245" y="368" on="0"/>
        <pt x="231" y="336" on="0"/>
        <pt x="231" y="317" on="1"/>
        <pt x="231" y="0" on="1"/>
      </contour>
    </TTGlyph>
    <TTGlyph name="macron" xMin="82" yMin="634" xMax="418" yMax="735">
      <component glyphName="uni0304" x="0" y="0" flags="0x404"/>
    </TTGlyph>
    <TTGlyph name="minus" xMin="38" yMin="228" xMax="541" yMax="364">
      <contour>
        <pt x="38" y="228" on="1" overlap="1"/>
        <pt x="38" y="364" on="1"/>
        <pt x="541" y="364" on="1"/>
        <pt x="541" y="228" on="1"/>
      </contour>
    </TTGlyph>
    <TTGlyph name="multiply" xMin="38" yMin="50" xMax="494" yMax="507">
      <contour>
        <pt x="398" y="53" on="1" overlap="1"/>
        <pt x="38" y="413" on="1"/>
        <pt x="134" y="507" on="1"/>
        <pt x="494" y="147" on="1"/>
      </contour>
      <contour>
        <pt x="134" y="50" on="1"/>
        <pt x="40" y="147" on="1"/>
        <pt x="399" y="507" on="1"/>
        <pt x="494" y="411" on="1"/>
      </contour>
    </TTGlyph>
    <TTGlyph name="n" xMin="71" yMin="0" xMax="572" yMax="542">
      <contour>
        <pt x="71" y="0" on="1" overlap="1"/>
        <pt x="71" y="531" on="1"/>
        <pt x="223" y="531" on="1"/>
        <pt x="228" y="423" on="1"/>
        <pt x="196" y="411" on="1"/>
        <pt x="207" y="447" on="0"/>
        <pt x="264" y="506" on="0"/>
        <pt x="344" y="542" on="0"/>
        <pt x="388" y="542" on="1"/>
        <pt x="448" y="542" on="0"/>
        <pt x="530" y="493" on="0"/>
        <pt x="572" y="396" on="0"/>
        <pt x="572" y="326" on="1"/>
        <pt x="572" y="0" on="1"/>
        <pt x="411" y="0" on="1"/>
        <pt x="411" y="313" on="1"/>
        <pt x="411" y="345" on="0"/>
        <pt x="393" y="387" on="0"/>
        <pt x="356" y="408" on="0"/>
        <pt x="329" y="407" on="1"/>
        <pt x="308" y="407" on="0"/>
        <pt x="272" y="394" on="0"/>
        <pt x="246" y="369" on="0"/>
        <pt x="231" y="337" on="0"/>
        <pt x="231" y="318" on="1"/>
        <pt x="231" y="0" on="1"/>
        <pt x="152" y="0" on="1"/>
        <pt x="124" y="0" on="0"/>
        <pt x="84" y="0" on="0"/>
      </contour>
    </TTGlyph>
    <TTGlyph name="nacute" xMin="71" yMin="0" xMax="572" yMax="804">
      <component glyphName="n" x="0" y="0" flags="0x604"/>
      <component glyphName="acutecomb" x="98" y="6" flags="0x4"/>
    </TTGlyph>
    <TTGlyph name="napostrophe" xMin="-93" yMin="0" xMax="607" yMax="700">
      <component glyphName="quotesingle" x="-137" y="0" flags="0x404"/>
      <component glyphName="n" x="35" y="0" flags="0x4"/>
    </TTGlyph>
    <TTGlyph name="ncaron" xMin="71" yMin="0" xMax="572" yMax="786">
      <component glyphName="n" x="0" y="0" flags="0x604"/>
      <component glyphName="uni030C" x="98" y="6" flags="0x4"/>
    </TTGlyph>
</ttFont>
